<svg width="70" height="70" viewBox="0 0 70 70" fill="none" xmlns="http://www.w3.org/2000/svg">
<path d="M65.0554 10.7888C63.4697 8.10004 60.7809 6.16966 57.6786 5.41129C54.1625 4.51505 50.3017 5.13553 47.0615 7.0659L34.9966 14.3048L23.0007 7.0659C19.8983 5.20447 16.3822 4.58399 13.0041 5.27341C9.55696 5.96283 6.73033 7.96215 5.00678 10.7888C2.24909 15.339 2.66275 20.7164 6.04091 24.853C6.17879 25.0598 6.31668 25.1977 6.45456 25.4045C6.59245 25.5424 6.66139 25.7492 6.73033 25.8182L6.79927 25.8871L12.9351 36.9178C13.4867 37.952 14.5897 38.5035 15.6928 38.5035C16.1754 38.5035 16.7269 38.3656 17.2095 38.0899C17.7611 37.7451 18.3126 37.2625 18.5884 36.711C19.2778 35.539 19.2778 34.0912 18.6573 32.9192L16.7959 29.541L23.9659 33.8844V44.3636L22.0355 41.0544C21.3461 39.8823 20.1051 39.124 18.7263 39.124C18.0368 39.124 17.4164 39.2619 16.7959 39.6066C15.2792 40.5028 14.7966 42.3643 15.6928 43.881L21.9665 54.7738L22.2423 55.3943C22.3112 55.6011 22.4491 55.8769 22.5181 56.0837C24.3106 61.1165 28.6539 64.2189 33.9625 64.2189C40.8567 64.2189 46.441 58.152 46.441 50.7063V33.6086L53.1973 29.541L51.3359 32.9192C50.6465 34.0912 50.7154 35.539 51.4048 36.711C51.7495 37.2625 52.2321 37.7451 52.7837 38.0899C53.2663 38.3656 53.7489 38.5035 54.3004 38.5035C54.5762 38.5035 54.8519 38.4346 55.1277 38.3656C55.955 38.1588 56.5755 37.6073 56.9891 36.8489C58.9885 33.195 62.7803 26.3697 63.056 25.8871C63.125 25.8182 63.2629 25.5424 63.4007 25.3356C63.5386 25.1287 63.6765 24.9219 63.8833 24.784C67.3304 20.7164 67.7441 15.339 65.0554 10.7888ZM14.8655 26.3697C14.5208 26.1629 14.1071 26.2318 13.8314 26.5076C13.5556 26.7833 13.4867 27.197 13.6935 27.5417L17.1406 33.7465C17.4853 34.367 17.4853 35.1943 17.1406 35.8148C16.9338 36.0905 16.7269 36.3663 16.3822 36.5731C15.6928 36.9178 14.8655 36.711 14.5208 36.0216L8.38494 24.9909C8.38494 24.9219 8.316 24.9219 8.316 24.9219L8.24706 24.784C8.17812 24.6461 8.04023 24.5083 7.90235 24.3014C7.76446 24.0946 7.55764 23.8188 7.35081 23.612C4.3863 20.027 4.11053 15.5458 6.45456 11.6161C7.90235 9.20311 10.3153 7.47956 13.2798 6.92802C16.2443 6.30754 19.3467 6.85908 22.0355 8.51369L34.514 15.9594C34.514 15.9594 34.514 15.9594 34.5829 15.9594L38.6505 18.4414C39.0642 18.6482 39.3399 19.0618 39.4089 19.4755C39.5468 19.8891 39.4778 20.3717 39.2021 20.7854C38.7195 21.6127 37.6853 21.8885 36.858 21.4059L28.6539 16.511C28.2403 16.2352 27.6887 16.3731 27.4819 16.7867C27.2061 17.2004 27.344 17.7519 27.7577 17.9588L35.9618 22.8536L38.5816 24.4393C38.7884 24.5772 38.8574 24.6461 38.9952 24.853C38.7195 24.7151 38.3748 24.6461 38.03 24.5772C37.9611 24.5772 37.9611 24.5772 37.8922 24.5772C37.8232 24.5772 37.7543 24.5772 37.6853 24.5772C37.0649 24.5772 36.4444 24.7151 35.9618 25.0598C35.9618 24.3014 35.686 23.612 35.2724 23.1294C35.2034 22.9915 35.0655 22.8536 34.9966 22.7847C34.3761 22.1642 33.4799 21.7506 32.5836 21.7506C31.4116 21.7506 30.3775 22.3021 29.757 23.1984L26.0341 20.9922C25.6205 20.7164 25.0689 20.8543 24.8621 21.268C24.5863 21.6816 24.7242 22.2332 25.1379 22.44L29.2055 24.853C29.2055 24.9219 29.2055 24.9909 29.2055 25.0598C28.585 24.7151 27.9645 24.5772 27.2751 24.5772C26.2409 24.6461 25.2758 25.1977 24.6553 26.0939L23.4143 25.3356C23.0007 25.0598 22.4491 25.1977 22.2423 25.6113C21.9665 26.025 22.1044 26.5765 22.5181 26.7833L24.0348 27.6796C24.0348 27.8175 24.0348 27.9554 24.0348 28.0932V31.8161L14.8655 26.3697ZM33.9625 62.4264C29.3433 62.4264 25.6894 59.8066 24.1727 55.4633C24.1037 55.1875 23.9659 54.9117 23.828 54.636L23.6211 54.2223C23.5522 54.0155 23.4833 53.9465 23.4833 53.8776L17.2095 42.9847C16.8648 42.3643 17.0716 41.537 17.6921 41.1233C18.6573 40.5718 19.9672 40.9165 20.5188 41.8817L24.0348 48.0175C24.2416 48.3622 24.6553 48.5001 25 48.4312C25.4136 48.3622 25.6205 47.9486 25.6205 47.6039V28.2311C25.6205 28.0243 25.6205 27.8175 25.6894 27.6796C25.8962 26.9902 26.5167 26.5076 27.2061 26.4386C27.6887 26.3697 28.1713 26.5765 28.516 26.9212C28.585 26.9902 28.6539 27.0591 28.7229 27.197C28.9297 27.4728 28.9986 27.8175 28.9986 28.1622V40.7786C28.9986 41.2612 29.4123 41.6748 29.8949 41.6748C30.3775 41.6748 30.7911 41.2612 30.7911 40.7786V25.2666C30.7911 25.1287 30.7911 24.9219 30.8601 24.7151C31.0669 24.0257 31.7563 23.5431 32.5147 23.5431C33.0662 23.5431 33.4799 23.8188 33.7556 24.0257L33.8935 24.1635C34.1003 24.4393 34.2382 24.853 34.2382 25.1977V40.7786C34.2382 41.2612 34.6519 41.6059 35.1345 41.6059C35.6171 41.6059 36.0307 41.1922 36.0307 40.7097V28.1622C36.0307 28.0243 36.0307 27.8864 36.0997 27.7485C36.3065 26.9902 36.9959 26.4386 37.7543 26.4386H37.8922C38.3058 26.4386 38.6505 26.6455 38.9952 26.9212C39.0642 26.9902 39.0642 26.9902 39.1331 27.1281C39.2021 27.197 39.271 27.3349 39.3399 27.4728C39.4089 27.6796 39.4778 27.9554 39.4778 28.1622V40.7786C39.4778 41.2612 39.8915 41.6748 40.3741 41.6748C40.8567 41.6748 41.2703 41.2612 41.2703 40.7786V31.2646C41.2703 30.9888 41.3393 30.6441 41.4772 30.4373C41.7529 29.8857 42.3045 29.61 42.9939 29.541C43.4765 29.541 43.8901 29.7479 44.2348 30.0236L44.3038 30.0926C44.5795 30.3683 44.7174 30.782 44.7174 31.1956V50.5684C44.7174 57.1179 39.8915 62.4264 33.9625 62.4264ZM62.6424 23.681C62.4356 23.8878 62.2977 24.1635 62.0908 24.3704C61.884 24.6461 61.6772 24.9909 61.6772 24.9909C61.4014 25.4045 60.4362 27.197 55.5413 36.0216C55.3345 36.3663 55.0588 36.5731 54.714 36.711C54.3693 36.78 54.0246 36.78 53.6799 36.5731C53.4041 36.4352 53.1284 36.1595 52.9215 35.8148C52.5079 35.1943 52.5079 34.367 52.9215 33.7465L56.3686 27.5417C56.5755 27.197 56.5065 26.7833 56.2308 26.5076C55.955 26.2318 55.5413 26.1629 55.1966 26.3697L46.5789 31.5404V31.2646C46.5789 30.4373 46.3031 29.61 45.7516 28.9895C45.6826 28.9206 45.6137 28.8516 45.5447 28.7827C45.4069 28.6448 45.269 28.5069 45.1311 28.438L47.613 26.9212C48.0267 26.6455 48.1645 26.1629 47.8888 25.7492C47.613 25.3356 47.1304 25.1977 46.7168 25.4734L42.7181 27.8175C42.2355 27.8864 41.7529 28.0243 41.3393 28.2311V28.1622C41.3393 27.8175 41.2703 27.4038 41.1324 27.1281C41.2014 26.8523 41.2703 26.6455 41.2703 26.3697C41.3393 25.956 41.2703 25.6113 41.2014 25.1977C41.1324 25.0598 41.1324 24.9219 41.0635 24.784L44.8553 22.5089C45.269 22.2332 45.4068 21.7506 45.1311 21.3369C44.8553 20.9233 44.3727 20.7854 43.9591 21.0612L40.0294 23.4052C39.8915 23.2673 39.7536 23.1984 39.6157 23.1294L39.5468 23.0605C40.0294 22.7847 40.512 22.3711 40.7877 21.8195C41.2703 20.9922 41.4082 20.096 41.2014 19.1997C41.1324 19.0618 41.1324 18.9239 41.0635 18.7861L42.2355 18.0966C42.6492 17.8209 42.7871 17.3383 42.5113 16.9246C42.2355 16.511 41.7529 16.3731 41.3393 16.6489L39.9604 17.3383C39.8225 17.2004 39.6847 17.1315 39.5468 17.0625L36.6512 15.339L47.8888 8.58263C50.7154 6.85908 54.0936 6.37648 57.127 7.13485C59.8158 7.82427 62.0908 9.47888 63.4697 11.754C65.8827 15.6837 65.5379 20.1649 62.6424 23.681Z" fill="#BF1B2C"/>
</svg>
