<svg width="70" height="70" viewBox="0 0 70 70" fill="none" xmlns="http://www.w3.org/2000/svg">
<path d="M11.8012 62.9114C10.8495 62.8964 9.92288 62.6033 9.13565 62.0682C8.34842 61.5331 7.73497 60.7793 7.37089 59.8998C7.00681 59.0203 6.90803 58.0535 7.08671 57.1185C7.26539 56.1836 7.71373 55.3213 8.37647 54.638L17.3041 45.7103C17.7839 45.2288 18.3598 44.8537 18.9943 44.6097C19.6288 44.3657 20.3076 44.2583 20.9865 44.2943L26.4712 38.8114C12.7212 18.5108 39.0566 -3.94565 56.9351 12.9329C73.8236 30.8324 51.3334 57.1404 31.0565 43.3968L25.5737 48.8815C25.6095 49.5603 25.502 50.2391 25.258 50.8736C25.014 51.5081 24.6391 52.084 24.1576 52.5639L15.2298 61.4917C14.7807 61.9435 14.2464 62.3016 13.6578 62.5453C13.0693 62.789 12.4382 62.9134 11.8012 62.9114ZM20.7254 46.1455C20.3335 46.1461 19.9456 46.2239 19.5838 46.3745C19.222 46.5251 18.8934 46.7455 18.6167 47.0231L9.68896 55.9509C9.14182 56.5143 8.83836 57.2705 8.84415 58.0559C8.84994 58.8413 9.16451 59.5928 9.7199 60.1482C10.2753 60.7036 11.0269 61.0181 11.8123 61.0238C12.5977 61.0296 13.3538 60.7261 13.9172 60.1789L22.8449 51.2512C23.1777 50.9207 23.4276 50.5161 23.5741 50.0705C23.7206 49.625 23.7597 49.151 23.688 48.6875C23.5771 47.9807 23.218 47.3366 22.675 46.8707C22.132 46.4049 21.4408 46.1477 20.7254 46.1455ZM23.0371 44.8691C23.8635 45.3242 24.5438 46.0044 24.9989 46.8309L29.5934 42.2346C28.8959 41.627 28.241 40.9721 27.6334 40.2746L23.0371 44.8691ZM31.5442 41.4423C35.0471 44.1763 39.4291 45.5347 43.8642 45.2615C48.2994 44.9883 52.4815 43.1024 55.6224 39.9592C71.9671 22.1928 47.6679 -2.09518 29.9086 14.2456C26.7658 17.3867 24.8801 21.5688 24.607 26.0038C24.3338 30.4389 25.692 34.8207 28.4256 38.3237C29.3386 39.4826 30.3853 40.5294 31.5442 41.4423ZM42.7656 42.4141C29.3621 42.5669 22.2777 25.7906 31.9343 16.2707C34.8091 13.4063 38.7027 11.7993 42.7609 11.8024C46.8191 11.8055 50.7104 13.4184 53.5808 16.2871C63.2357 25.8078 56.17 42.5669 42.7656 42.4141ZM29.3105 27.1024C29.3078 29.3157 29.8513 31.4954 30.8927 33.4484C31.9342 35.4014 33.4414 37.0672 35.2808 38.2982C37.1202 39.5292 39.235 40.2873 41.4375 40.5053C43.6401 40.7234 45.8624 40.3946 47.9074 39.5481C49.9525 38.7016 51.757 37.3636 53.1612 35.6527C54.5653 33.9418 55.5256 31.9109 55.9569 29.7401C56.3883 27.5692 56.2773 25.3254 55.6338 23.2077C54.9903 21.09 53.8343 19.1638 52.2682 17.5998C50.3782 15.7448 47.9844 14.4865 45.3847 13.9817C42.7851 13.4768 40.0943 13.7476 37.6474 14.7605C35.2005 15.7733 33.1055 17.4833 31.6231 19.6778C30.1408 21.8723 29.3365 24.4543 29.3105 27.1024ZM42.7456 34.0085C40.4329 34.0142 38.1566 33.4322 36.1303 32.3171C34.1041 31.202 32.3944 29.5904 31.1617 27.6335C31.0674 27.4861 31.017 27.315 31.0164 27.14C31.0157 26.965 31.0648 26.7935 31.158 26.6454C32.3892 24.6761 34.101 23.0522 36.1323 21.9263C38.1636 20.8004 40.4479 20.2093 42.7704 20.2088C45.0929 20.2083 47.3774 20.7982 49.4093 21.9232C51.4411 23.0482 53.1536 24.6713 54.3858 26.6399C54.4798 26.7897 54.5294 26.9631 54.5288 27.14C54.5281 27.3169 54.4772 27.4899 54.3821 27.639C53.1352 29.5941 51.415 31.2029 49.3809 32.3163C47.3468 33.4297 45.0645 34.0118 42.7456 34.0085ZM33.0582 27.1332C34.169 28.6697 35.6286 29.9207 37.3169 30.7834C39.0052 31.6461 40.8741 32.096 42.7701 32.096C44.6661 32.096 46.535 31.6461 48.2234 30.7834C49.9117 29.9207 51.3712 28.6697 52.4821 27.1332C51.3804 25.5837 49.924 24.3203 48.2345 23.4485C46.545 22.5767 44.6713 22.1218 42.7701 22.1218C40.8689 22.1218 38.9953 22.5767 37.3058 23.4485C35.6163 24.3203 34.1598 25.5837 33.0582 27.1332ZM42.7729 31.0259C41.7416 31.0143 40.7566 30.5964 40.0315 29.863C39.3064 29.1297 38.8997 28.14 38.8998 27.1087C38.8998 26.0773 39.3065 25.0876 40.0316 24.3543C40.7567 23.621 41.7418 23.2031 42.773 23.1915C43.8042 23.2031 44.7893 23.621 45.5144 24.3544C46.2395 25.0877 46.6461 26.0775 46.6461 27.1088C46.6461 28.1401 46.2394 29.1298 45.5143 29.8631C44.7892 30.5965 43.8041 31.0143 42.7729 31.0259ZM42.7729 25.0481C42.2319 25.0565 41.716 25.2774 41.3365 25.6629C40.9569 26.0484 40.7442 26.5677 40.7442 27.1088C40.7442 27.6498 40.957 28.1691 41.3365 28.5546C41.7161 28.9401 42.232 29.1609 42.773 29.1693C43.3139 29.1609 43.8298 28.94 44.2094 28.5545C44.5889 28.169 44.8017 27.6497 44.8017 27.1087C44.8016 26.5677 44.5889 26.0483 44.2093 25.6628C43.8298 25.2773 43.3138 25.0565 42.7729 25.0481Z" fill="#BF1B2C"/>
</svg>
