<svg id="Layer_1" style="enable-background:new 0 0 1366 248.02;" version="1.1" viewBox="0 0 1366 248.02" x="0px" xml:space="preserve" xmlns="http://www.w3.org/2000/svg" xmlns:xlink="http://www.w3.org/1999/xlink" y="0px">
<g>
<path d="M1299.48,173.75h5.19c1.17,0,2.05-0.28,2.65-0.82c0.61-0.55,0.91-1.34,0.91-2.35c0-1.04-0.26-1.83-0.79-2.37
		c-0.53-0.53-1.39-0.8-2.56-0.8h-5.39V173.75z M1297.97,182.27v-16.21h7.23c1.45,0,2.58,0.39,3.39,1.17
		c0.81,0.77,1.21,1.85,1.21,3.2c0,2.02-0.91,3.33-2.72,3.9v0.07c0.82,0.28,1.39,0.74,1.73,1.4c0.34,0.66,0.54,1.63,0.6,2.91
		c0.09,2.06,0.33,3.21,0.7,3.47v0.09h-1.63c-0.18-0.12-0.31-0.41-0.37-0.86c-0.07-0.45-0.14-1.37-0.21-2.77
		c-0.06-1.37-0.36-2.32-0.88-2.83c-0.52-0.51-1.38-0.77-2.6-0.77h-4.94v7.23H1297.97z"></path>
<path d="M1303.6,158.55c-8.62,0-15.62,7.01-15.62,15.62c0,8.62,7,15.62,15.62,15.62s15.62-7.01,15.62-15.62
		C1319.22,165.56,1312.21,158.55,1303.6,158.55 M1303.6,190.81c-9.18,0-16.64-7.47-16.64-16.65c0-9.17,7.46-16.64,16.64-16.64
		s16.65,7.47,16.65,16.64C1320.25,183.34,1312.78,190.81,1303.6,190.81"></path>
<path d="M161.85,113.37H96.82V93h64.52c6.96,0,11.55,4.25,11.55,10.19C172.89,109.13,168.3,113.37,161.85,113.37 M200.58,122.43
		c8-6.43,12.38-16.16,12.38-24.34c0-19.7-15.28-34.64-41.09-34.64H57.76V93l39.06,47.89h72.17c7.13,0,11.89,4.07,11.89,10.19
		c0,6.11-4.76,10.19-11.38,10.19H96.82v-20.37H57.76v49.93h118.35c30.23,0,44.83-15.63,44.83-37.03
		C220.94,141.15,213.97,128.42,200.58,122.43"></path>
</g>
<polygon points="308.74,96.74 366.98,96.74 366.98,190.81 407.06,190.81 407.06,96.74 465.29,96.74 465.29,63.45 308.74,63.45 "></polygon>
<rect height="127.36" width="40.07" x="243.71" y="63.44"></rect>
<polygon points="1122.12,63.45 1122.12,96.74 1180.37,96.74 1180.37,190.81 1220.44,190.81 1220.44,96.74 1278.68,96.74 
	1278.68,63.45 "></polygon>
<g>
<path d="M585.7,111.17l-34.64-1.53c-19.36-0.85-25.98-3.57-25.98-9c0-5.43,7.3-7.82,28.7-7.82h19.53
		c20.21,0,31.07,3.22,33.79,11.55h42.12c-3.06-29.21-30.57-43.3-77.27-43.3h-16.29c-49.25,0-72.01,14.95-72.01,40.93
		s20.72,38.21,61.13,39.9l37.53,1.53c20.21,0.85,27,3.39,27,9.68c0,5.77-6.8,8.32-29.21,8.32H558.2c-21.73,0-31.93-3.57-34.81-12.74
		h-42.11c2.88,30.73,27.33,44.48,78.44,44.48h19.36c51.44,0,71.31-14.78,71.31-41.26C650.39,122.21,625.26,112.87,585.7,111.17"></path>
</g>
<polygon points="1057.08,108.28 969.46,108.28 969.46,63.45 929.9,63.45 929.9,190.81 969.46,190.81 969.46,140.88 1057.08,140.88 
	1057.08,190.81 1096.64,190.81 1096.64,63.45 1057.08,63.45 "></polygon>
<rect height="127.36" width="40.07" x="674.85" y="63.44"></rect>
<g>
<path d="M738.86,127.13c0,32.61,23.94,63.68,69.96,63.68h89.48V127.3h-39.06v30.23h-45.51c-21.39,0-34.47-13.24-34.47-30.39
		c0-17.14,13.08-30.39,34.47-30.39h84.57V63.46h-89.48C762.8,63.45,738.86,94.7,738.86,127.13"></path>
</g>
</svg>