<svg width="70" height="70" viewBox="0 0 70 70" fill="none" xmlns="http://www.w3.org/2000/svg">
<path fill-rule="evenodd" clip-rule="evenodd" d="M29.6563 16.3563C31.7213 16.3563 33.3725 14.697 33.3725 12.6782C33.3725 10.6593 31.7213 9 29.6563 9C27.5914 9 25.9402 10.6593 25.9402 12.6782C25.9402 14.697 27.5914 16.3563 29.6563 16.3563ZM35.3725 12.6782C35.3725 14.6761 34.3338 16.4329 32.7635 17.445C34.6632 18.1277 36.2853 19.3517 37.4237 20.9203C37.6623 20.8326 37.9045 20.7518 38.1499 20.6781C36.3754 19.3985 35.2215 17.3213 35.2215 14.9765C35.2215 11.0879 38.3949 7.93555 42.3095 7.93555C46.2241 7.93555 49.3976 11.0879 49.3976 14.9765C49.3976 17.4544 48.109 19.6334 46.1611 20.8882C46.369 20.9629 46.5741 21.0428 46.7765 21.1277C48.0075 19.5511 49.7407 18.3533 51.7498 17.7502C50.3192 16.7181 49.3891 15.0434 49.3891 13.1528C49.3891 10.0168 51.9483 7.47461 55.1052 7.47461C58.2622 7.47461 60.8214 10.0168 60.8214 13.1528C60.8214 15.1507 59.7826 16.9076 58.2123 17.9196C61.9632 19.2676 64.6319 22.7261 64.6319 26.78V28.944V30.944H54.0845C54.1097 31.2513 54.1226 31.562 54.1226 31.8755V35.0388V37.0388H29.5507V35.0388V31.8755C29.5507 31.3996 29.5804 30.9304 29.638 30.4694H19.3671V28.4694V26.3054C19.3671 22.0686 22.282 18.482 26.3009 17.2756C24.8703 16.2436 23.9402 14.5688 23.9402 12.6782C23.9402 9.5422 26.4994 7 29.6563 7C32.8133 7 35.3725 9.5422 35.3725 12.6782ZM29.2751 18.8418C31.875 18.8418 34.1336 20.009 35.5638 21.7833C32.957 23.2647 30.9728 25.6414 30.0762 28.4694H21.3671V28.4594V28.4478V28.4361V28.4244V28.4127V28.4011V28.3894V28.3777V28.366V28.3544V28.3427V28.331V28.3194V28.3077V28.296V28.2844V28.2727V28.261V28.2494V28.2377V28.2261V28.2144V28.2028V28.1911V28.1795V28.1679V28.1563V28.1446V28.133V28.1214V28.1098V28.0982V28.0867V28.0751V28.0635V28.052V28.0404V28.0289V28.0174V28.0058V27.9943V27.9828V27.9713V27.9599V27.9484V27.9369V27.9255V27.9141V27.9027V27.8913V27.8799V27.8685V27.8571V27.8458V27.8344V27.8231V27.8118V27.8005V27.7893V27.778V27.7668V27.7556V27.7443V27.7332V27.722V27.7108V27.6997V27.6886V27.6775V27.6664V27.6554V27.6443V27.6333V27.6223V27.6114V27.6004V27.5895V27.5786V27.5677V27.5568V27.546V27.5352V27.5244V27.5136V27.5029V27.4921V27.4814V27.4708V27.4601V27.4495V27.4389V27.4283V27.4178V27.4073V27.3968V27.3864V27.3759V27.3655V27.3552V27.3448V27.3345V27.3242V27.314V27.3037V27.2936V27.2834V27.2733V27.2632V27.2531V27.2431V27.2331V27.2231V27.2132V27.2033V27.1934V27.1836V27.1738V27.164V27.1543V27.1446V27.1349V27.1253V27.1157V27.1062V27.0967V27.0872V27.0778V27.0684V27.059V27.0497V27.0404V27.0312V27.022V27.0128V27.0037V26.9946V26.9856V26.9766V26.9676V26.9587V26.9498V26.941V26.9322V26.9235V26.9148V26.9061V26.8975V26.8889V26.8804V26.8719V26.8635V26.8551V26.8468V26.8385V26.8302V26.822V26.8139V26.8058V26.7977V26.7897V26.7818V26.7739V26.766V26.7582V26.7504V26.7427V26.7351V26.7275V26.7199V26.7124V26.7049V26.6975V26.6902V26.6829V26.6757V26.6685V26.6613V26.6542V26.6472V26.6402V26.6333V26.6265V26.6197V26.6129V26.6062V26.5996V26.593V26.5865V26.58V26.5736V26.5673V26.561V26.5548V26.5486V26.5425V26.5364V26.5304V26.5245V26.5186V26.5128V26.5071V26.5014V26.4958V26.4902V26.4847V26.4793V26.4739V26.4686V26.4634V26.4582V26.4531V26.448V26.4431V26.4381V26.4333V26.4285V26.4238V26.4191V26.4146V26.41V26.4056V26.4012V26.3969V26.3927V26.3885V26.3844V26.3804V26.3764V26.3725V26.3687V26.3649V26.3613V26.3576V26.3541V26.3507V26.3473V26.344V26.3407V26.3375V26.3344V26.3314V26.3285V26.3256V26.3228V26.3201V26.3175V26.3149V26.3124V26.31V26.3077V26.3054C21.3671 22.2689 24.8201 18.8418 29.2751 18.8418ZM38.9592 24.2955C38.9273 24.1547 38.8922 24.015 38.8538 23.8766L38.9592 24.2955ZM58.8214 13.1528C58.8214 15.1716 57.1702 16.8309 55.1052 16.8309C53.0403 16.8309 51.3891 15.1716 51.3891 13.1528C51.3891 11.1339 53.0403 9.47461 55.1052 9.47461C57.1702 9.47461 58.8214 11.1339 58.8214 13.1528ZM53.7361 28.944H62.6319V28.933V28.9211V28.9091V28.8972V28.8853V28.8734V28.8614V28.8495V28.8376V28.8256V28.8137V28.8018V28.7899V28.7779V28.766V28.7541V28.7422V28.7303V28.7184V28.7065V28.6946V28.6827V28.6708V28.6589V28.647V28.6352V28.6233V28.6114V28.5996V28.5877V28.5759V28.5641V28.5523V28.5405V28.5287V28.5169V28.5051V28.4933V28.4816V28.4698V28.4581V28.4464V28.4346V28.4229V28.4112V28.3996V28.3879V28.3763V28.3646V28.353V28.3414V28.3298V28.3182V28.3067V28.2951V28.2836V28.2721V28.2606V28.2491V28.2377V28.2263V28.2148V28.2034V28.1921V28.1807V28.1694V28.158V28.1467V28.1355V28.1242V28.113V28.1018V28.0906V28.0794V28.0683V28.0571V28.046V28.035V28.0239V28.0129V28.0019V27.9909V27.98V27.9691V27.9582V27.9473V27.9365V27.9257V27.9149V27.9041V27.8934V27.8827V27.872V27.8614V27.8508V27.8402V27.8297V27.8191V27.8087V27.7982V27.7878V27.7774V27.767V27.7567V27.7464V27.7362V27.726V27.7158V27.7056V27.6955V27.6854V27.6754V27.6654V27.6554V27.6455V27.6356V27.6257V27.6159V27.6061V27.5964V27.5867V27.577V27.5674V27.5578V27.5482V27.5387V27.5293V27.5199V27.5105V27.5012V27.4919V27.4826V27.4734V27.4642V27.4551V27.446V27.437V27.428V27.4191V27.4102V27.4013V27.3925V27.3838V27.3751V27.3664V27.3578V27.3492V27.3407V27.3322V27.3238V27.3155V27.3071V27.2989V27.2907V27.2825V27.2744V27.2663V27.2583V27.2503V27.2424V27.2346V27.2268V27.219V27.2113V27.2037V27.1961V27.1886V27.1811V27.1737V27.1663V27.159V27.1518V27.1446V27.1374V27.1304V27.1233V27.1164V27.1095V27.1026V27.0959V27.0891V27.0825V27.0759V27.0693V27.0629V27.0564V27.0501V27.0438V27.0376V27.0314V27.0253V27.0193V27.0133V27.0074V27.0015V26.9957V26.99V26.9844V26.9788V26.9733V26.9678V26.9624V26.9571V26.9519V26.9467V26.9416V26.9365V26.9316V26.9267V26.9218V26.9171V26.9124V26.9078V26.9032V26.8987V26.8943V26.89V26.8857V26.8815V26.8774V26.8734V26.8694V26.8655V26.8617V26.858V26.8543V26.8507V26.8472V26.8438V26.8404V26.8371V26.8339V26.8308V26.8277V26.8248V26.8219V26.8191V26.8163V26.8137V26.8111V26.8086V26.8062V26.8039V26.8016V26.7995V26.7974V26.7954V26.7935V26.7916V26.7899V26.7882V26.7866V26.7851V26.7837V26.7824V26.7812V26.78C62.6319 22.7435 59.1788 19.3164 54.7239 19.3164C52.2163 19.3164 50.0262 20.4022 48.5906 22.0713C51.1001 23.6516 52.967 26.0874 53.7361 28.944ZM42.3095 20.0174C45.1322 20.0174 47.3976 17.7479 47.3976 14.9765C47.3976 12.205 45.1322 9.93555 42.3095 9.93555C39.4869 9.93555 37.2215 12.205 37.2215 14.9765C37.2215 17.7479 39.4869 20.0174 42.3095 20.0174ZM31.5507 35.0339V35.0388H52.1226V35.029V35.0145V35V34.9855V34.971V34.9565V34.9419V34.9274V34.9128V34.8982V34.8836V34.869V34.8544V34.8397V34.8251V34.8104V34.7958V34.7811V34.7664V34.7517V34.737V34.7223V34.7075V34.6928V34.6781V34.6633V34.6486V34.6338V34.6191V34.6043V34.5895V34.5747V34.56V34.5452V34.5304V34.5156V34.5008V34.486V34.4712V34.4564V34.4417V34.4269V34.4121V34.3973V34.3825V34.3677V34.3529V34.3382V34.3234V34.3086V34.2938V34.2791V34.2643V34.2496V34.2348V34.2201V34.2053V34.1906V34.1759V34.1612V34.1465V34.1318V34.1171V34.1024V34.0877V34.0731V34.0584V34.0438V34.0292V34.0146V34V33.9854V33.9708V33.9563V33.9418V33.9272V33.9127V33.8982V33.8838V33.8693V33.8548V33.8404V33.826V33.8116V33.7973V33.7829V33.7686V33.7543V33.74V33.7257V33.7115V33.6972V33.683V33.6688V33.6547V33.6405V33.6264V33.6124V33.5983V33.5843V33.5702V33.5563V33.5423V33.5284V33.5145V33.5006V33.4867V33.4729V33.4591V33.4454V33.4316V33.4179V33.4043V33.3906V33.377V33.3635V33.3499V33.3364V33.3229V33.3095V33.2961V33.2827V33.2694V33.2561V33.2428V33.2296V33.2164V33.2032V33.1901V33.177V33.164V33.151V33.138V33.1251V33.1122V33.0994V33.0866V33.0738V33.0611V33.0485V33.0358V33.0232V33.0107V32.9982V32.9858V32.9733V32.961V32.9487V32.9364V32.9242V32.912V32.8999V32.8878V32.8757V32.8638V32.8518V32.8399V32.8281V32.8163V32.8046V32.7929V32.7813V32.7697V32.7582V32.7467V32.7353V32.7239V32.7126V32.7014V32.6902V32.679V32.6679V32.6569V32.6459V32.635V32.6242V32.6134V32.6026V32.5919V32.5813V32.5708V32.5603V32.5498V32.5395V32.5291V32.5189V32.5087V32.4986V32.4885V32.4785V32.4686V32.4587V32.4489V32.4391V32.4295V32.4199V32.4103V32.4009V32.3915V32.3821V32.3728V32.3636V32.3545V32.3455V32.3365V32.3276V32.3187V32.3099V32.3012V32.2926V32.284V32.2756V32.2672V32.2588V32.2506V32.2424V32.2343V32.2262V32.2183V32.2104V32.2026V32.1949V32.1872V32.1796V32.1722V32.1647V32.1574V32.1502V32.143V32.1359V32.1289V32.122V32.1151V32.1084V32.1017V32.0951V32.0886V32.0822V32.0758V32.0696V32.0634V32.0573V32.0513V32.0454V32.0396V32.0339V32.0283V32.0227V32.0172V32.0119V32.0066V32.0014V31.9963V31.9913V31.9864V31.9815V31.9768V31.9722V31.9676V31.9632V31.9588V31.9545V31.9504V31.9463V31.9423V31.9385V31.9347V31.931V31.9274V31.9239V31.9205V31.9172V31.914V31.911V31.908V31.9051V31.9023V31.8996V31.897V31.8946V31.8922V31.8899V31.8877V31.8857V31.8837V31.8819V31.8801V31.8785V31.8769V31.8755C52.1226 26.5846 47.6049 22.1406 41.8367 22.1406C36.0684 22.1406 31.5507 26.5846 31.5507 31.8755V31.8783V31.8812V31.8842V31.8873V31.8904V31.8937V31.8971V31.9006V31.9041V31.9078V31.9115V31.9153V31.9193V31.9233V31.9274V31.9316V31.9359V31.9403V31.9448V31.9493V31.954V31.9587V31.9635V31.9684V31.9734V31.9785V31.9837V31.989V31.9943V31.9997V32.0052V32.0108V32.0165V32.0223V32.0281V32.0341V32.0401V32.0462V32.0524V32.0586V32.065V32.0714V32.0779V32.0844V32.0911V32.0978V32.1047V32.1116V32.1185V32.1256V32.1327V32.1399V32.1472V32.1545V32.162V32.1695V32.177V32.1847V32.1924V32.2002V32.2081V32.216V32.224V32.2321V32.2403V32.2485V32.2568V32.2652V32.2736V32.2821V32.2907V32.2993V32.3081V32.3168V32.3257V32.3346V32.3436V32.3526V32.3617V32.3709V32.3802V32.3895V32.3988V32.4083V32.4178V32.4273V32.437V32.4466V32.4564V32.4662V32.4761V32.486V32.496V32.506V32.5161V32.5263V32.5365V32.5468V32.5571V32.5675V32.578V32.5885V32.5991V32.6097V32.6204V32.6311V32.6419V32.6527V32.6636V32.6746V32.6856V32.6966V32.7077V32.7189V32.7301V32.7414V32.7527V32.764V32.7754V32.7869V32.7984V32.81V32.8216V32.8332V32.8449V32.8567V32.8685V32.8803V32.8922V32.9041V32.9161V32.9281V32.9402V32.9523V32.9644V32.9766V32.9888V33.0011V33.0134V33.0258V33.0382V33.0506V33.0631V33.0756V33.0882V33.1008V33.1134V33.1261V33.1388V33.1516V33.1644V33.1772V33.19V33.2029V33.2159V33.2288V33.2418V33.2549V33.2679V33.281V33.2942V33.3073V33.3205V33.3338V33.347V33.3603V33.3737V33.387V33.4004V33.4138V33.4272V33.4407V33.4542V33.4677V33.4813V33.4949V33.5085V33.5221V33.5358V33.5495V33.5632V33.5769V33.5907V33.6044V33.6182V33.6321V33.6459V33.6598V33.6737V33.6876V33.7015V33.7155V33.7295V33.7435V33.7575V33.7715V33.7856V33.7996V33.8137V33.8278V33.842V33.8561V33.8703V33.8844V33.8986V33.9128V33.927V33.9413V33.9555V33.9698V33.984V33.9983V34.0126V34.0269V34.0412V34.0556V34.0699V34.0843V34.0986V34.113V34.1274V34.1418V34.1562V34.1706V34.185V34.1994V34.2138V34.2282V34.2427V34.2571V34.2716V34.286V34.3005V34.3149V34.3294V34.3439V34.3583V34.3728V34.3873V34.4017V34.4162V34.4307V34.4452V34.4596V34.4741V34.4886V34.5031V34.5175V34.532V34.5465V34.5609V34.5754V34.5899V34.6043V34.6188V34.6332V34.6476V34.6621V34.6765V34.6909V34.7053V34.7197V34.7341V34.7485V34.7629V34.7773V34.7916V34.806V34.8203V34.8346V34.849V34.8633V34.8776V34.8918V34.9061V34.9204V34.9346V34.9489V34.9631V34.9773V34.9915V35.0056V35.0198V35.0339ZM6 57.1047V40.6328H12.3044V57.1047H6ZM4 39.6328C4 39.0805 4.44772 38.6328 5 38.6328H13.3044C13.8567 38.6328 14.3044 39.0805 14.3044 39.6328V40.6915H19.1437C20.319 39.933 22.9637 38.8563 26.6421 38.8563C30.6313 38.8563 33.0583 40.1269 33.886 40.9776C34.203 41.3024 34.7265 41.7923 35.2499 42.1934C35.5126 42.3947 35.7547 42.5577 35.9566 42.6661C36.1047 42.7456 36.1856 42.7707 36.2107 42.7785C36.2165 42.7803 36.2193 42.7812 36.2193 42.7816L47.8657 42.7818C47.9922 42.7818 48.1174 42.807 48.2339 42.856C49.0821 43.2125 50.4678 44.4282 50.4678 46.6329C50.4678 46.7089 50.4668 46.7838 50.4647 46.8576L60.7467 39.044C61.6295 38.3864 63.1857 38.5546 64.7225 40.0812C66.4659 41.813 66.0775 43.8212 65.5759 44.6934C65.5225 44.7864 65.4534 44.8696 65.3717 44.9395L48.482 59.3743L48.4696 59.3848C46.8794 60.6971 42.3439 62.8326 36.0675 61.9344C30.0414 61.072 22.4614 58.2508 19.2451 56.8791H14.3044V58.1047C14.3044 58.657 13.8567 59.1047 13.3044 59.1047H5C4.44772 59.1047 4 58.657 4 58.1047V39.6328ZM14.3044 55.0015V42.5691H19.4405C19.6476 42.5691 19.849 42.5015 20.0137 42.3767C20.6351 41.9058 22.9969 40.7339 26.6421 40.7339C30.3002 40.7339 32.1645 41.9098 32.527 42.2825L32.5281 42.2837C32.891 42.6556 33.4826 43.2105 34.0954 43.6801C34.401 43.9143 34.7325 44.1432 35.0578 44.3178C35.3539 44.4768 35.7669 44.6594 36.2023 44.6594H47.6337C47.9672 44.874 48.5777 45.4787 48.5777 46.6329C48.5777 47.713 48.3135 48.2909 48.1557 48.5431H34.8639C34.3419 48.5431 33.9188 48.9634 33.9188 49.4819C33.9188 50.0003 34.3419 50.4207 34.8639 50.4207H48.5667C48.7533 50.4207 48.9357 50.3658 49.091 50.263C49.1384 50.2316 49.1859 50.1964 49.2333 50.1573L61.838 40.5787C61.8397 40.5785 61.8428 40.5779 61.8471 40.5771C61.9262 40.5618 62.4344 40.4636 63.3859 41.4088C64.2897 42.3066 64.1581 43.2339 63.9927 43.6411L47.2559 57.9454C46.0768 58.914 42.0841 60.8984 36.337 60.076C30.4464 59.233 22.8734 56.3984 19.8171 55.0793C19.6983 55.028 19.5701 55.0015 19.4405 55.0015H14.3044ZM9.85557 54.3581C9.85557 54.7245 9.55291 55.0442 9.15141 55.0442C8.74992 55.0442 8.44725 54.7245 8.44725 54.3581C8.44725 53.9916 8.74992 53.6719 9.15141 53.6719C9.55291 53.6719 9.85557 53.9916 9.85557 54.3581ZM11.8556 54.3581C11.8556 55.8416 10.6449 57.0442 9.15141 57.0442C7.65794 57.0442 6.44725 55.8416 6.44725 54.3581C6.44725 52.8745 7.65794 51.6719 9.15141 51.6719C10.6449 51.6719 11.8556 52.8745 11.8556 54.3581Z" fill="#BF1B2C"/>
</svg>
