<?xml version="1.0" encoding="UTF-8"?>
<svg xmlns="http://www.w3.org/2000/svg" width="46" height="26" viewBox="0 0 46 26" fill="none">
  <mask id="mask0_1_22" style="mask-type:luminance" maskUnits="userSpaceOnUse" x="0" y="0" width="46" height="26">
    <path d="M46 0H0V26H46V0Z" fill="white"></path>
  </mask>
  <g mask="url(#mask0_1_22)">
    <path d="M46 0H0V26H46V0Z" fill="white"></path>
    <mask id="mask1_1_22" style="mask-type:luminance" maskUnits="userSpaceOnUse" x="0" y="0" width="46" height="26">
      <path d="M46 0H0V26H46V0Z" fill="white"></path>
    </mask>
    <g mask="url(#mask1_1_22)">
      <mask id="mask2_1_22" style="mask-type:luminance" maskUnits="userSpaceOnUse" x="0" y="0" width="46" height="26">
        <path d="M46 0H0V26H46V0Z" fill="white"></path>
      </mask>
      <g mask="url(#mask2_1_22)">
        <path d="M10.9658 5.86973C10.9434 6.34133 10.8931 6.81129 10.8151 7.27729L10.7328 7.72877C11.3416 7.64017 11.9607 7.64017 12.5695 7.72877L12.4873 7.27729C12.4092 6.81129 12.3589 6.34133 12.3365 5.86973C12.9757 5.89963 13.6122 5.97061 14.2418 6.0822C14.2418 5.79006 14.2418 5.49793 14.2418 5.20579C14.2418 4.91366 14.2418 4.60824 14.2418 4.31611C13.6122 4.42769 12.9757 4.49867 12.3365 4.52857C12.3403 3.90066 12.3999 3.27424 12.5147 2.65625C12.2089 2.67647 11.9021 2.67647 11.5963 2.65625C11.2906 2.67647 10.9837 2.67647 10.678 2.65625C10.8228 3.27239 10.919 3.8983 10.9658 4.52857C10.3221 4.49864 9.68102 4.42766 9.04688 4.31611C9.06773 4.61232 9.06773 4.90957 9.04688 5.20579C9.06732 5.49759 9.06732 5.7904 9.04688 6.0822C9.68102 5.97064 10.3221 5.89967 10.9658 5.86973Z" fill="#D50037"></path>
        <path d="M33.7188 5.86973C33.6964 6.34133 33.646 6.81129 33.568 7.27729C33.568 7.42336 33.568 7.58271 33.568 7.72877C33.8676 7.68638 34.1699 7.66419 34.4726 7.66238C34.78 7.66417 35.0868 7.68635 35.391 7.72877L35.3087 7.27729C35.2353 6.81103 35.1895 6.34107 35.1717 5.86973C35.8154 5.90042 36.4564 5.97139 37.0906 6.0822C37.0428 5.7922 37.0153 5.49939 37.0084 5.20579C36.9875 4.90958 36.9875 4.61232 37.0084 4.31611C36.3741 4.42691 35.7331 4.49788 35.0894 4.52857C35.125 3.90022 35.2029 3.27479 35.3224 2.65625C35.0167 2.67647 34.7099 2.67647 34.4041 2.65625C34.1029 2.67644 33.8006 2.67644 33.4994 2.65625C33.6138 3.2707 33.6871 3.89168 33.7188 4.51529C33.075 4.4846 32.4341 4.41364 31.7998 4.30283C31.8207 4.59904 31.8207 4.8963 31.7998 5.19251C31.8203 5.48431 31.8203 5.77712 31.7998 6.06892C32.4341 5.95811 33.075 5.88714 33.7188 5.85645" fill="#D50037"></path>
        <path d="M12.3357 20.1305C12.3529 19.6591 12.3986 19.1891 12.4727 18.723L12.555 18.2715C12.2492 18.2917 11.9424 18.2917 11.6366 18.2715C11.3309 18.2917 11.024 18.2917 10.7183 18.2715L10.8005 18.723C10.8839 19.1886 10.9388 19.6586 10.965 20.1305C10.3023 20.1099 9.64237 20.0389 8.99121 19.9181C9.06433 20.5091 9.06433 21.1064 8.99121 21.6974C9.6428 21.5746 10.3022 21.4948 10.965 21.4584C10.9372 22.083 10.8593 22.7046 10.732 23.3174C11.0335 23.3174 11.3351 23.3174 11.6503 23.3174C11.9656 23.3174 12.2671 23.3174 12.5687 23.3174C12.4347 22.7056 12.3567 22.0835 12.3357 21.4584C12.9752 21.4927 13.6117 21.5681 14.2409 21.6841C14.2409 21.392 14.2409 21.0999 14.2409 20.7945C14.2409 20.4891 14.2409 20.1969 14.2409 19.9048C13.6128 20.0273 12.9758 20.1028 12.3357 20.1305Z" fill="#D50037"></path>
        <path d="M35.1031 20.1308C35.1203 19.6594 35.1661 19.1894 35.2402 18.7232L35.3225 18.2717C35.0167 18.2919 34.7099 18.2919 34.4041 18.2717C34.1029 18.2919 33.8006 18.2919 33.4994 18.2717C33.4994 18.4178 33.4994 18.5639 33.4994 18.7232C33.5782 19.1891 33.6285 19.6591 33.6502 20.1308C33.0289 20.1034 32.4105 20.0323 31.7998 19.9183C31.8729 20.5093 31.8729 21.1067 31.7998 21.6977C32.4338 21.5824 33.0748 21.507 33.7188 21.4719C33.6887 22.0957 33.6154 22.7167 33.4994 23.331C33.7873 23.331 34.1025 23.331 34.4041 23.331C34.7056 23.331 35.0209 23.331 35.3225 23.331C35.2065 22.7167 35.1332 22.0957 35.1031 21.4719C35.7471 21.507 36.3881 21.5824 37.0221 21.6977C36.9261 21.1085 36.9215 20.5088 37.0084 19.9183C36.3755 20.04 35.734 20.1155 35.0894 20.144" fill="#D50037"></path>
        <path d="M25.7003 0H20.2998V26H25.7003V0Z" fill="#D50037"></path>
        <path d="M46 10.3711H0V15.6162H46V10.3711Z" fill="#D50037"></path>
      </g>
    </g>
  </g>
</svg>
