<?xml version="1.0" encoding="UTF-8"?>
<svg xmlns="http://www.w3.org/2000/svg" width="46" height="26" viewBox="0 0 46 26" fill="none">
  <mask id="mask0_1_90" style="mask-type:luminance" maskUnits="userSpaceOnUse" x="0" y="0" width="46" height="26">
    <path d="M46 0H0V26H46V0Z" fill="white"></path>
  </mask>
  <g mask="url(#mask0_1_90)">
    <mask id="mask1_1_90" style="mask-type:luminance" maskUnits="userSpaceOnUse" x="0" y="0" width="46" height="26">
      <path d="M46 0H0V26H46V0Z" fill="white"></path>
    </mask>
    <g mask="url(#mask1_1_90)">
      <path d="M46 0H0V26H46V0Z" fill="#4EAEC4"></path>
      <mask id="mask2_1_90" style="mask-type:luminance" maskUnits="userSpaceOnUse" x="0" y="0" width="46" height="26">
        <path d="M46 0H0V26H46V0Z" fill="white"></path>
      </mask>
      <g mask="url(#mask2_1_90)">
        <path d="M3.01559 18.3386C3.01739 18.2311 3.0412 18.1249 3.0858 18.0264C3.1303 17.9279 3.1946 17.839 3.275 17.7649C3.3554 17.6907 3.4502 17.6328 3.5539 17.5945C3.6577 17.5562 3.7682 17.5383 3.8792 17.5418C3.9788 17.5304 4.0798 17.5398 4.1753 17.5695C4.2708 17.5992 4.3587 17.6485 4.4328 17.714C4.5069 17.7795 4.5656 17.8597 4.6049 17.9492C4.6442 18.0386 4.6631 18.1352 4.6604 18.2323C4.6592 18.4302 4.6124 18.6253 4.5234 18.8033L3.3446 21.1537C3.3185 21.2539 3.3185 21.3589 3.3446 21.4591C3.3549 21.5648 3.40559 21.6629 3.48669 21.7341C3.56789 21.8054 3.6737 21.8447 3.7832 21.8442C3.8936 21.8442 3.9996 21.8027 4.0789 21.7284C4.1582 21.654 4.2046 21.5527 4.2081 21.4458C4.2081 21.1935 4.071 21.0873 3.9203 21.0873C3.7695 21.0873 3.6736 21.0873 3.6736 21.2732C3.6736 21.4591 3.6736 21.3927 3.7832 21.3927C3.8929 21.3927 3.8792 21.1935 3.8792 21.1935C3.8988 21.1964 3.9176 21.2034 3.9342 21.2141C3.9508 21.2248 3.9649 21.2388 3.9753 21.2552C3.9857 21.2716 3.9923 21.2901 3.9947 21.3092C3.997 21.3284 3.995 21.3478 3.9888 21.3662C3.9888 21.3662 4.0985 21.3662 4.1259 21.4591C4.0899 21.4965 4.0413 21.5201 3.9888 21.5255C3.9888 21.645 3.98879 21.6981 3.86539 21.7247C3.87809 21.6858 3.87809 21.6441 3.86539 21.6052C3.81809 21.6198 3.7678 21.6234 3.7187 21.6157C3.6697 21.6079 3.6232 21.589 3.5831 21.5605C3.543 21.532 3.5104 21.4948 3.488 21.4518C3.4656 21.4087 3.454 21.3612 3.4542 21.313C3.4498 21.246 3.46189 21.1788 3.48949 21.1172C3.51709 21.0555 3.5593 21.001 3.6128 20.9583C3.6664 20.9155 3.72959 20.8856 3.79729 20.8711C3.86509 20.8566 3.93539 20.8579 4.00249 20.8748C3.96339 20.8531 3.9304 20.8223 3.9065 20.7852C3.8826 20.7482 3.86849 20.706 3.86539 20.6624H4.00249C3.94209 20.586 3.9085 20.493 3.9066 20.3968C3.9066 20.3968 4.0299 20.4765 4.1122 20.3968C4.0847 20.3225 4.075 20.2432 4.084 20.1648C4.093 20.0863 4.1203 20.0109 4.164 19.9443C4.2076 19.8777 4.2664 19.8216 4.3358 19.7804C4.4052 19.7391 4.4834 19.7138 4.5645 19.7063C4.4201 19.8537 4.3371 20.0476 4.3315 20.2507C4.3315 20.8483 4.5097 20.9545 4.5097 21.3662C4.5075 21.4651 4.4817 21.5622 4.4341 21.6498C4.3865 21.7374 4.3185 21.813 4.2355 21.8707C4.337 21.8968 4.4248 21.9583 4.4823 22.0434C4.1855 22.117 3.87439 22.117 3.57759 22.0434C3.47959 22.0291 3.386 21.9944 3.3031 21.9417C3.2203 21.8889 3.1503 21.8194 3.0979 21.738C3.045 21.6207 3.0178 21.4941 3.0178 21.3662C3.0178 21.2382 3.045 21.1116 3.0979 20.9943L4.2629 18.5909C4.3192 18.4841 4.3474 18.3655 4.3452 18.2456C4.3434 18.1898 4.33029 18.1349 4.30659 18.084C4.28289 18.0331 4.2491 17.9872 4.2071 17.949C4.1651 17.9108 4.11569 17.8809 4.06179 17.8612C4.00789 17.8414 3.95049 17.8322 3.89289 17.834C3.79399 17.8298 3.697 17.8615 3.6209 17.9229C3.5449 17.9843 3.4952 18.0709 3.4817 18.1659C3.4798 18.1886 3.4826 18.2114 3.4898 18.2331C3.4971 18.2547 3.50869 18.2748 3.52399 18.292C3.53929 18.3093 3.5579 18.3235 3.5789 18.3338C3.5999 18.344 3.6227 18.3502 3.6461 18.3519C3.8654 18.3519 3.8517 18.1659 3.8106 18.0464C3.7695 17.9269 4.0436 18.2191 4.0162 18.3253C4.103 18.3436 4.1805 18.3906 4.2355 18.4581C4.2115 18.4935 4.179 18.5229 4.1409 18.5437C4.1027 18.5644 4.06 18.5761 4.0162 18.5776C4.0162 18.7502 3.934 18.8166 3.8106 18.8564C3.6873 18.8963 3.8792 18.5909 3.6461 18.5909C3.578 18.5983 3.5091 18.5901 3.4448 18.5671C3.3805 18.544 3.3227 18.5067 3.2761 18.4581C3.2761 18.5909 3.2761 19.1486 3.2761 19.1486C3.2761 19.3478 3.56389 19.3478 3.75579 19.2946C3.74289 19.3516 3.7184 19.4056 3.6837 19.4532C3.649 19.5009 3.6048 19.5414 3.5537 19.5723C3.5026 19.6032 3.4457 19.624 3.3863 19.6333C3.3268 19.6426 3.266 19.6404 3.2075 19.6266C3.2591 19.6463 3.3028 19.6813 3.3324 19.7267C3.362 19.7721 3.3758 19.8254 3.372 19.8789C3.3648 19.9712 3.3364 20.0608 3.289 20.1412C3.2416 20.2216 3.1763 20.2908 3.0979 20.3437L3.01559 18.3386Z" fill="#F5C832"></path>
        <path d="M3.1255 18.3383C3.1238 18.2308 3.09991 18.1247 3.05541 18.0262C3.01091 17.9277 2.9465 17.8388 2.8662 17.7646C2.7858 17.6904 2.691 17.6325 2.5872 17.5942C2.4835 17.556 2.37291 17.5381 2.26201 17.5416C2.16241 17.5301 2.06141 17.5396 1.96581 17.5693C1.87031 17.599 1.78251 17.6483 1.70841 17.7138C1.63431 17.7793 1.57561 17.8595 1.53631 17.9489C1.49701 18.0384 1.47801 18.1349 1.48071 18.2321C1.47851 18.4319 1.5305 18.6288 1.6315 18.8031L2.7417 21.1534C2.7679 21.2537 2.7679 21.3586 2.7417 21.4589C2.7417 21.568 2.697 21.6727 2.6173 21.7499C2.5376 21.8271 2.4295 21.8705 2.3168 21.8705C2.2041 21.8705 2.0961 21.8271 2.0164 21.7499C1.9367 21.6727 1.8919 21.568 1.8919 21.4589C1.8919 21.2066 2.029 21.1003 2.1661 21.1003C2.3031 21.1003 2.4128 21.1003 2.4128 21.2862C2.4128 21.4721 2.4128 21.4057 2.3168 21.4057C2.2209 21.4057 2.3168 21.2464 2.3168 21.2464C2.2971 21.2493 2.2783 21.2563 2.2617 21.267C2.2451 21.2776 2.2311 21.2917 2.2207 21.3081C2.2103 21.3245 2.20361 21.3429 2.20131 21.3621C2.19901 21.3813 2.201 21.4007 2.2072 21.419C2.1537 21.4375 2.1063 21.4696 2.0701 21.512C2.1079 21.5469 2.1556 21.5701 2.2072 21.5784C2.2072 21.6979 2.20721 21.751 2.33051 21.7776C2.32091 21.759 2.3159 21.7386 2.3159 21.7178C2.3159 21.697 2.32091 21.6766 2.33051 21.658C2.38271 21.6801 2.4403 21.6873 2.4965 21.679C2.5528 21.6707 2.6055 21.6471 2.6485 21.611C2.6915 21.5749 2.72311 21.5277 2.73961 21.4749C2.75611 21.4222 2.7568 21.366 2.7417 21.3128C2.7461 21.2457 2.73411 21.1786 2.70651 21.1169C2.67891 21.0552 2.6367 21.0008 2.5831 20.958C2.5296 20.9153 2.46641 20.8854 2.39871 20.8709C2.33091 20.8564 2.2606 20.8577 2.1935 20.8746C2.2344 20.8549 2.2688 20.8247 2.293 20.7872C2.3172 20.7496 2.33021 20.7064 2.33051 20.6621C2.28521 20.6704 2.2388 20.6704 2.1935 20.6621C2.2601 20.5892 2.2946 20.4938 2.2894 20.3965C2.2894 20.3965 2.16611 20.4762 2.08381 20.3965C2.22091 20.131 2.0838 19.7857 1.6315 19.7061C1.7806 19.8504 1.8644 20.0463 1.8645 20.2505C1.8645 20.848 1.6863 20.9543 1.6863 21.3659C1.6884 21.4649 1.71431 21.562 1.76191 21.6496C1.80951 21.7371 1.8775 21.8128 1.9605 21.8705C1.8611 21.9006 1.7745 21.9612 1.7137 22.0431C2.0105 22.1168 2.3216 22.1168 2.6184 22.0431C2.717 22.0306 2.81141 21.9967 2.89441 21.9438C2.97751 21.8909 3.0472 21.8204 3.0981 21.7377C3.1509 21.6204 3.1782 21.4939 3.1782 21.3659C3.1782 21.238 3.1509 21.1114 3.0981 20.9941L1.8782 18.5906C1.8285 18.4816 1.80061 18.3645 1.79601 18.2454C1.80301 18.1315 1.8557 18.0248 1.9427 17.9479C2.0298 17.871 2.14431 17.8301 2.26201 17.8337C2.35941 17.8298 2.4547 17.862 2.5285 17.9236C2.6023 17.9853 2.6491 18.0718 2.6595 18.1657C2.6614 18.1884 2.6586 18.2112 2.6513 18.2328C2.6441 18.2545 2.6325 18.2745 2.6172 18.2918C2.6019 18.3091 2.58321 18.3233 2.56231 18.3335C2.54131 18.3438 2.5184 18.3499 2.495 18.3516C2.2757 18.3516 2.28941 18.1657 2.33051 18.0462C2.37171 17.9267 2.1112 18.2188 2.1386 18.325C2.0469 18.3405 1.96411 18.3877 1.90561 18.4578C1.93181 18.4943 1.9666 18.5242 2.0072 18.545C2.0477 18.5657 2.0928 18.5769 2.1386 18.5773C2.1386 18.75 2.20721 18.8164 2.33051 18.8562C2.45391 18.896 2.262 18.5906 2.495 18.5906C2.5652 18.5981 2.63621 18.59 2.70271 18.567C2.76921 18.544 2.8294 18.5067 2.8788 18.4578C2.8788 18.5906 2.8788 19.1483 2.8788 19.1483C2.8788 19.3475 2.59101 19.3475 2.39911 19.2944C2.46761 19.5201 2.6184 19.6529 2.961 19.6264C2.9267 19.6312 2.8936 19.6427 2.8639 19.6601C2.8341 19.6775 2.8083 19.7004 2.7878 19.7277C2.7674 19.7549 2.7528 19.7858 2.7449 19.8186C2.737 19.8513 2.7359 19.8853 2.7417 19.9185C2.749 20.0108 2.7774 20.1004 2.8248 20.1808C2.8722 20.2612 2.9375 20.3304 3.0159 20.3833L3.1255 18.3383Z" fill="#F5C832"></path>
        <path d="M3.07061 23.9025C3.07061 23.9025 3.33101 24.115 3.41331 24.0088C3.49551 23.9025 2.98841 23.0128 2.98841 22.6809C2.98841 22.3489 3.31731 22.07 3.72851 22.0036C3.96991 21.9766 4.21361 21.9766 4.45501 22.0036C4.42421 22.0501 4.38141 22.0879 4.33101 22.1135C4.28051 22.1391 4.22411 22.1516 4.16711 22.1497C4.26681 22.1972 4.35051 22.2711 4.40871 22.3627C4.46691 22.4543 4.49721 22.56 4.49611 22.6676C4.49611 23.0792 4.31791 23.2519 4.31791 23.7166C4.34271 23.9295 4.41771 24.134 4.53721 24.3142C4.45591 24.312 4.37631 24.2914 4.30471 24.2541C4.23311 24.2167 4.17151 24.1637 4.12491 24.0991C4.07831 24.0346 4.04791 23.9604 4.03621 23.8824C4.02451 23.8045 4.03181 23.725 4.05751 23.6502C4.03251 23.6362 4.00411 23.6289 3.97521 23.6289C3.94641 23.6289 3.91801 23.6362 3.89301 23.6502C3.88411 23.6049 3.88691 23.5581 3.90131 23.514C3.91561 23.47 3.94101 23.4301 3.97521 23.3979C3.97521 23.3979 3.89301 23.3979 3.81081 23.3979C3.81941 23.3458 3.83991 23.2961 3.87071 23.2525C3.90151 23.2088 3.94191 23.1724 3.98891 23.1456C3.92541 23.1699 3.85661 23.1785 3.78881 23.1706C3.72091 23.1627 3.65621 23.1386 3.60041 23.1003C3.54471 23.0621 3.49961 23.011 3.46931 22.9517C3.43901 22.8924 3.42451 22.8267 3.42701 22.7605C3.44901 22.7097 3.48481 22.6655 3.53071 22.6328C3.57651 22.6 3.63071 22.5799 3.68741 22.5746C3.73691 22.5628 3.78871 22.5628 3.83821 22.5746C3.85801 22.5187 3.85801 22.458 3.83821 22.402C3.94781 22.402 4.00271 22.4817 3.96151 22.6012C3.99231 22.5996 4.02311 22.6047 4.05161 22.6162C4.08011 22.6277 4.10551 22.6453 4.12601 22.6676C4.11371 22.6983 4.09001 22.7234 4.05961 22.7381C4.02921 22.7528 3.99431 22.7561 3.96151 22.7473C3.96151 22.8535 3.96151 22.9199 3.86561 22.973C3.76961 23.0261 3.86561 22.7473 3.78331 22.7473C3.76661 22.7451 3.74961 22.7467 3.73361 22.7519C3.71761 22.7571 3.70311 22.7659 3.69111 22.7774C3.67921 22.789 3.67021 22.8031 3.66481 22.8186C3.65941 22.8341 3.65771 22.8506 3.66001 22.8668C3.66161 22.8942 3.66911 22.921 3.68191 22.9455C3.69471 22.97 3.71271 22.9916 3.73451 23.0091C3.75641 23.0265 3.78181 23.0394 3.80911 23.0469C3.83631 23.0544 3.86491 23.0564 3.89301 23.0527C4.05751 23.0527 4.19451 22.9332 4.19451 22.6809C4.19451 22.4286 4.00271 22.3223 3.74221 22.3223C3.69071 22.3121 3.63741 22.3134 3.58651 22.3263C3.53561 22.3392 3.48841 22.3632 3.44861 22.3966C3.40891 22.43 3.37761 22.4718 3.35721 22.5188C3.33681 22.5658 3.32781 22.6167 3.33101 22.6676C3.33101 22.973 3.79711 23.6768 3.79711 23.9955C3.79371 24.0421 3.78061 24.0876 3.75851 24.1291C3.73651 24.1707 3.70591 24.2075 3.66881 24.2373C3.63161 24.2671 3.58861 24.2893 3.54231 24.3025C3.49601 24.3157 3.44751 24.3197 3.39961 24.3142C3.22781 24.29 3.07141 24.2048 2.96091 24.0752L3.07061 23.9025Z" fill="#F5C832"></path>
        <path d="M3.07109 23.9018C3.07109 23.9018 2.8244 24.1142 2.7284 24.008C2.6325 23.9018 3.167 23.0121 3.167 22.6801C3.167 22.3482 2.8244 22.0693 2.4269 22.0029C2.1809 21.9756 1.9326 21.9756 1.6867 22.0029C1.7193 22.0476 1.7624 22.0842 1.8124 22.1096C1.8625 22.135 1.91799 22.1485 1.97449 22.149C1.87849 22.1995 1.7984 22.2744 1.7429 22.3656C1.6873 22.4568 1.6585 22.561 1.6593 22.6669C1.6593 23.0785 1.8375 23.2511 1.8375 23.7159C1.8127 23.9287 1.73769 24.1332 1.61819 24.3134C1.69829 24.3093 1.7763 24.2872 1.8462 24.249C1.916 24.2109 1.9758 24.1576 2.021 24.0933C2.0661 24.029 2.0952 23.9556 2.1062 23.8786C2.1172 23.8016 2.1096 23.7232 2.0842 23.6495C2.1087 23.6341 2.1372 23.6258 2.1664 23.6258C2.1956 23.6258 2.2242 23.6341 2.2487 23.6495C2.2672 23.6099 2.27679 23.5669 2.27679 23.5233C2.27679 23.4798 2.2672 23.4368 2.2487 23.3972C2.2487 23.3972 2.3309 23.3972 2.3995 23.3972C2.3928 23.3444 2.37309 23.2939 2.34209 23.25C2.31109 23.2061 2.26969 23.17 2.22129 23.1449C2.31969 23.1807 2.4285 23.1786 2.5253 23.1391C2.6222 23.0996 2.6998 23.0256 2.7421 22.9324C2.7523 22.89 2.7527 22.846 2.743 22.8034C2.7334 22.7609 2.7141 22.721 2.6865 22.6866C2.6589 22.6523 2.6237 22.6243 2.5836 22.6048C2.5434 22.5853 2.4992 22.5747 2.4543 22.5739C2.4096 22.5606 2.3619 22.5606 2.3172 22.5739C2.3038 22.547 2.2969 22.5175 2.2969 22.4876C2.2969 22.4577 2.3038 22.4282 2.3172 22.4013C2.2213 22.4013 2.1527 22.481 2.1938 22.6005C2.1321 22.6006 2.073 22.6245 2.0294 22.6669C2.0439 22.6959 2.0679 22.7194 2.0976 22.7338C2.1274 22.7482 2.1612 22.7527 2.1938 22.7465C2.1938 22.8528 2.19379 22.9192 2.28979 22.9723C2.38569 23.0254 2.2898 22.7465 2.3857 22.7465C2.4025 22.7443 2.4195 22.7459 2.4355 22.7511C2.4515 22.7564 2.466 22.7651 2.478 22.7767C2.4899 22.7883 2.4989 22.8023 2.5043 22.8178C2.5097 22.8333 2.5114 22.8498 2.5091 22.866C2.5057 22.894 2.4966 22.9211 2.4823 22.9456C2.4681 22.9702 2.4489 22.9917 2.4259 23.009C2.403 23.0263 2.37669 23.039 2.34859 23.0464C2.32049 23.0538 2.2912 23.0557 2.2624 23.0519C2.0979 23.0519 1.9608 22.9324 1.9608 22.6801C1.9608 22.4278 2.1664 22.3216 2.4269 22.3216C2.4784 22.3113 2.5317 22.3127 2.5826 22.3255C2.6335 22.3384 2.6807 22.3625 2.7205 22.3959C2.7602 22.4293 2.7915 22.4711 2.8119 22.5181C2.8323 22.5651 2.8413 22.616 2.8381 22.6669C2.8381 22.9723 2.372 23.676 2.372 23.9947C2.3755 24.0401 2.3882 24.0844 2.4094 24.125C2.4306 24.1656 2.45979 24.2018 2.49549 24.2314C2.53119 24.261 2.5725 24.2835 2.6172 24.2976C2.6619 24.3117 2.70899 24.3171 2.75579 24.3134C2.93249 24.2925 3.09429 24.207 3.20819 24.0744L3.07109 23.9018Z" fill="#F5C832"></path>
        <path d="M3.0163 9.29597C3.0199 9.18958 3.04501 9.08491 3.09031 8.98794C3.13571 8.89098 3.2003 8.80361 3.2805 8.73085C3.3607 8.65809 3.4549 8.60136 3.5577 8.56389C3.6606 8.52643 3.77001 8.50897 3.87991 8.51252C3.97831 8.50121 4.0781 8.51033 4.1727 8.53927C4.2672 8.5682 4.3543 8.61629 4.4282 8.68034C4.5021 8.74439 4.5611 8.82294 4.6013 8.91076C4.6414 8.99859 4.6618 9.09369 4.6611 9.18974C4.6629 9.38791 4.61591 9.58364 4.52411 9.76073L3.3453 12.0447C3.3208 12.1451 3.3208 12.2497 3.3453 12.3501C3.3556 12.4558 3.4063 12.5539 3.4874 12.6251C3.5686 12.6964 3.67441 12.7357 3.78391 12.7352C3.87481 12.7149 3.9562 12.6662 4.0156 12.5966C4.0751 12.527 4.1092 12.4404 4.1129 12.3501C4.1129 12.0845 4.0169 11.9517 3.8661 11.9517C3.7154 11.9517 3.6194 12.0181 3.6194 12.1376C3.6194 12.2572 3.6194 12.2572 3.7291 12.2572C3.8387 12.2572 3.825 12.058 3.825 12.058C3.8452 12.0625 3.86421 12.0711 3.88091 12.0831C3.89751 12.0951 3.9114 12.1103 3.9217 12.1278C3.932 12.1452 3.9385 12.1645 3.9407 12.1845C3.9429 12.2045 3.9409 12.2247 3.9347 12.2439C3.9709 12.2469 4.0058 12.2581 4.0368 12.2765C4.0677 12.295 4.0938 12.3202 4.1129 12.3501C4.0746 12.3872 4.0276 12.4145 3.9758 12.4298C3.9758 12.536 3.97581 12.5891 3.85241 12.6157C3.86511 12.5768 3.86511 12.5351 3.85241 12.4962C3.80511 12.5142 3.7538 12.5204 3.7033 12.514C3.6528 12.5077 3.60481 12.4891 3.56371 12.4599C3.52271 12.4307 3.4899 12.392 3.4685 12.3472C3.4471 12.3025 3.4377 12.2532 3.4412 12.204C3.4368 12.137 3.44891 12.0698 3.47651 12.0082C3.50411 11.9465 3.5463 11.892 3.5998 11.8493C3.6534 11.8065 3.71661 11.7766 3.78431 11.7621C3.85211 11.7476 3.9224 11.7489 3.9895 11.7658C3.9486 11.7462 3.9141 11.7159 3.8899 11.6784C3.8657 11.6409 3.85281 11.5976 3.85241 11.5534H3.9895C3.9263 11.4785 3.8924 11.3845 3.8936 11.2878C3.8936 11.2878 4.01691 11.3675 4.09921 11.2878C4.07661 11.2161 4.07041 11.1405 4.08101 11.0663C4.09151 10.992 4.11861 10.9209 4.16031 10.8577C4.20201 10.7946 4.2573 10.741 4.3225 10.7006C4.3877 10.6603 4.4611 10.6341 4.5378 10.6239C4.3956 10.7726 4.3129 10.9657 4.3048 11.1683C4.3048 11.7791 4.48301 11.8721 4.48301 12.297C4.47881 12.3937 4.4519 12.4882 4.4044 12.5733C4.3569 12.6584 4.29001 12.7319 4.20881 12.7883C4.25911 12.797 4.3069 12.8156 4.3494 12.843C4.3918 12.8704 4.42801 12.9061 4.45551 12.9477C4.16071 13.0349 3.8457 13.0349 3.5509 12.9477C3.4529 12.9334 3.35921 12.8987 3.27641 12.846C3.19361 12.7932 3.12361 12.7237 3.07121 12.6422C3.01781 12.5274 2.9902 12.403 2.9902 12.2771C2.9902 12.1512 3.01781 12.0267 3.07121 11.9119L4.2636 9.4686C4.3184 9.36127 4.34651 9.24306 4.34591 9.12334C4.34411 9.06753 4.331 9.01261 4.3073 8.96171C4.2836 8.91081 4.24981 8.86494 4.20781 8.82671C4.16581 8.78848 4.1164 8.75864 4.0625 8.73891C4.0086 8.71917 3.9512 8.70993 3.8936 8.7117C3.7967 8.70707 3.70141 8.73692 3.62571 8.79562C3.54991 8.85432 3.499 8.93782 3.4824 9.03039C3.4824 9.1499 3.4824 9.2163 3.6468 9.2163C3.8113 9.2163 3.8524 9.03039 3.8113 8.92416C3.7702 8.81793 4.0443 9.09679 4.0169 9.20302C4.1026 9.2157 4.1806 9.25818 4.2362 9.32253C4.2122 9.35796 4.17971 9.38731 4.14161 9.4081C4.10341 9.42889 4.0607 9.44053 4.0169 9.44204C4.0169 9.61466 3.9347 9.69434 3.8113 9.73417C3.688 9.77401 3.8799 9.45532 3.6468 9.45532C3.5786 9.46632 3.5085 9.45985 3.4436 9.43656C3.3787 9.41327 3.3212 9.37396 3.2768 9.32253C3.2768 9.4686 3.2768 10.013 3.2768 10.013C3.2768 10.2255 3.5646 10.2122 3.7565 10.1591C3.688 10.3981 3.5372 10.5176 3.2082 10.4911C3.2586 10.5123 3.30121 10.5477 3.33051 10.5927C3.35981 10.6377 3.3745 10.6902 3.3727 10.7434C3.3647 10.8373 3.3361 10.9286 3.2888 11.011C3.2415 11.0934 3.1767 11.1652 3.0986 11.2214L3.0163 9.29597Z" fill="#F5C832"></path>
        <path d="M3.12541 9.29597C3.12191 9.18958 3.0968 9.08491 3.0514 8.98794C3.0061 8.89098 2.94151 8.80361 2.86131 8.73085C2.78111 8.65809 2.6869 8.60136 2.584 8.56389C2.4812 8.52643 2.37171 8.50897 2.26191 8.51252C2.16351 8.50121 2.06361 8.51033 1.96911 8.53927C1.87451 8.5682 1.78741 8.61629 1.71351 8.68034C1.63971 8.74439 1.58071 8.82294 1.54051 8.91076C1.50041 8.99859 1.4799 9.09369 1.4806 9.18974C1.4771 9.38972 1.52921 9.58694 1.63141 9.76073L2.7417 12.0447C2.7662 12.1451 2.7662 12.2497 2.7417 12.3501C2.7417 12.4593 2.6969 12.564 2.6172 12.6412C2.5375 12.7184 2.42941 12.7618 2.31671 12.7618C2.20411 12.7618 2.09601 12.7184 2.01631 12.6412C1.93661 12.564 1.89181 12.4593 1.89181 12.3501C1.89181 12.0845 2.02891 11.9783 2.16601 11.9783C2.30301 11.9783 2.41271 12.0447 2.41271 12.1642C2.41271 12.2837 2.41271 12.2837 2.31671 12.2837C2.22081 12.2837 2.20711 12.0845 2.20711 12.0845C2.18691 12.0891 2.1679 12.0976 2.1512 12.1097C2.1346 12.1217 2.12071 12.1369 2.11041 12.1543C2.10011 12.1718 2.09371 12.1911 2.09141 12.2111C2.08921 12.231 2.09121 12.2513 2.09741 12.2704C2.04491 12.2839 1.9974 12.3115 1.9604 12.3501C2.0008 12.3843 2.04721 12.4113 2.09741 12.4298C2.09741 12.536 2.0974 12.5891 2.2208 12.6157C2.2112 12.5971 2.20611 12.5767 2.20611 12.5559C2.20611 12.5352 2.2112 12.5147 2.2208 12.4962C2.2634 12.5579 2.3286 12.6016 2.4032 12.6184C2.4779 12.6352 2.55631 12.6239 2.62261 12.5867C2.68891 12.5495 2.73811 12.4892 2.76021 12.4182C2.78231 12.3471 2.7757 12.2705 2.7417 12.204C2.7461 12.137 2.73401 12.0698 2.70641 12.0082C2.67881 11.9465 2.6366 11.892 2.5831 11.8493C2.5295 11.8065 2.46631 11.7766 2.39861 11.7621C2.33081 11.7476 2.26051 11.7489 2.19341 11.7658C2.23531 11.7475 2.27071 11.7175 2.29511 11.6797C2.31951 11.6419 2.33181 11.5979 2.33051 11.5534C2.28521 11.5616 2.23871 11.5616 2.19341 11.5534C2.22701 11.5177 2.25291 11.4757 2.26941 11.4301C2.28591 11.3844 2.2927 11.336 2.2893 11.2878C2.2893 11.2878 2.166 11.3675 2.0837 11.2878C2.2208 11.0355 2.08371 10.6903 1.63141 10.5973C1.77931 10.7425 1.8629 10.9378 1.8644 11.1417C1.8644 11.7526 1.6862 11.8455 1.6862 12.2704C1.6904 12.3671 1.71731 12.4616 1.76481 12.5467C1.81231 12.6319 1.8792 12.7054 1.9604 12.7618C1.86 12.782 1.77161 12.8391 1.71361 12.9211C2.00851 13.0083 2.32351 13.0083 2.61831 12.9211C2.71691 12.9086 2.81131 12.8747 2.89441 12.8218C2.97751 12.7689 3.0471 12.6984 3.098 12.6157C3.1514 12.5009 3.17901 12.3764 3.17901 12.2505C3.17901 12.1246 3.1514 12.0002 3.098 11.8853L1.87811 9.50843C1.82991 9.39895 1.8021 9.28206 1.7959 9.16318C1.803 9.04929 1.85561 8.94257 1.94261 8.8657C2.02971 8.78883 2.14421 8.74787 2.26191 8.75154C2.35721 8.7473 2.45071 8.7776 2.52421 8.83652C2.59771 8.89543 2.64591 8.97875 2.65941 9.07023C2.65941 9.18974 2.5909 9.25613 2.4949 9.25613C2.399 9.25613 2.28931 9.07023 2.33051 8.964C2.29511 8.97318 2.26201 8.98912 2.23311 9.01089C2.20421 9.03267 2.18011 9.05982 2.16221 9.09077C2.14431 9.12171 2.13301 9.15581 2.12901 9.19105C2.12491 9.22629 2.1282 9.26197 2.1386 9.29597C2.048 9.30548 1.9646 9.34825 1.9055 9.41548C1.9317 9.45194 1.9666 9.48181 2.0071 9.5026C2.0476 9.52339 2.0927 9.53449 2.1386 9.53499C2.1386 9.70761 2.20711 9.78729 2.33051 9.82712C2.45381 9.86696 2.2619 9.54827 2.4949 9.54827C2.5653 9.55906 2.63731 9.55256 2.70431 9.52936C2.77141 9.50615 2.83141 9.467 2.87871 9.41548C2.87871 9.56155 2.87871 10.106 2.87871 10.106C2.87871 10.3184 2.5909 10.3052 2.399 10.252C2.4675 10.4911 2.6183 10.6106 2.961 10.584C2.9084 10.5929 2.8596 10.6165 2.8206 10.6519C2.7817 10.6873 2.7542 10.7329 2.7417 10.7832C2.7497 10.8772 2.7783 10.9684 2.8256 11.0508C2.8728 11.1333 2.93771 11.205 3.01581 11.2612L3.12541 9.29597Z" fill="#F5C832"></path>
        <path d="M3.1255 7.6622C3.1238 7.76972 3.09991 7.87582 3.05541 7.97433C3.01091 8.07283 2.9465 8.16175 2.8662 8.23592C2.7858 8.31008 2.691 8.36799 2.5872 8.40628C2.4835 8.44457 2.37291 8.46247 2.26201 8.45893C2.16241 8.4704 2.06141 8.46096 1.96581 8.43125C1.87031 8.40154 1.78251 8.35225 1.70841 8.28675C1.63431 8.22124 1.57561 8.14104 1.53631 8.05161C1.49701 7.96217 1.47801 7.86559 1.48071 7.76843C1.47901 7.57286 1.531 7.38037 1.6315 7.21072L2.7417 4.86036C2.7674 4.75558 2.7674 4.64644 2.7417 4.54167C2.7417 4.43249 2.697 4.32779 2.6173 4.25059C2.5376 4.17339 2.4295 4.13002 2.3168 4.13002C2.2041 4.13002 2.0961 4.17339 2.0164 4.25059C1.9367 4.32779 1.8919 4.43249 1.8919 4.54167C1.8919 4.79396 2.029 4.91347 2.1661 4.91347C2.3031 4.91347 2.4128 4.91347 2.4128 4.72757C2.4128 4.54167 2.4128 4.60806 2.3168 4.60806C2.2209 4.60806 2.2072 4.79396 2.2072 4.79396C2.1875 4.79106 2.1687 4.78404 2.1521 4.77339C2.1355 4.76274 2.1215 4.74871 2.111 4.73228C2.1006 4.71585 2.09401 4.69741 2.09171 4.67825C2.08931 4.65909 2.0913 4.63967 2.0975 4.62134C2.045 4.60785 1.9975 4.58023 1.9605 4.54167C1.9975 4.5031 2.045 4.47548 2.0975 4.46199C2.0975 4.34248 2.09751 4.28937 2.22091 4.26281C2.21101 4.28364 2.2059 4.30629 2.2059 4.3292C2.2059 4.35212 2.21101 4.37477 2.22091 4.3956C2.26271 4.32868 2.3302 4.2806 2.4086 4.26192C2.487 4.24325 2.56991 4.25551 2.63891 4.29601C2.70801 4.33651 2.75761 4.40193 2.77691 4.47788C2.79621 4.55384 2.7835 4.6341 2.7417 4.70101C2.747 4.76786 2.73541 4.83494 2.70781 4.89643C2.68021 4.95791 2.6375 5.01195 2.5835 5.05383C2.5295 5.09571 2.46571 5.12417 2.39771 5.13673C2.32971 5.1493 2.2596 5.14559 2.1935 5.12593C2.2344 5.14559 2.2688 5.17586 2.293 5.21337C2.3172 5.25088 2.33021 5.29416 2.33051 5.3384C2.28521 5.33013 2.2388 5.33013 2.1935 5.3384C2.2623 5.4154 2.2968 5.51567 2.2894 5.61725C2.2894 5.61725 2.16611 5.5243 2.08381 5.61725C2.22091 5.86955 2.0838 6.2148 1.6315 6.29447C1.7793 6.1493 1.8629 5.95398 1.8645 5.75004C1.8645 5.15249 1.6863 5.04626 1.6863 4.63462C1.6895 4.53772 1.7159 4.44287 1.7635 4.35759C1.8111 4.27231 1.8785 4.19894 1.9605 4.1433C1.8625 4.11762 1.7759 4.06167 1.7137 3.98395C2.0096 3.90411 2.3225 3.90411 2.6184 3.98395C2.7161 3.99906 2.80941 4.0341 2.89211 4.08675C2.97481 4.1394 3.045 4.20846 3.0981 4.28937C3.1509 4.40664 3.1782 4.53322 3.1782 4.66117C3.1782 4.78913 3.1509 4.91571 3.0981 5.03298L1.8782 7.39662C1.83 7.5061 1.80221 7.62299 1.79601 7.74187C1.80301 7.85576 1.8557 7.96248 1.9427 8.03935C2.0298 8.11622 2.14431 8.15718 2.26201 8.15351C2.35731 8.15775 2.4508 8.12745 2.5243 8.06854C2.5978 8.00962 2.646 7.9263 2.6595 7.83482C2.6595 7.71531 2.591 7.63564 2.495 7.63564C2.3991 7.63564 2.28941 7.82154 2.33051 7.94105C2.27031 7.92301 2.2184 7.88544 2.1835 7.83465C2.1485 7.78386 2.1327 7.72296 2.1386 7.6622C2.0502 7.64645 1.96881 7.60473 1.90561 7.54269C1.93001 7.50448 1.96441 7.47326 2.00541 7.45225C2.04631 7.43125 2.0923 7.42121 2.1386 7.42318C2.1255 7.39178 2.12031 7.35778 2.12341 7.32403C2.12661 7.29028 2.138 7.25775 2.1568 7.22916C2.1756 7.20056 2.2012 7.17674 2.2314 7.15967C2.2616 7.1426 2.29561 7.13279 2.33051 7.13104C2.33051 7.25055 2.262 7.39662 2.495 7.39662C2.5667 7.38464 2.6403 7.39192 2.708 7.41767C2.7757 7.44343 2.8347 7.48667 2.8788 7.54269C2.8788 7.39662 2.8788 6.83891 2.8788 6.83891C2.8788 6.63972 2.59101 6.63972 2.39911 6.70612C2.41021 6.64651 2.434 6.58978 2.4689 6.53952C2.5038 6.48926 2.5491 6.44656 2.6019 6.41412C2.6547 6.38168 2.7139 6.36019 2.7757 6.35103C2.8375 6.34186 2.9006 6.34521 2.961 6.36087C2.9016 6.35171 2.8473 6.32289 2.8073 6.27932C2.7673 6.23575 2.7442 6.1801 2.7417 6.12185C2.7498 6.02788 2.7784 5.93664 2.8256 5.85422C2.8729 5.77179 2.9378 5.70006 3.0159 5.64381L3.1255 7.6622Z" fill="#F5C832"></path>
        <path d="M3.0155 7.66214C3.0173 7.76966 3.04111 7.87577 3.08561 7.97427C3.13021 8.07277 3.1945 8.1617 3.2749 8.23586C3.3553 8.31002 3.4501 8.36794 3.5538 8.40623C3.6575 8.44452 3.76811 8.46241 3.87901 8.45887C3.97871 8.47034 4.07971 8.4609 4.17521 8.43119C4.27071 8.40148 4.3585 8.3522 4.4327 8.28669C4.5068 8.22118 4.5655 8.14099 4.6048 8.05155C4.644 7.96212 4.66301 7.86554 4.66031 7.76837C4.66091 7.57457 4.614 7.3834 4.5233 7.21066L3.34451 4.8603C3.31881 4.75553 3.31881 4.64639 3.34451 4.54161C3.35761 4.43708 3.4092 4.34063 3.4897 4.26991C3.5703 4.19919 3.6744 4.15894 3.7831 4.15652C3.8924 4.15963 3.9966 4.20221 4.0753 4.27591C4.1539 4.34962 4.2012 4.44911 4.208 4.55489C4.208 4.80719 4.0709 4.9267 3.9202 4.9267C3.7694 4.9267 3.6734 4.9267 3.6734 4.74079C3.6734 4.55489 3.6734 4.62128 3.7831 4.62128C3.8927 4.62128 3.87901 4.80719 3.87901 4.80719C3.89871 4.80429 3.9175 4.79727 3.9341 4.78662C3.9507 4.77596 3.9647 4.76193 3.9752 4.7455C3.9856 4.72907 3.9922 4.71064 3.9946 4.69148C3.9969 4.67232 3.9949 4.6529 3.9887 4.63456C4.0377 4.62173 4.081 4.59375 4.1121 4.55489C4.0775 4.51351 4.0289 4.48529 3.975 4.47522C3.975 4.35571 3.975 4.30259 3.8516 4.27603C3.8632 4.31958 3.8632 4.36527 3.8516 4.40882C3.8043 4.39077 3.7529 4.38463 3.7025 4.39097C3.652 4.39732 3.604 4.41594 3.5629 4.4451C3.5219 4.47427 3.4891 4.51302 3.4677 4.55776C3.4463 4.6025 3.4369 4.65176 3.4404 4.70096C3.4351 4.7678 3.4468 4.83489 3.4744 4.89637C3.502 4.95786 3.54461 5.01189 3.59871 5.05377C3.65271 5.09565 3.7165 5.12411 3.7844 5.13668C3.8524 5.14925 3.9225 5.14554 3.9887 5.12588C3.9504 5.14348 3.9169 5.16943 3.8908 5.20168C3.8646 5.23394 3.8465 5.27162 3.8379 5.31179H3.975C3.9118 5.39177 3.87801 5.48992 3.87901 5.59064C3.87901 5.59064 4.0024 5.49769 4.0846 5.59064C4.0568 5.66408 4.047 5.74279 4.056 5.82054C4.0649 5.89829 4.0924 5.97296 4.1363 6.03864C4.1802 6.10432 4.2392 6.15922 4.3087 6.199C4.3783 6.23879 4.4564 6.26236 4.537 6.26786C4.3947 6.11912 4.31211 5.92602 4.30391 5.72343C4.30391 5.12588 4.48211 5.01965 4.48211 4.60801C4.47901 4.51111 4.4525 4.41626 4.405 4.33098C4.3574 4.2457 4.2899 4.17233 4.208 4.11669C4.3078 4.09515 4.3958 4.03834 4.4547 3.95734C4.1588 3.8775 3.846 3.8775 3.5501 3.95734C3.4531 3.97474 3.3608 4.01071 3.2784 4.06316C3.196 4.1156 3.1253 4.18346 3.0703 4.26276C3.0175 4.38003 2.9902 4.50661 2.9902 4.63456C2.9902 4.76252 3.0175 4.8891 3.0703 5.00637L4.2628 7.44968C4.3176 7.55701 4.3457 7.67522 4.3451 7.79493C4.3433 7.85074 4.3302 7.90567 4.3065 7.95657C4.2828 8.00746 4.249 8.05334 4.207 8.09157C4.165 8.1298 4.1156 8.15964 4.0617 8.17937C4.0078 8.1991 3.9504 8.20835 3.8927 8.20658C3.7959 8.2112 3.7006 8.18136 3.6249 8.12266C3.5491 8.06396 3.4981 7.98046 3.4815 7.88788C3.4815 7.76837 3.4815 7.6887 3.646 7.6887C3.8105 7.6887 3.8516 7.8746 3.8105 7.99411C3.7694 8.11362 4.04351 7.82149 4.01611 7.71526C4.09941 7.69632 4.1754 7.65488 4.2354 7.59575C4.2133 7.5586 4.1813 7.5279 4.1427 7.50687C4.1041 7.48585 4.06041 7.47526 4.01611 7.47624C4.02651 7.44378 4.0292 7.40945 4.024 7.37584C4.0188 7.34222 4.0059 7.31017 3.9861 7.28208C3.9663 7.25399 3.9403 7.2306 3.9099 7.21363C3.8795 7.19667 3.8455 7.18657 3.8105 7.1841C3.8105 7.30361 3.879 7.44968 3.646 7.44968C3.413 7.44968 3.34451 7.44968 3.27591 7.59575C3.27591 7.44968 3.27591 6.89197 3.27591 6.89197C3.27591 6.69279 3.5638 6.69279 3.7557 6.75918C3.7443 6.701 3.721 6.64565 3.6869 6.59647C3.6529 6.54729 3.6089 6.5053 3.5577 6.47303C3.5065 6.44077 3.44901 6.41889 3.38881 6.40874C3.32861 6.39858 3.26691 6.40034 3.20741 6.41393C3.25791 6.39674 3.3012 6.36414 3.3308 6.32103C3.3605 6.27792 3.3749 6.22664 3.3719 6.17491C3.3639 6.08094 3.3352 5.98971 3.288 5.90728C3.2407 5.82485 3.1759 5.75313 3.0977 5.69687L3.0155 7.66214Z" fill="#F5C832"></path>
        <path d="M3.1255 16.772C3.1184 16.988 3.02381 17.1926 2.86221 17.3417C2.70071 17.4907 2.48511 17.5723 2.26201 17.5687C2.16241 17.5802 2.06141 17.5707 1.96581 17.541C1.87031 17.5113 1.78251 17.462 1.70841 17.3965C1.63431 17.331 1.57561 17.2508 1.53631 17.1614C1.49701 17.0719 1.47801 16.9753 1.48071 16.8782C1.47691 16.6824 1.5291 16.4894 1.6315 16.3205L2.7417 13.9701C2.7651 13.8651 2.7651 13.7564 2.7417 13.6514C2.735 13.5456 2.68761 13.4461 2.60901 13.3724C2.53041 13.2987 2.4262 13.2562 2.3168 13.2531C2.2075 13.2562 2.1033 13.2987 2.0247 13.3724C1.9461 13.4461 1.8987 13.5456 1.8919 13.6514C1.8919 13.917 2.029 14.0365 2.1661 14.0365C2.3031 14.0365 2.4128 13.9701 2.4128 13.8373C2.4128 13.7045 2.4128 13.7178 2.3168 13.7178C2.2209 13.7178 2.2072 13.917 2.2072 13.917C2.187 13.9124 2.168 13.9039 2.1513 13.8919C2.1347 13.8799 2.1208 13.8647 2.1105 13.8472C2.1002 13.8298 2.0937 13.8104 2.0915 13.7905C2.0893 13.7705 2.0913 13.7503 2.0975 13.7311C2.0696 13.7302 2.0423 13.7224 2.0183 13.7085C1.9943 13.6945 1.9744 13.6749 1.9605 13.6514C1.9975 13.6129 2.045 13.5852 2.0975 13.5717C2.0975 13.4655 2.09751 13.4124 2.22091 13.3858C2.21121 13.4044 2.2062 13.4248 2.2062 13.4456C2.2062 13.4664 2.21121 13.4868 2.22091 13.5054C2.26751 13.4901 2.3173 13.4862 2.3658 13.4939C2.4144 13.5015 2.4603 13.5206 2.4995 13.5494C2.5387 13.5782 2.57001 13.6159 2.59081 13.6591C2.61151 13.7024 2.621 13.7499 2.6184 13.7975C2.6228 13.8646 2.6107 13.9317 2.5831 13.9934C2.5556 14.055 2.51331 14.1095 2.45981 14.1523C2.40631 14.195 2.343 14.2249 2.2753 14.2394C2.2076 14.2539 2.1372 14.2526 2.0701 14.2357C2.111 14.2553 2.1455 14.2856 2.1697 14.3231C2.1939 14.3606 2.2069 14.4039 2.2072 14.4482C2.1619 14.4399 2.1154 14.4399 2.0701 14.4482C2.1368 14.5211 2.1712 14.6164 2.1661 14.7137C2.1661 14.7137 2.1386 14.6075 2.0564 14.6075C2.0869 14.6816 2.09881 14.7618 2.09121 14.8412C2.08351 14.9207 2.0565 14.9973 2.0123 15.0647C1.9682 15.1321 1.9082 15.1884 1.8372 15.2289C1.7662 15.2695 1.6863 15.2932 1.6041 15.298C1.7519 15.1528 1.83551 14.9575 1.83711 14.7536C1.83711 14.156 1.65891 14.0498 1.65891 13.6249C1.66311 13.5282 1.69 13.4337 1.7375 13.3486C1.785 13.2634 1.8518 13.1899 1.933 13.1335C1.8336 13.1035 1.747 13.0429 1.6863 12.9609C1.9811 12.8737 2.2961 12.8737 2.591 12.9609C2.6896 12.9734 2.7839 13.0074 2.867 13.0603C2.9501 13.1132 3.01981 13.1836 3.07071 13.2663C3.12351 13.3836 3.1508 13.5102 3.1508 13.6381C3.1508 13.7661 3.12351 13.8927 3.07071 14.0099L1.8782 16.4533C1.8302 16.5581 1.80231 16.6706 1.79601 16.7852C1.79771 16.8428 1.81121 16.8994 1.83561 16.9519C1.86001 17.0045 1.8948 17.0518 1.9381 17.0913C1.9814 17.1307 2.0323 17.1615 2.0878 17.1819C2.1434 17.2023 2.20261 17.2119 2.26201 17.2102C2.35941 17.2141 2.4547 17.1819 2.5285 17.1203C2.6023 17.0586 2.6491 16.9721 2.6595 16.8782C2.6595 16.7587 2.591 16.6923 2.495 16.6923C2.3991 16.6923 2.28941 16.8782 2.33051 16.9977C2.37171 17.1172 2.1112 16.8251 2.1386 16.7056C2.0481 16.696 1.96471 16.6533 1.90561 16.586C1.93251 16.5512 1.9678 16.5233 2.0085 16.5048C2.0491 16.4862 2.0938 16.4777 2.1386 16.4798C2.1386 16.2939 2.20721 16.2142 2.33051 16.1744C2.45391 16.1346 2.262 16.4533 2.495 16.4533C2.5654 16.4425 2.6374 16.449 2.7044 16.4722C2.7715 16.4954 2.8314 16.5345 2.8788 16.586C2.8788 16.4533 2.8788 15.8955 2.8788 15.8955C2.8788 15.6831 2.59101 15.6964 2.39911 15.7495C2.46761 15.5105 2.6184 15.3909 2.961 15.4175C2.9077 15.4103 2.858 15.3873 2.8187 15.3517C2.7795 15.316 2.7526 15.2694 2.7417 15.2183C2.7514 15.1248 2.7807 15.0341 2.8279 14.9519C2.875 14.8697 2.939 14.7977 3.0159 14.7403L3.1255 16.772Z" fill="#F5C832"></path>
        <path d="M3.01559 16.772C3.02279 16.988 3.1174 17.1926 3.2789 17.3417C3.4405 17.4907 3.6561 17.5723 3.8792 17.5687C3.9788 17.5802 4.0798 17.5707 4.1753 17.541C4.2708 17.5113 4.3587 17.462 4.4328 17.3965C4.5069 17.331 4.5656 17.2508 4.6049 17.1614C4.6442 17.0719 4.6631 16.9753 4.6604 16.8782C4.6621 16.6843 4.6151 16.4928 4.5234 16.3205L3.3446 13.9701C3.3212 13.8651 3.3212 13.7564 3.3446 13.6514C3.3546 13.5445 3.40479 13.4449 3.48569 13.3714C3.56649 13.298 3.6724 13.2559 3.7832 13.2531C3.8926 13.2562 3.9968 13.2987 4.0754 13.3724C4.154 13.4461 4.2013 13.5456 4.2081 13.6514C4.2081 13.917 4.071 14.0365 3.9203 14.0365C3.7695 14.0365 3.6736 13.9701 3.6736 13.8373C3.6736 13.7045 3.6736 13.7178 3.7832 13.7178C3.8929 13.7178 3.8792 13.917 3.8792 13.917C3.8994 13.9124 3.9184 13.9039 3.935 13.8919C3.9516 13.8799 3.9655 13.8647 3.9758 13.8472C3.9861 13.8298 3.9926 13.8104 3.9948 13.7905C3.9971 13.7705 3.995 13.7503 3.9888 13.7311C4.0171 13.7316 4.0449 13.7244 4.0691 13.7103C4.0934 13.6962 4.113 13.6758 4.1259 13.6514C4.0913 13.61 4.0428 13.5818 3.9888 13.5717C3.9888 13.4655 3.98879 13.4124 3.86539 13.3858C3.87809 13.4247 3.87809 13.4665 3.86539 13.5054C3.81809 13.4907 3.7678 13.4871 3.7187 13.4948C3.6697 13.5026 3.6232 13.5215 3.5831 13.55C3.543 13.5785 3.5104 13.6158 3.488 13.6588C3.4656 13.7018 3.454 13.7493 3.4542 13.7975C3.4498 13.8646 3.46189 13.9317 3.48949 13.9934C3.51709 14.055 3.5593 14.1095 3.6128 14.1523C3.6664 14.195 3.72959 14.2249 3.79729 14.2394C3.86509 14.2539 3.93539 14.2526 4.00249 14.2357C3.96339 14.2574 3.9304 14.2882 3.9065 14.3253C3.8826 14.3623 3.86849 14.4045 3.86539 14.4482H4.00249C3.94209 14.5245 3.9085 14.6176 3.9066 14.7137C3.9066 14.7137 4.0025 14.6075 4.1122 14.6075C4.0847 14.6818 4.075 14.7611 4.084 14.8395C4.093 14.9179 4.1203 14.9933 4.164 15.06C4.2076 15.1266 4.2664 15.1826 4.3358 15.2239C4.4052 15.2652 4.4834 15.2905 4.5645 15.298C4.4223 15.1493 4.3396 14.9562 4.3315 14.7536C4.3315 14.156 4.5097 14.0498 4.5097 13.6249C4.5055 13.5282 4.4786 13.4337 4.4311 13.3486C4.3836 13.2634 4.3167 13.1899 4.2355 13.1335C4.337 13.1075 4.4248 13.046 4.4823 12.9609C4.1874 12.8737 3.87239 12.8737 3.57759 12.9609C3.47959 12.9752 3.386 13.0099 3.3031 13.0626C3.2203 13.1153 3.1503 13.1848 3.0979 13.2663C3.045 13.3836 3.0178 13.5102 3.0178 13.6381C3.0178 13.7661 3.045 13.8927 3.0979 14.0099L4.2904 16.4533C4.345 16.5559 4.3732 16.6698 4.3726 16.7852C4.3726 16.8422 4.36079 16.8985 4.33789 16.951C4.31509 17.0034 4.2815 17.0509 4.2393 17.0905C4.1971 17.1301 4.1471 17.1611 4.0923 17.1817C4.0375 17.2023 3.979 17.2119 3.9203 17.2102C3.8214 17.2144 3.7244 17.1827 3.6483 17.1213C3.5723 17.0599 3.5226 16.9732 3.5091 16.8782C3.5091 16.7587 3.5091 16.6923 3.6736 16.6923C3.838 16.6923 3.8792 16.8782 3.838 16.9977C3.7969 17.1172 4.07099 16.8251 4.04359 16.7056C4.12929 16.6929 4.2073 16.6504 4.2629 16.586C4.2382 16.5523 4.2052 16.5249 4.167 16.5064C4.1288 16.4878 4.08639 16.4787 4.04359 16.4798C4.05159 16.4466 4.0526 16.4122 4.0465 16.3787C4.0404 16.3451 4.0274 16.3131 4.0082 16.2846C3.989 16.256 3.964 16.2315 3.9347 16.2126C3.9055 16.1937 3.8726 16.1807 3.838 16.1744C3.838 16.3072 3.9066 16.4533 3.6736 16.4533C3.6053 16.4423 3.53519 16.4487 3.47029 16.472C3.40539 16.4953 3.3479 16.5346 3.3035 16.586C3.3035 16.4533 3.3035 15.8955 3.3035 15.8955C3.3035 15.6831 3.5913 15.6964 3.7832 15.7495C3.7147 15.5105 3.5639 15.3909 3.2349 15.4175C3.2865 15.3979 3.33019 15.3628 3.35979 15.3174C3.38939 15.2721 3.40329 15.2187 3.39939 15.1652C3.38969 15.0716 3.3604 14.981 3.3133 14.8988C3.2661 14.8166 3.2022 14.7446 3.1253 14.6872L3.01559 16.772Z" fill="#F5C832"></path>
        <path d="M3.07061 2.04523C3.07061 2.04523 3.33101 1.84605 3.41331 1.939C3.49551 2.03195 2.98841 2.94819 2.98841 3.26689C2.98841 3.58558 3.31731 3.87771 3.72851 3.94411C3.97001 3.96846 4.21351 3.96846 4.45501 3.94411C4.43561 3.87439 4.38901 3.81467 4.32511 3.77752C4.26121 3.74037 4.18491 3.72869 4.11231 3.74492C4.21191 3.69739 4.29571 3.62356 4.35391 3.53194C4.41211 3.44032 4.44241 3.33463 4.44131 3.22705C4.44131 2.8154 4.26311 2.64278 4.26311 2.17802C4.28741 1.96919 4.36261 1.76895 4.48241 1.59375C4.41131 1.60844 4.34421 1.63777 4.28581 1.67977C4.22741 1.72177 4.17901 1.77545 4.14391 1.83717C4.10881 1.89888 4.08781 1.96719 4.08241 2.03746C4.07691 2.10773 4.08711 2.17831 4.11231 2.24441C4.08661 2.25623 4.05851 2.26235 4.03011 2.26235C4.00161 2.26235 3.97351 2.25623 3.94781 2.24441C3.94001 2.28774 3.94351 2.33225 3.95781 2.37397C3.97221 2.41569 3.99701 2.4533 4.03011 2.48343C4.03011 2.48343 3.94781 2.48343 3.86561 2.48343C3.88871 2.55126 3.93161 2.61119 3.98891 2.65606C3.92431 2.63118 3.85421 2.62259 3.78511 2.63112C3.71611 2.63964 3.65051 2.66499 3.59431 2.70479C3.53821 2.74459 3.49341 2.79755 3.46411 2.8587C3.43481 2.91985 3.42211 2.98719 3.42701 3.05442C3.42321 3.09107 3.42691 3.12809 3.43801 3.16332C3.44911 3.19856 3.46731 3.23132 3.49151 3.25972C3.51571 3.28812 3.54551 3.31158 3.57911 3.32877C3.61271 3.34595 3.64951 3.35651 3.68741 3.35984C3.73691 3.37165 3.78871 3.37165 3.83821 3.35984C3.85911 3.41559 3.85911 3.47671 3.83821 3.53246C3.94781 3.53246 4.00271 3.45279 3.96151 3.33328C3.98751 3.34425 4.01551 3.34991 4.04381 3.34991C4.07211 3.34991 4.10011 3.34425 4.12601 3.33328C4.10871 3.30677 4.08421 3.28534 4.05521 3.2713C4.02621 3.25726 3.99381 3.25114 3.96151 3.25361C3.96151 3.14738 3.96151 3.08098 3.86561 3.04115C3.76961 3.00131 3.86561 3.25361 3.78331 3.25361C3.76661 3.2558 3.74961 3.25422 3.73361 3.24899C3.71761 3.24376 3.70311 3.23502 3.69111 3.22345C3.67921 3.21188 3.67021 3.1978 3.66481 3.1823C3.65941 3.1668 3.65771 3.15031 3.66001 3.1341C3.66131 3.10707 3.66871 3.08064 3.68171 3.05668C3.69471 3.03271 3.71291 3.01178 3.73511 2.99534C3.75731 2.9789 3.78291 2.96735 3.81021 2.9615C3.83751 2.95565 3.86571 2.95564 3.89301 2.96147C4.05751 2.96147 4.19451 3.0677 4.19451 3.33328C4.19451 3.59886 4.00271 3.67853 3.74221 3.67853C3.69191 3.6885 3.63981 3.68737 3.59001 3.67521C3.54011 3.66305 3.49371 3.64019 3.45421 3.60831C3.41481 3.57643 3.38321 3.53635 3.36181 3.49104C3.34051 3.44573 3.33001 3.39635 3.33101 3.34656C3.33101 3.02787 3.79711 2.31081 3.79711 2.01867C3.79551 1.9709 3.78371 1.92397 3.76241 1.88084C3.74121 1.83772 3.71091 1.79934 3.67351 1.76813C3.63621 1.73692 3.59251 1.71357 3.54541 1.69956C3.49821 1.68554 3.44861 1.68116 3.39961 1.6867C3.22781 1.71086 3.07141 1.79606 2.96091 1.92572L3.07061 2.04523Z" fill="#F5C832"></path>
        <path d="M3.071 2.04481C3.071 2.04481 2.8243 1.84563 2.7421 1.93858C2.6598 2.03153 3.1807 2.94777 3.1807 3.26647C3.1807 3.58516 2.838 3.87729 2.4405 3.94369C2.1945 3.96829 1.94641 3.96829 1.70041 3.94369C1.79631 3.82418 1.8511 3.78434 1.9882 3.78434C1.8922 3.7338 1.8121 3.65892 1.7565 3.5677C1.701 3.47648 1.6721 3.37236 1.673 3.26647C1.673 2.85482 1.8511 2.6822 1.8511 2.21744C1.8268 2.00861 1.75161 1.80837 1.63181 1.63317C1.71141 1.63524 1.7893 1.65543 1.8593 1.69209C1.9294 1.72875 1.9895 1.78087 2.0349 1.84422C2.0802 1.90756 2.1096 1.98037 2.1205 2.05674C2.1315 2.13311 2.1237 2.2109 2.0979 2.28383C2.1233 2.29663 2.1515 2.30332 2.1801 2.30332C2.2087 2.30332 2.2369 2.29663 2.2623 2.28383C2.2797 2.32142 2.2887 2.36215 2.2887 2.40334C2.2887 2.44453 2.2797 2.48526 2.2623 2.52285C2.2623 2.52285 2.34461 2.52285 2.41311 2.52285C2.38261 2.56233 2.3434 2.59474 2.2984 2.61771C2.2533 2.64068 2.2036 2.65364 2.1527 2.65564C2.2174 2.63076 2.2875 2.62217 2.3565 2.6307C2.4255 2.63922 2.4912 2.66457 2.5473 2.70437C2.6035 2.74417 2.64831 2.79713 2.67751 2.85828C2.70681 2.91943 2.7196 2.98677 2.7147 3.054C2.7184 3.09065 2.71471 3.12767 2.70361 3.1629C2.69261 3.19814 2.6744 3.2309 2.6502 3.2593C2.626 3.2877 2.5962 3.31116 2.5625 3.32835C2.5289 3.34553 2.4921 3.35609 2.4542 3.35942C2.4096 3.37273 2.3618 3.37273 2.3172 3.35942C2.3038 3.38635 2.29691 3.41585 2.29691 3.44573C2.29691 3.47561 2.3038 3.50511 2.3172 3.53204C2.2212 3.53204 2.15271 3.45237 2.19381 3.33286C2.14081 3.35223 2.0823 3.35223 2.0293 3.33286C2.0477 3.3073 2.0723 3.28661 2.1011 3.27269C2.1298 3.25877 2.16171 3.25207 2.19381 3.25319C2.19381 3.14696 2.1938 3.08056 2.2898 3.04073C2.3857 3.00089 2.2898 3.25319 2.3857 3.25319C2.4024 3.25538 2.4195 3.2538 2.4355 3.24857C2.4515 3.24334 2.46601 3.2346 2.47791 3.22303C2.48991 3.21146 2.4989 3.19738 2.5043 3.18188C2.5097 3.16638 2.51131 3.14989 2.50911 3.13368C2.50591 3.10609 2.4967 3.07946 2.4823 3.05548C2.4678 3.03151 2.4484 3.01073 2.4251 2.99448C2.4019 2.97822 2.3754 2.96685 2.3474 2.9611C2.3194 2.95534 2.2904 2.95533 2.2623 2.96105C2.0979 2.96105 1.9608 3.06728 1.9608 3.33286C1.9608 3.59844 2.1664 3.67811 2.4268 3.67811C2.4772 3.68808 2.52921 3.68695 2.57911 3.67479C2.62891 3.66263 2.67531 3.63977 2.71481 3.60789C2.75431 3.57601 2.78591 3.53593 2.80721 3.49062C2.82851 3.44531 2.83911 3.39593 2.83801 3.34614C2.83801 3.02745 2.37201 2.31039 2.37201 2.01825C2.36601 1.96855 2.3712 1.91816 2.3873 1.8706C2.4034 1.82304 2.4299 1.77943 2.4651 1.7428C2.5003 1.70617 2.54331 1.6774 2.59121 1.65846C2.63901 1.63953 2.6905 1.6309 2.7421 1.63317C2.9188 1.65414 3.0805 1.73963 3.1944 1.87219L3.071 2.04481Z" fill="#F5C832"></path>
        <path d="M2.57691 16.7314C2.57691 16.7314 2.46731 16.7314 2.41241 16.7314C2.35761 16.7314 2.28911 16.7314 2.28911 16.8236C2.28911 16.9158 2.38501 16.8236 2.45351 16.8236C2.52211 16.8236 2.57691 16.8236 2.57691 16.7314Z" fill="#4EAEC4"></path>
        <path d="M2.3447 16.8637C2.3447 16.7978 2.3447 16.7583 2.4818 16.7451H2.6189C2.6189 16.7451 2.61889 16.8505 2.49549 16.8637H2.3447Z" fill="#4EAEC4"></path>
        <path d="M24.0143 17.6612C22.427 17.6681 20.8944 17.0997 19.7176 16.0678C18.5408 15.0358 17.8049 13.6149 17.6544 12.084C17.6544 12.084 17.5036 12.084 17.4899 12.1504C17.4762 12.2168 17.5721 13.3588 17.4899 13.3057C17.4077 13.2526 16.736 11.4732 16.6264 11.6591C16.5167 11.845 17.3528 13.8501 17.298 13.9165C17.2432 13.9829 16.0918 12.0176 16.0096 12.1637C15.6943 12.7613 17.2843 14.6734 17.2706 14.7531C17.2569 14.8328 16.0644 13.7173 15.8999 13.8501C15.7354 13.9829 17.1609 15.2975 17.2706 15.3905C17.3802 15.4834 16.4619 14.9257 16.4208 15.178C16.3797 15.4303 16.9279 15.7888 17.2432 15.9615C17.5584 16.1341 17.6681 16.081 17.7503 16.227C17.8326 16.3731 17.1609 16.1606 17.1746 16.227C17.1884 16.2934 17.9011 16.4528 18.0108 16.5856C18.1204 16.7184 17.5447 16.5856 17.5721 16.7184C17.5996 16.8511 18.1889 16.9175 18.2027 16.9972C18.2164 17.0769 17.8326 16.9972 17.8463 17.1698C17.86 17.3425 18.4494 17.2761 18.5864 17.369C18.7235 17.462 18.0793 17.369 18.5864 17.6213C19.1806 17.9328 19.8175 18.1608 20.478 18.2985C21.273 18.4579 21.6842 18.2985 21.7116 18.2321C21.739 18.1658 21.3278 18.2321 20.7658 18.2321C20.2101 18.1049 19.6782 17.8943 19.1895 17.608C19.0936 17.608 19.4911 17.4487 19.4089 17.3425C19.3266 17.2362 18.9976 17.3425 18.8743 17.2097C18.7509 17.0769 19.0251 17.1034 19.0251 17.0503C19.0251 16.9972 18.5864 16.891 18.5042 16.7848C18.422 16.6785 18.6961 16.6918 18.7098 16.6254C18.7235 16.559 18.4357 16.4793 18.422 16.4129C18.4083 16.3466 18.7372 16.4129 18.5727 16.2669C18.4083 16.1208 17.9559 16.0677 17.86 15.9083C17.764 15.749 18.2164 15.9084 18.093 15.7888C17.9696 15.6693 17.5996 15.51 17.5173 15.271C17.4351 15.0319 17.8189 15.271 17.8189 15.1515C17.8189 15.0319 17.6133 15.1515 17.531 14.6336C17.531 14.4875 17.8189 14.6336 17.8189 14.6336V14.5672C18.1278 14.7555 18.4013 14.9935 18.6276 15.271C19.0799 15.7756 19.217 16.2669 19.6419 16.5989C19.8612 16.7715 19.8612 16.5325 20.3272 16.8113C20.732 17.0815 21.1167 17.3788 21.4786 17.701C21.9381 17.7137 22.3962 17.758 22.8493 17.8338C23.3564 17.94 23.4524 18.1923 23.4524 18.1923C23.6198 18.105 23.765 17.9825 23.8773 17.8338C23.8773 17.7541 23.9869 17.8338 24.0006 17.8338C24.0143 17.8338 24.0006 17.7143 24.0006 17.7143L24.0143 17.6612Z" fill="#F5C832"></path>
        <path d="M21.1637 18.4576C20.9565 18.4537 20.75 18.4315 20.5469 18.3912C19.8877 18.2493 19.2514 18.0215 18.6554 17.714C18.4909 17.6343 18.4361 17.5944 18.4498 17.5413C18.4635 17.4882 18.4498 17.4749 18.6006 17.4617C18.4912 17.4202 18.3753 17.3977 18.2579 17.3953C18.0386 17.3953 17.8467 17.3953 17.8467 17.2492V17.1828C17.9126 17.157 17.9864 17.157 18.0523 17.1828H18.1757H17.9838C17.7919 17.1828 17.5726 17.0766 17.5314 16.9571C17.4903 16.8375 17.6548 16.8641 17.7919 16.8641C17.9289 16.8641 17.9838 16.8641 17.9975 16.8641C17.9037 16.8154 17.8015 16.7839 17.6959 16.7712C17.4492 16.7712 17.1751 16.6915 17.1476 16.5056C17.1202 16.3197 17.3532 16.4126 17.5177 16.4259H17.8193C17.8193 16.3462 17.8193 16.333 17.6822 16.3064L17.367 16.1736C17.0791 16.001 16.5034 15.5761 16.5308 15.3636C16.5325 15.3513 16.5367 15.3395 16.5431 15.3289C16.5496 15.3182 16.5582 15.3089 16.5684 15.3014C16.5786 15.294 16.5902 15.2886 16.6026 15.2856C16.615 15.2826 16.6279 15.282 16.6405 15.2839C16.8347 15.3229 17.0203 15.3949 17.1888 15.4964L17.4355 15.6026C17.3599 15.5641 17.2906 15.5148 17.2299 15.4565C16.5445 14.8856 15.8592 14.2747 16.0374 14.0357C16.1745 14.0357 16.3801 14.1818 16.6953 14.4606C16.8822 14.6525 17.0997 14.8139 17.3395 14.9387C17.2827 14.8299 17.2138 14.7275 17.1339 14.6333C16.7227 14.0357 15.8455 12.8008 16.0922 12.3493C16.1882 12.3493 16.3115 12.5219 16.6268 13.0398C16.942 13.5577 17.2573 14.0888 17.367 14.0888C17.3209 13.889 17.2566 13.6935 17.1751 13.5046C16.8461 12.6813 16.5857 11.9908 16.6953 11.8314C16.805 11.6721 17.038 12.2165 17.3944 13.0398L17.5863 13.4382C17.5759 13.3366 17.5759 13.2343 17.5863 13.1327C17.5604 12.8678 17.5604 12.601 17.5863 12.336C17.5896 12.3067 17.6041 12.2796 17.6269 12.26C17.6497 12.2404 17.6791 12.2296 17.7096 12.2298H17.7782C17.9285 13.7583 18.6624 15.1774 19.8364 16.209C21.0103 17.2407 22.5395 17.8105 24.1244 17.8069C24.134 17.8231 24.1391 17.8414 24.1391 17.86C24.1391 17.8787 24.134 17.897 24.1244 17.9131C23.9959 18.0813 23.8325 18.2215 23.6447 18.3248C23.5797 18.2198 23.4899 18.1313 23.3827 18.0666C23.2754 18.002 23.1538 17.963 23.0279 17.953C22.6907 17.8769 22.346 17.8368 21.9999 17.8335H21.6572C21.5886 17.8335 21.5475 17.8335 21.5201 17.8335L21.246 17.6077C20.9783 17.3669 20.6893 17.1491 20.3824 16.9571C20.2642 16.8685 20.1206 16.8175 19.9712 16.811H19.889C19.8589 16.8242 19.8261 16.831 19.7931 16.831C19.76 16.831 19.7273 16.8242 19.6971 16.811C19.4691 16.5547 19.2966 16.2567 19.19 15.9346C19.0469 15.7023 18.8865 15.4804 18.7102 15.2706C18.483 15.0027 18.2149 14.7698 17.9152 14.5801V14.6067C17.8468 14.6125 17.778 14.6125 17.7096 14.6067H17.6411C17.6411 14.9121 17.7645 14.9785 17.833 15.0316C17.8572 15.0452 17.8775 15.0645 17.8919 15.0877C17.9063 15.1109 17.9143 15.1373 17.9152 15.1644C17.9152 15.2308 17.8193 15.2308 17.7919 15.2308H17.6137C17.6927 15.4054 17.8337 15.5467 18.0112 15.6292C18.0815 15.6638 18.1425 15.7138 18.1894 15.7752C18.1894 15.7752 18.1894 15.7752 18.1208 15.7752H17.9838C17.9838 15.8948 18.2305 15.9877 18.4087 16.0674C18.4913 16.0852 18.5701 16.1167 18.6417 16.1603C18.6417 16.1603 18.6417 16.1603 18.532 16.1603H18.4361L18.5869 16.2533C18.6828 16.2533 18.7376 16.333 18.7376 16.3728C18.7376 16.4126 18.7376 16.4392 18.6143 16.4525H18.5183C18.6021 16.5339 18.7059 16.5933 18.8199 16.6251C18.9844 16.6251 19.0392 16.7048 19.0529 16.7579C19.0666 16.811 19.0529 16.7579 18.9569 16.8375C18.9422 16.8802 18.9366 16.9254 18.9405 16.9702C18.9443 17.0151 18.9576 17.0587 18.9794 17.0984C19.0011 17.1382 19.0311 17.1732 19.0673 17.2014C19.1035 17.2296 19.1452 17.2504 19.19 17.2625C19.2859 17.2625 19.3819 17.2625 19.423 17.3289C19.423 17.3953 19.327 17.4351 19.2585 17.4749L19.1763 17.5413C19.6804 17.823 20.2257 18.0289 20.7937 18.1522C20.9895 18.1727 21.1872 18.1727 21.383 18.1522H21.7668C21.7668 18.2318 21.5064 18.3381 21.1089 18.3381L21.1637 18.4576ZM17.3944 16.2666C17.3121 16.2666 17.2984 16.2666 17.2847 16.2666C17.271 16.2666 17.5726 16.4657 17.7782 16.5056C17.9838 16.5454 18.066 16.5056 18.1071 16.5985V16.6649C18.1071 16.6649 17.9975 16.6649 17.8467 16.6649H17.6411C17.6411 16.7579 17.8878 16.811 18.0523 16.8508C18.2168 16.8907 18.2716 16.9172 18.2853 16.9571C18.299 16.9969 18.2031 17.0235 18.1208 17.0367C18.062 17.0253 18.0014 17.0253 17.9426 17.0367C17.9426 17.1297 18.1482 17.1562 18.299 17.1695C18.421 17.1805 18.5408 17.2073 18.6554 17.2492C18.6554 17.2492 18.6554 17.2492 18.532 17.2492H18.4224C18.4224 17.2492 18.4224 17.2492 18.6143 17.3687C19.1999 17.6879 19.8335 17.9164 20.4921 18.0459C20.6927 18.064 20.8946 18.064 21.0952 18.0459C21.3041 18.0659 21.5143 18.0242 21.6983 17.9264H21.5749H21.3693C21.1734 17.9469 20.9758 17.9469 20.7799 17.9264C20.2 17.8072 19.6443 17.5964 19.1351 17.3023C19.1351 17.2226 19.1351 17.1961 19.2174 17.1562C19.2707 17.1312 19.3175 17.0949 19.3544 17.05C19.3544 16.9836 19.2311 16.9836 19.1488 16.9836C19.0666 16.9836 18.8884 16.9836 18.8199 16.8907V16.8243C18.8199 16.8243 18.8199 16.8243 18.9295 16.7446C18.9295 16.7446 18.8199 16.7446 18.7376 16.6516C18.6159 16.6262 18.5027 16.5714 18.4087 16.4923V16.7313C18.4087 16.7313 18.4087 16.7313 18.5457 16.6516H18.628C18.594 16.616 18.5517 16.5887 18.5046 16.572C18.4087 16.572 18.3538 16.4923 18.3401 16.4392C18.3264 16.3861 18.4087 16.3595 18.4635 16.3595H18.532L18.2853 16.2533C18.0797 16.1736 17.8467 16.0939 17.7919 15.9744V15.908C17.7919 15.908 17.9015 15.908 17.9563 15.908C17.915 15.8468 17.8584 15.7966 17.7919 15.762C17.6235 15.6691 17.4821 15.5367 17.3807 15.3769C17.3807 15.3769 17.3807 15.3769 17.3807 15.2972C17.4207 15.284 17.464 15.284 17.504 15.2972H17.8193H17.8878C17.8878 15.2972 17.8878 15.2308 17.8193 15.2042C17.7547 15.1517 17.7019 15.0869 17.6642 15.0138C17.6264 14.9407 17.6046 14.8609 17.6 14.7793C17.6 14.7129 17.8878 14.7793 17.8878 14.7793V14.7129C18.2276 14.8801 18.5231 15.121 18.7513 15.4167C18.9238 15.6263 19.0795 15.8483 19.2174 16.0807C19.3597 16.3385 19.5449 16.5718 19.7656 16.7712C19.7892 16.7818 19.815 16.7874 19.841 16.7874C19.8671 16.7874 19.8928 16.7818 19.9164 16.7712H19.9987C20.1572 16.7841 20.309 16.8392 20.4373 16.9305C20.7491 17.1216 21.0427 17.3393 21.3145 17.5812L21.5886 17.8202H21.8628C22.2134 17.824 22.5626 17.8641 22.9045 17.9397C23.4254 18.0459 23.535 18.3115 23.535 18.3115C23.6694 18.2031 23.7932 18.0831 23.9051 17.953C23.9179 17.9471 23.932 17.944 23.9462 17.944C23.9604 17.944 23.9745 17.9471 23.9873 17.953C22.3964 17.9599 20.8603 17.3901 19.681 16.3557C18.5016 15.3213 17.7642 13.8969 17.6137 12.3626C17.6137 12.3626 17.5451 12.3626 17.5451 12.429C17.5193 12.6895 17.5193 12.9519 17.5451 13.2124C17.5451 13.5178 17.5451 13.571 17.5451 13.5842C17.5451 13.5975 17.4081 13.3983 17.2984 13.1327C17.1456 12.7108 16.9383 12.3093 16.6816 11.9377C16.7789 12.4035 16.9402 12.8546 17.1614 13.2788C17.367 13.7967 17.3944 13.8764 17.367 13.8896C17.2299 13.8896 16.9695 13.478 16.572 12.8273C16.4518 12.5797 16.2998 12.3477 16.1196 12.1368C15.9003 12.5618 16.7639 13.7701 17.1888 14.3677C17.367 14.62 17.3944 14.6731 17.3944 14.6997C17.2847 14.6997 17.0654 14.5137 16.7227 14.2216C16.5587 14.0406 16.364 13.8879 16.1471 13.7701C15.9689 13.9959 16.9969 14.8457 17.3258 15.098L17.4766 15.2308C17.4766 15.2308 17.4766 15.2308 17.4766 15.3105C17.3723 15.3137 17.2702 15.2807 17.1888 15.2175C17.021 15.1275 16.8411 15.0604 16.6542 15.0183C16.6542 15.191 17.1202 15.5893 17.4629 15.7752L17.7645 15.908C17.8098 15.9154 17.8529 15.9323 17.8908 15.9575C17.9287 15.9828 17.9604 16.0157 17.9838 16.0541C17.9838 16.2134 17.8467 16.1338 17.7233 16.0541L17.3944 16.2666Z" fill="#F5C832"></path>
        <path d="M26.4406 18.7097C26.3035 18.7097 26.3172 18.7761 26.3172 18.7761C26.3239 18.8387 26.3086 18.9015 26.2737 18.9546C26.2389 19.0076 26.1866 19.0477 26.1253 19.0683C26.0431 19.0683 26.1253 19.1479 26.1253 19.2011H25.7826C25.1326 19.5091 24.4003 19.6158 23.6855 19.5065L23.3565 19.7721C23.2058 19.9048 23.0961 19.9314 23.0687 20.0376C23.0413 20.1439 23.1509 20.2103 23.288 20.2103C23.4062 20.1976 23.5193 20.1566 23.617 20.0907C23.6283 20.1247 23.6502 20.1544 23.6796 20.1758C23.7091 20.1972 23.7446 20.2092 23.7814 20.2103C23.9078 20.1989 24.0321 20.1721 24.1515 20.1306C24.2738 20.1532 24.3993 20.1532 24.5216 20.1306C24.6207 20.1101 24.7142 20.0693 24.7957 20.0111C24.8064 20.0587 24.8318 20.102 24.8685 20.1352C24.9053 20.1684 24.9516 20.19 25.0013 20.197C25.1432 20.1667 25.2751 20.1029 25.3851 20.0111C25.4163 20.048 25.4563 20.0771 25.5017 20.0956C25.5471 20.1141 25.5965 20.1216 25.6456 20.1173C25.7619 20.0835 25.8662 20.0191 25.9471 19.9314C26.0581 19.9688 26.1788 19.9688 26.2898 19.9314C26.4134 19.8896 26.5258 19.8216 26.6187 19.7322C26.6187 19.7322 26.7695 19.8517 26.8929 19.7986C27.0162 19.7455 27.1259 19.5729 27.1259 19.5729C27.3154 19.6447 27.5258 19.6447 27.7153 19.5729C27.8798 19.5065 27.8386 19.2542 27.8386 19.2542C27.8386 19.2542 28.8118 19.387 28.7707 18.7629C28.7707 18.6965 27.1944 18.7629 26.5091 18.6035L26.4406 18.7097Z" fill="#F5C832"></path>
        <path d="M24.9335 20.2772C24.8838 20.2702 24.8374 20.2486 24.8007 20.2154C24.7639 20.1822 24.7386 20.1389 24.7279 20.0913C24.6604 20.1624 24.567 20.2052 24.4675 20.2108C24.338 20.1983 24.2096 20.1761 24.0837 20.1444C23.9799 20.1899 23.8684 20.2169 23.7547 20.2241C23.709 20.2235 23.6646 20.2091 23.6278 20.1829C23.5909 20.1568 23.5634 20.1201 23.5491 20.078C23.513 20.1223 23.4672 20.1583 23.4151 20.1835C23.363 20.2088 23.3058 20.2226 23.2476 20.2241C23.1577 20.2299 23.0691 20.2013 23.0009 20.1444C22.99 20.1238 22.9844 20.1011 22.9844 20.078C22.9844 20.0549 22.99 20.0322 23.0009 20.0116C23.0373 19.9433 23.0948 19.8876 23.1653 19.8523L23.3024 19.7327C23.4669 19.6132 23.6314 19.4672 23.6314 19.4672C23.8276 19.4795 24.0245 19.4795 24.2208 19.4672C24.7442 19.4818 25.263 19.3675 25.7285 19.1352H26.0849C26.0849 19.0555 26.0849 19.0157 26.0849 18.9891C26.1389 18.9676 26.1849 18.9307 26.2167 18.8832C26.2485 18.8358 26.2647 18.7801 26.2631 18.7236C26.2571 18.7135 26.2539 18.702 26.2539 18.6904C26.2539 18.6787 26.2571 18.6673 26.2631 18.6572C26.2756 18.6502 26.2898 18.6465 26.3042 18.6465C26.3186 18.6465 26.3328 18.6502 26.3453 18.6572C26.8672 18.7331 27.3939 18.773 27.9216 18.7767C28.6206 18.7767 28.6755 18.7767 28.6755 18.8563C28.6816 18.916 28.675 18.9762 28.6562 19.0333C28.6373 19.0904 28.6066 19.1432 28.5658 19.1883C28.385 19.3317 28.1547 19.4029 27.9216 19.3875H27.716C27.7413 19.4444 27.7441 19.5083 27.7239 19.5671C27.7036 19.6259 27.6618 19.6754 27.6063 19.7062C27.406 19.77 27.1899 19.77 26.9895 19.7062C26.9895 19.7062 26.921 19.8921 26.7839 19.9319C26.7307 19.9408 26.6761 19.9382 26.624 19.9244C26.572 19.9107 26.5236 19.886 26.4824 19.8523C26.4824 19.8523 26.3453 20.0249 26.1808 20.0647C26.0645 20.0979 25.9408 20.0979 25.8245 20.0647C25.7506 20.1601 25.6434 20.2262 25.5229 20.2506C25.4707 20.2532 25.4186 20.2438 25.3709 20.223C25.3232 20.2022 25.2814 20.1707 25.2488 20.1311C25.1543 20.2386 25.0228 20.3094 24.8787 20.3303L24.9335 20.2772ZM24.6731 20.0514C24.6731 20.0514 24.7553 20.2241 24.8924 20.2241C25.0292 20.1913 25.156 20.1276 25.2625 20.0382C25.2625 20.0382 25.3858 20.1444 25.5092 20.1444C25.6309 20.1117 25.7434 20.0526 25.8382 19.9718C25.9155 19.982 25.9939 19.982 26.0712 19.9718C26.1067 19.9839 26.1454 19.9839 26.1808 19.9718C26.2973 19.9301 26.4044 19.867 26.4961 19.7859C26.5699 19.8192 26.6484 19.8416 26.7291 19.8523C26.8398 19.8147 26.9325 19.7391 26.9895 19.6398C26.9895 19.6398 27.1951 19.6398 27.3733 19.6398C27.4454 19.6562 27.5205 19.6562 27.5926 19.6398C27.7434 19.5734 27.7023 19.3344 27.7023 19.3344C27.7023 19.3344 27.8119 19.3344 27.9353 19.3344C28.1519 19.3551 28.3682 19.2931 28.5384 19.1618C28.576 19.1205 28.604 19.0718 28.6206 19.0191C28.6371 18.9664 28.6418 18.9109 28.6343 18.8563H27.9353C27.4173 18.8512 26.9 18.8157 26.3864 18.7501H26.3179C26.3267 18.8249 26.31 18.9003 26.2704 18.965C26.2308 19.0298 26.1705 19.0802 26.0986 19.1086C26.0986 19.1086 26.0986 19.1086 26.0986 19.175H25.7285C25.0795 19.4865 24.3462 19.5933 23.6314 19.4804C23.5368 19.571 23.436 19.6552 23.3298 19.7327L23.1653 19.9186C23.0831 19.9186 23.042 19.9983 23.0146 20.0647C23.0081 20.0864 23.0081 20.1094 23.0146 20.1311C23.0449 20.1435 23.0775 20.1499 23.1105 20.1499C23.1435 20.1499 23.1761 20.1435 23.2065 20.1311C23.3199 20.1164 23.4281 20.0754 23.5217 20.0116C23.5217 20.0116 23.5217 20.1178 23.6999 20.1178C23.8182 20.1329 23.938 20.1329 24.0563 20.1178C24.1656 20.1289 24.2759 20.1289 24.3852 20.1178C24.4853 20.1181 24.5839 20.0954 24.6731 20.0514Z" fill="#F5C832"></path>
        <path d="M24.3572 18.046C24.6119 17.9601 24.8732 17.8935 25.1385 17.8468C26.0843 17.6609 26.4132 17.714 26.5092 17.6609C27.0014 17.1381 27.6393 16.7645 28.3459 16.5853C28.7845 16.2401 28.9216 15.7355 29.3739 15.2574C29.8262 14.7794 30.1552 14.6068 30.1552 14.6068V14.7263C30.1552 14.7263 30.4019 14.5536 30.3882 14.7263C30.3745 14.8989 30.1689 15.1778 30.1826 15.3238C30.1963 15.4699 30.5116 15.3238 30.4842 15.3238C30.4567 15.3238 30.1415 15.7089 30.073 15.8019C30.0044 15.8948 30.3745 15.8019 30.2923 15.9081C30.21 16.0143 29.7851 16.2401 29.6206 16.333C29.4562 16.426 29.7303 16.3994 29.7029 16.4658C29.6755 16.5322 29.2643 16.7048 29.2643 16.7579C29.2643 16.8111 29.3739 16.8243 29.3328 16.8774C29.2917 16.9306 28.8805 16.997 28.8805 17.0501C28.8805 17.1032 28.949 17.1696 28.8805 17.2758C28.8119 17.382 28.6612 17.2758 28.6063 17.3953C28.5515 17.5148 28.8119 17.6078 28.6063 17.6343C28.4014 17.6805 28.2065 17.7614 28.0306 17.8734C28.0306 17.8734 27.6469 17.9796 27.4687 18.0327C27.2905 18.0858 26.6737 18.1389 26.7011 18.1921C27.1607 18.2456 27.6268 18.2095 28.0718 18.0858C28.4814 18.0205 28.8848 17.9228 29.278 17.7937C29.9633 17.5812 29.0998 17.5679 29.278 17.475C29.4562 17.382 30.0044 17.475 30.0318 17.3024C30.0592 17.1297 29.7029 17.1961 29.7029 17.1165C29.7029 17.0368 30.4293 17.0368 30.4705 16.8509C30.5116 16.665 30.073 16.8509 30.1689 16.7048C30.2649 16.5588 30.8405 16.5455 30.8679 16.3065C30.8954 16.0674 30.4019 16.3065 30.4567 16.2135C30.5116 16.1206 30.6761 16.1206 30.8679 15.9878C31.0598 15.855 31.6492 15.43 31.6218 15.2441C31.5944 15.0582 30.6349 15.8019 30.7172 15.4964C30.7994 15.191 32.2797 14.1686 32.0879 13.9163C31.896 13.664 30.8131 14.9918 30.7172 14.7395C30.6212 14.4873 32.4305 12.7743 32.0879 12.19C32.0056 12.0307 30.7172 14.4341 30.539 14.235C30.3608 14.0358 31.6355 11.858 31.4573 11.5792C31.2792 11.3003 31.1832 11.8448 30.9913 12.2697C30.7994 12.6946 30.5801 13.1594 30.5253 13.2258C30.4705 13.2922 30.5253 12.3228 30.5253 12.0174C30.5253 11.712 30.3608 11.951 30.3608 11.951C30.1679 13.3338 29.5239 14.6207 28.5228 15.624C27.5217 16.6273 26.2159 17.2944 24.7958 17.5281C24.179 17.6078 23.9871 17.8999 23.3018 18.2717C23.0825 18.3912 22.7261 18.4444 22.4246 18.617C22.1765 18.7532 21.9651 18.9443 21.8078 19.1747C21.7891 19.232 21.787 19.2932 21.8015 19.3517C21.8159 19.4102 21.8465 19.4637 21.89 19.5067C21.9585 19.5067 21.89 19.334 22.0134 19.2942C22.1367 19.2544 22.0819 19.3739 22.1778 19.2942C22.2438 19.2843 22.3055 19.2567 22.356 19.2145H24.7547C24.9133 19.2016 25.0651 19.1464 25.1933 19.0552C25.1933 18.9755 24.9603 19.0552 24.837 19.0552C24.3435 19.0552 23.6719 19.0552 23.1921 19.0552C23.1819 19.0554 23.1717 19.0533 23.1623 19.0492C23.153 19.0451 23.1447 19.039 23.1381 19.0313C23.1315 19.0237 23.1268 19.0147 23.1243 19.005C23.1218 18.9953 23.1216 18.9853 23.1236 18.9755C23.2138 18.8523 23.3147 18.7368 23.4252 18.6303H23.1921C23.1251 18.6704 23.0506 18.6975 22.9728 18.7099C22.9043 18.7099 22.8769 18.7099 22.9043 18.7099C23.3652 18.4293 23.8462 18.1808 24.3435 17.9663L24.3572 18.046Z" fill="#F5C832"></path>
        <path d="M21.9313 19.6531C21.9313 19.6531 21.849 19.5468 21.8353 19.5203C21.814 19.451 21.814 19.3771 21.8353 19.3078C21.9923 19.0654 22.2089 18.8647 22.4658 18.7235L22.9593 18.5243C23.0908 18.4851 23.2191 18.4362 23.3431 18.3783C23.528 18.2782 23.7065 18.1673 23.8776 18.0463C24.1602 17.8305 24.4954 17.6887 24.8508 17.6347C26.2554 17.3949 27.5444 16.7274 28.5304 15.7292C29.5164 14.7309 30.1481 13.454 30.3335 12.0841C30.3511 12.07 30.3721 12.0604 30.3945 12.0561C30.4169 12.0519 30.44 12.0531 30.4618 12.0597C30.4836 12.0663 30.5033 12.078 30.5192 12.0939C30.5351 12.1098 30.5467 12.1292 30.5529 12.1505C30.5727 12.4157 30.5727 12.682 30.5529 12.9472C30.5529 13.1331 30.5529 13.319 30.5529 13.3456C30.5529 13.3722 30.7447 12.8941 30.9092 12.5223L30.9778 12.3895C31.2108 11.8982 31.3341 11.6592 31.4438 11.6592C31.5672 11.8185 31.2245 12.6418 30.7996 13.6245C30.6914 13.8327 30.6042 14.0506 30.5391 14.2751C30.9282 13.922 31.2608 13.5147 31.526 13.0667C31.9098 12.4559 32.0606 12.2302 32.1291 12.2302C32.417 12.7215 31.4712 13.9299 31.0052 14.5274C30.9215 14.6169 30.848 14.7148 30.7859 14.8195C30.9698 14.7159 31.1401 14.5911 31.293 14.4477C31.5672 14.2087 31.855 13.9564 32.0058 13.9564C32.184 14.1556 31.6083 14.7 31.0189 15.2843C30.9044 15.3717 30.7989 15.4696 30.7036 15.5764C30.7722 15.5764 30.9229 15.5764 31.0737 15.4569C31.2245 15.3374 31.5946 15.1781 31.6083 15.3109C31.622 15.4437 31.3753 15.7358 30.8407 16.0943C30.7537 16.1504 30.662 16.1992 30.5666 16.2404C30.5195 16.2571 30.4772 16.2844 30.4432 16.3201H30.5803C30.6899 16.3201 30.7996 16.3201 30.827 16.3201C30.827 16.4794 30.5803 16.5591 30.3884 16.6122C30.1965 16.6653 30.1554 16.6122 30.1279 16.7317C30.1005 16.8512 30.1279 16.7317 30.2376 16.7317C30.3009 16.7188 30.3662 16.7188 30.4295 16.7317C30.4295 16.9043 30.1417 16.9574 29.9086 16.984H29.6619H29.7716C29.8675 16.984 30.0046 16.984 29.9909 17.1433C29.9772 17.3027 29.7853 17.2496 29.566 17.2761C29.4522 17.2623 29.3371 17.2623 29.2233 17.2761H29.3329C29.4426 17.2761 29.5386 17.2761 29.5386 17.3956C29.5386 17.5152 29.5386 17.4886 29.2507 17.5683C28.8507 17.6899 28.4433 17.7874 28.0308 17.8604C27.6472 17.9374 27.2573 17.9819 26.8657 17.9932C26.715 17.9932 26.6738 17.9932 26.6601 17.9932C26.6464 17.9932 26.7972 17.9002 27.2084 17.8338H27.4414H27.647C27.7678 17.8104 27.8868 17.7794 28.0034 17.7409C28.1789 17.6254 28.3737 17.5401 28.5791 17.4886C28.5791 17.4886 28.5791 17.4222 28.5791 17.3956C28.5791 17.3691 28.4968 17.316 28.5791 17.2629C28.6613 17.2097 28.5791 17.1965 28.675 17.1965C28.6942 17.2058 28.7153 17.2107 28.7367 17.2107C28.7581 17.2107 28.7793 17.2058 28.7984 17.1965C28.8108 17.1788 28.8174 17.158 28.8174 17.1367C28.8174 17.1154 28.8108 17.0946 28.7984 17.077C28.792 17.0508 28.792 17.0235 28.7984 16.9973C28.7984 16.9973 28.8669 16.9309 28.9903 16.9043C29.085 16.9005 29.1761 16.868 29.2507 16.8114C29.2507 16.8114 29.1822 16.8114 29.1822 16.7051C29.1822 16.5989 29.1822 16.6255 29.4015 16.5458C29.6208 16.4661 29.6208 16.4396 29.6208 16.413H29.5523L29.7442 16.3068C29.9211 16.2463 30.0807 16.1462 30.2102 16.0146C30.2017 15.9829 30.1824 15.9548 30.1554 15.935H30.0731H30.0046C29.9986 15.9087 29.9986 15.8815 30.0046 15.8553L30.1279 15.7491C30.2599 15.6556 30.3601 15.5262 30.4158 15.3773H30.3198C30.1965 15.3773 30.1142 15.3773 30.1142 15.3773C30.1227 15.2741 30.1556 15.1741 30.2102 15.0851C30.2589 14.9832 30.2957 14.8763 30.3198 14.7664C30.3198 14.7664 30.1691 14.7664 30.1279 14.7664L30.032 14.6469C29.7687 14.7885 29.536 14.9778 29.3467 15.2046C29.1672 15.4121 29.0067 15.6342 28.8669 15.8686C28.727 16.1353 28.5363 16.3741 28.3049 16.5724L28.0171 16.6919C27.415 16.856 26.8762 17.1886 26.4682 17.6479C26.4682 17.6479 26.3723 17.6479 26.2352 17.6479C25.8616 17.6672 25.4903 17.716 25.125 17.794C24.8596 17.8407 24.5984 17.9073 24.3437 17.9932C23.8472 18.2044 23.3663 18.4484 22.9045 18.7235C22.9956 18.7227 23.0851 18.6999 23.1649 18.6571H23.4116C23.3282 18.7864 23.2366 18.9106 23.1375 19.0289V19.1086C23.6172 19.1086 24.2889 19.1086 24.796 19.1086H24.8782C24.9879 19.1086 25.125 19.1086 25.1524 19.1086C25.0299 19.22 24.868 19.2818 24.7001 19.2812C23.9873 19.2812 22.3425 19.2812 22.3014 19.2812C22.2508 19.3234 22.1891 19.351 22.1232 19.3609C22.1086 19.3691 22.092 19.3734 22.0752 19.3734C22.0584 19.3734 22.0418 19.3691 22.0272 19.3609C22.0011 19.3631 21.9764 19.3733 21.9567 19.39C21.937 19.4067 21.9233 19.4291 21.9176 19.4539V19.5468L21.9313 19.6531ZM30.4569 12.0974C30.2632 13.4821 29.6172 14.7704 28.6134 15.7739C27.6097 16.7774 26.3008 17.4434 24.8782 17.6745C24.533 17.7267 24.2074 17.8639 23.9325 18.0729C23.7614 18.1939 23.5828 18.3047 23.3979 18.4048C23.277 18.4693 23.148 18.5184 23.0141 18.5509C22.8437 18.608 22.6786 18.6791 22.5207 18.7634C22.2772 18.895 22.0703 19.0818 21.9176 19.3078C21.9032 19.3344 21.8956 19.364 21.8956 19.3941C21.8956 19.4242 21.9032 19.4538 21.9176 19.4804C21.9334 19.5237 21.9565 19.5641 21.9861 19.5999C21.9861 19.5999 21.9861 19.5999 21.9861 19.5203C21.9861 19.4406 21.9861 19.414 22.0683 19.3875C22.1506 19.3609 22.1506 19.3875 22.1643 19.3875C22.175 19.3922 22.1867 19.3947 22.1986 19.3947C22.2104 19.3947 22.2221 19.3922 22.2328 19.3875C22.2885 19.3794 22.3407 19.3564 22.3836 19.3211C22.3836 19.3211 24.0832 19.3211 24.8097 19.3211C24.9585 19.3242 25.1038 19.2772 25.2209 19.1883H24.8919C24.3848 19.1883 23.7269 19.1883 23.2471 19.1883C23.2249 19.1954 23.2009 19.1954 23.1786 19.1883C23.1679 19.1627 23.1679 19.1342 23.1786 19.1086C23.2736 18.9811 23.379 18.8612 23.4939 18.7501H23.2745C23.2115 18.7884 23.1419 18.8154 23.0689 18.8298C23.0004 18.8298 22.9593 18.8298 22.9593 18.8298C23.418 18.5375 23.9045 18.2885 24.4122 18.0861C24.665 17.9912 24.9266 17.92 25.1935 17.8737C25.5633 17.7925 25.9391 17.7393 26.3175 17.7143H26.5231C26.9293 17.2412 27.4741 16.8985 28.0856 16.7317L28.3598 16.6255C28.5825 16.4278 28.768 16.1942 28.908 15.935C29.0478 15.7006 29.2083 15.4785 29.3878 15.271C29.8401 14.7532 30.1142 14.7 30.1279 14.7L30.2102 14.8328C30.2102 14.8328 30.3198 14.7266 30.3747 14.7266H30.4432C30.423 14.8477 30.3812 14.9645 30.3198 15.0718C30.2776 15.1507 30.2498 15.2361 30.2376 15.3241H30.4706H30.5391C30.4882 15.5005 30.3771 15.655 30.2239 15.7623L30.1554 15.935H30.3198V16.0014C30.3198 16.1209 30.032 16.2404 29.8401 16.3333L29.6482 16.4263C29.6482 16.4263 29.7716 16.506 29.7442 16.5591C29.7167 16.6122 29.6619 16.652 29.4837 16.7317C29.4172 16.7544 29.3564 16.7906 29.3055 16.8379C29.2689 16.8828 29.2233 16.92 29.1715 16.9474C29.1197 16.9748 29.0627 16.9917 29.004 16.9973H28.8395C28.8395 17.0902 28.8395 17.1433 28.8395 17.223C28.8222 17.2495 28.7977 17.271 28.7687 17.285C28.7397 17.299 28.7073 17.3052 28.675 17.3027C28.6695 17.329 28.6695 17.3561 28.675 17.3824C28.675 17.3824 28.7436 17.4753 28.675 17.5152C28.6065 17.555 28.675 17.5152 28.6065 17.5152C28.4077 17.5545 28.2205 17.6362 28.0582 17.7542L27.6744 17.8604H27.4688H27.2358L26.7424 17.9401C27.1803 17.9707 27.6203 17.9303 28.0445 17.8206C28.4538 17.7537 28.8571 17.6561 29.2507 17.5284C29.4974 17.4488 29.4974 17.4089 29.4974 17.4089C29.4974 17.4089 29.3741 17.4089 29.3192 17.4089C29.2644 17.4089 29.1822 17.4089 29.1685 17.3293C29.2955 17.3079 29.4253 17.3079 29.5523 17.3293C29.6893 17.3293 29.9086 17.3293 29.9223 17.2363C29.936 17.1433 29.8538 17.1699 29.7442 17.1433C29.6345 17.1168 29.5934 17.1433 29.5934 17.0637C29.5934 16.984 29.6893 17.0637 29.8812 16.9707C30.0731 16.8778 30.3473 16.891 30.3747 16.7981C30.4021 16.7051 30.2787 16.7981 30.2239 16.7981C30.1691 16.7981 30.0594 16.7981 30.0457 16.7981V16.7184C30.1333 16.6531 30.2375 16.6118 30.3473 16.5989C30.5254 16.5989 30.731 16.4661 30.7448 16.3466C30.7585 16.2271 30.6351 16.3466 30.5254 16.3466C30.4158 16.3466 30.3747 16.3466 30.3473 16.3466C30.3544 16.314 30.3712 16.2841 30.3955 16.2606C30.4198 16.237 30.4507 16.2208 30.4843 16.2138C30.5798 16.1727 30.6715 16.1238 30.7585 16.0678C31.4301 15.6163 31.5123 15.4171 31.4986 15.3374C31.4849 15.2578 31.1971 15.4171 31.0463 15.51C30.9251 15.5895 30.7906 15.6479 30.6488 15.6827C30.6415 15.6682 30.6378 15.6523 30.6378 15.6362C30.6378 15.6201 30.6415 15.6042 30.6488 15.5897C30.7495 15.4751 30.8595 15.3686 30.9778 15.271C31.389 14.8992 32.1291 14.2353 31.9647 14.0494C31.8002 13.8635 31.5123 14.3017 31.2656 14.5141C31.0189 14.7266 30.7996 14.9125 30.7173 14.9125V14.8461C30.7173 14.8461 30.7173 14.7797 30.9504 14.5141C31.4027 13.9431 32.321 12.7348 32.1154 12.3098C31.9103 12.5678 31.7226 12.8384 31.5535 13.1199C31.0737 13.8767 30.7448 14.3681 30.6077 14.3681C30.4706 14.3681 30.6077 14.2751 30.8133 13.651C31.1352 13.0512 31.3573 12.4058 31.4712 11.7389C31.389 11.7389 31.1834 12.1372 31.0463 12.4294V12.5754C30.8681 12.9738 30.6899 13.3456 30.6488 13.3987C30.6077 13.4518 30.5803 13.3323 30.6488 12.9738C30.6687 12.713 30.6687 12.4511 30.6488 12.1903C30.6488 12.1903 30.6488 12.1239 30.5803 12.1239L30.4569 12.0974Z" fill="#F5C832"></path>
        <path d="M22.699 19.0422C22.699 19.0422 22.6168 19.0422 22.5619 19.0422C22.5071 19.0422 22.4523 19.0422 22.466 19.1081C22.4797 19.1739 22.5482 19.1081 22.6031 19.1081C22.6579 19.1081 22.699 19.1081 22.699 19.0422Z" fill="#4EAEC4"></path>
        <path d="M22.5068 19.1606C22.5068 19.1606 22.5068 19.0815 22.6165 19.0684H22.7261C22.7261 19.0684 22.7261 19.1474 22.6028 19.1606H22.5068Z" fill="#4EAEC4"></path>
        <path d="M24.8373 7.22436C24.8743 7.23652 24.9136 7.24046 24.9524 7.23589C24.9912 7.23132 25.0284 7.21835 25.0613 7.19794C25.0942 7.17754 25.122 7.15022 25.1425 7.11801C25.1631 7.08581 25.1758 7.04954 25.1799 7.0119C25.2043 6.61831 25.2043 6.22366 25.1799 5.83008C24.9881 6.17811 24.8187 6.53733 24.6728 6.90567C24.6626 6.94069 24.6604 6.97743 24.6663 7.01337C24.6722 7.0493 24.686 7.08358 24.7068 7.11385C24.7277 7.14412 24.755 7.16967 24.787 7.18875C24.819 7.20782 24.8548 7.21997 24.8921 7.22436H24.8373Z" fill="#F5C832"></path>
        <path d="M25.5905 7.44996C25.625 7.46707 25.6631 7.47649 25.7019 7.47751C25.7407 7.47853 25.7793 7.47113 25.8148 7.45586C25.8503 7.44058 25.8818 7.41781 25.907 7.38922C25.9322 7.36063 25.9505 7.32694 25.9606 7.29061C25.9606 7.11798 26.1525 6.12207 26.1525 6.12207C25.8915 6.43157 25.649 6.75522 25.426 7.09143C25.4083 7.12492 25.3986 7.16181 25.3976 7.19941C25.3965 7.237 25.4041 7.27435 25.4199 7.30872C25.4357 7.34309 25.4592 7.37361 25.4887 7.39805C25.5182 7.42249 25.553 7.44022 25.5905 7.44996Z" fill="#F5C832"></path>
        <path d="M26.2622 7.80819C26.2932 7.83174 26.3292 7.8482 26.3677 7.85631C26.4061 7.86443 26.446 7.864 26.4842 7.85506C26.5225 7.84611 26.5581 7.82888 26.5885 7.80466C26.6189 7.78045 26.6433 7.74987 26.6597 7.71524C26.8217 7.36459 26.9636 7.00551 27.0846 6.63965C26.7689 6.88965 26.4712 7.16028 26.1937 7.44966C26.1684 7.4779 26.1498 7.51124 26.1395 7.54726C26.1291 7.58328 26.1271 7.62109 26.1337 7.65795C26.1402 7.6948 26.1552 7.72979 26.1774 7.76036C26.1996 7.79094 26.2286 7.81635 26.2622 7.83475V7.80819Z" fill="#F5C832"></path>
        <path d="M26.8662 8.27287C26.8891 8.30306 26.919 8.32761 26.9535 8.34453C26.9881 8.36145 27.0262 8.37026 27.0649 8.37026C27.1036 8.37026 27.1417 8.36145 27.1763 8.34453C27.2108 8.32761 27.2407 8.30306 27.2637 8.27287C27.4994 7.94945 27.7145 7.61243 27.9079 7.26367C27.5479 7.45102 27.2 7.65944 26.8662 7.88778C26.835 7.90999 26.8097 7.93899 26.7922 7.97243C26.7747 8.00588 26.7656 8.04284 26.7656 8.08032C26.7656 8.1178 26.7747 8.15476 26.7922 8.18821C26.8097 8.22166 26.835 8.25066 26.8662 8.27287Z" fill="#F5C832"></path>
        <path d="M27.4139 8.85727C27.4371 8.88499 27.4663 8.90735 27.4995 8.92272C27.5327 8.93808 27.569 8.94605 27.6058 8.94605C27.6426 8.94605 27.6789 8.93808 27.7122 8.92272C27.7454 8.90735 27.7746 8.88499 27.7977 8.85727C28.0964 8.58837 28.3758 8.29999 28.6338 7.99414C28.2469 8.11044 27.8671 8.24788 27.4962 8.40579C27.4594 8.42087 27.427 8.44437 27.4017 8.47427C27.3764 8.50417 27.3589 8.53957 27.3508 8.57744C27.3427 8.61531 27.3442 8.65451 27.3552 8.69168C27.3662 8.72886 27.3864 8.7629 27.4139 8.79087V8.85727Z" fill="#F5C832"></path>
        <path d="M27.7154 9.5083C27.7275 9.54333 27.7469 9.57554 27.7725 9.60288C27.7981 9.63021 27.8293 9.65208 27.8642 9.66707C27.899 9.68207 27.9367 9.68986 27.9748 9.68996C28.0129 9.69006 28.0506 9.68246 28.0855 9.66765C28.4325 9.45164 28.7666 9.21666 29.0861 8.96387C29.0861 8.96387 28.0718 9.08338 27.8799 9.14977C27.8437 9.16144 27.8105 9.18028 27.7823 9.20509C27.7541 9.2299 27.7315 9.26014 27.716 9.29388C27.7005 9.32762 27.6925 9.36411 27.6924 9.40103C27.6923 9.43795 27.7001 9.47448 27.7154 9.5083Z" fill="#F5C832"></path>
        <path d="M27.9484 10.2378C27.9529 10.2739 27.9655 10.3087 27.9851 10.3397C28.0048 10.3706 28.0312 10.3971 28.0624 10.4173C28.0937 10.4375 28.1291 10.4509 28.1662 10.4566C28.2033 10.4623 28.2412 10.4601 28.2773 10.4503C28.6572 10.3082 29.028 10.1441 29.3876 9.95897C28.9814 9.93425 28.5739 9.93425 28.1677 9.95897C28.1288 9.96294 28.0914 9.97532 28.0582 9.99522C28.0249 10.0151 27.9967 10.042 27.9756 10.0739C27.9546 10.1058 27.9412 10.1418 27.9365 10.1794C27.9318 10.217 27.9358 10.2551 27.9484 10.2909V10.2378Z" fill="#F5C832"></path>
        <path d="M28.0172 10.9816C28.015 11.0182 28.0211 11.0548 28.035 11.0889C28.0489 11.123 28.0702 11.1537 28.0976 11.179C28.125 11.2043 28.1578 11.2235 28.1936 11.2353C28.2294 11.247 28.2675 11.2511 28.3051 11.2472C28.7075 11.1808 29.1057 11.0921 29.4976 10.9816C29.1062 10.8657 28.708 10.7726 28.3051 10.7027C28.2662 10.6985 28.2269 10.7028 28.19 10.7153C28.1531 10.7279 28.1196 10.7483 28.0919 10.7751C28.0643 10.8019 28.0432 10.8343 28.0303 10.8701C28.0173 10.9058 28.0129 10.944 28.0172 10.9816Z" fill="#F5C832"></path>
        <path d="M27.9488 11.7252C27.936 11.7603 27.9317 11.7977 27.9364 11.8347C27.9412 11.8716 27.9547 11.9069 27.976 11.9378C27.9973 11.9688 28.0258 11.9945 28.0591 12.0129C28.0925 12.0313 28.1298 12.0419 28.1681 12.0439C28.5744 12.0675 28.9818 12.0675 29.388 12.0439C29.388 12.0439 28.4834 11.5924 28.2778 11.5393C28.2406 11.5294 28.2016 11.5276 28.1636 11.5341C28.1256 11.5405 28.0896 11.5551 28.0581 11.5767C28.0266 11.5983 28.0005 11.6264 27.9816 11.659C27.9627 11.6916 27.9515 11.7278 27.9488 11.7651V11.7252Z" fill="#F5C832"></path>
        <path d="M27.7151 12.4429C27.6974 12.4763 27.6877 12.5132 27.6866 12.5508C27.6856 12.5884 27.6932 12.6258 27.709 12.6601C27.7247 12.6945 27.7482 12.725 27.7777 12.7495C27.8073 12.7739 27.842 12.7916 27.8795 12.8014C28.2771 12.8881 28.68 12.9502 29.0857 12.9873C28.7663 12.7345 28.4322 12.4995 28.0851 12.2835C28.0506 12.2664 28.0125 12.257 27.9737 12.256C27.9349 12.2549 27.8963 12.2623 27.8608 12.2776C27.8254 12.2929 27.7939 12.3156 27.7686 12.3442C27.7434 12.3728 27.7251 12.4065 27.7151 12.4429Z" fill="#F5C832"></path>
        <path d="M27.414 13.1069C27.3892 13.1361 27.3715 13.1702 27.3621 13.2068C27.3528 13.2434 27.352 13.2816 27.3599 13.3186C27.3678 13.3555 27.3841 13.3903 27.4077 13.4203C27.4313 13.4503 27.4616 13.4748 27.4962 13.492C27.6607 13.585 28.6339 13.8904 28.6339 13.8904C28.3758 13.5845 28.0965 13.2962 27.7978 13.0273C27.7689 13.0033 27.7348 12.9861 27.698 12.9771C27.6611 12.968 27.6227 12.9673 27.5855 12.975C27.5484 12.9827 27.5136 12.9987 27.4838 13.0215C27.4541 13.0444 27.4302 13.0736 27.414 13.1069Z" fill="#F5C832"></path>
        <path d="M26.8652 13.6772C26.8339 13.7007 26.8086 13.7309 26.7911 13.7655C26.7737 13.8 26.7646 13.8379 26.7646 13.8763C26.7646 13.9148 26.7737 13.9527 26.7911 13.9872C26.8086 14.0217 26.8339 14.0519 26.8652 14.0755C27.016 14.2083 27.9069 14.6863 27.9069 14.6863C27.7136 14.3376 27.4984 14.0006 27.2627 13.6772C27.2383 13.6492 27.2078 13.6267 27.1735 13.6113C27.1392 13.5959 27.1018 13.5879 27.064 13.5879C27.0261 13.5879 26.9888 13.5959 26.9544 13.6113C26.9201 13.6267 26.8897 13.6492 26.8652 13.6772Z" fill="#F5C832"></path>
        <path d="M26.2622 14.1559C26.2286 14.1743 26.1996 14.1997 26.1774 14.2303C26.1552 14.2609 26.1402 14.2959 26.1337 14.3327C26.1271 14.3696 26.1291 14.4074 26.1395 14.4434C26.1498 14.4794 26.1684 14.5128 26.1937 14.541C26.4744 14.8232 26.7719 15.0892 27.0846 15.3378C26.9646 14.9629 26.8227 14.5949 26.6597 14.2356C26.6441 14.2 26.6199 14.1686 26.589 14.1441C26.5582 14.1195 26.5216 14.1026 26.4825 14.0948C26.4434 14.087 26.403 14.0884 26.3646 14.0991C26.3262 14.1097 26.2911 14.1292 26.2622 14.1559Z" fill="#F5C832"></path>
        <path d="M25.5905 14.5138C25.553 14.5235 25.5182 14.5413 25.4887 14.5657C25.4592 14.5901 25.4357 14.6206 25.4199 14.655C25.4041 14.6894 25.3965 14.7267 25.3976 14.7643C25.3986 14.8019 25.4083 14.8388 25.426 14.8723C25.6485 15.2046 25.8911 15.5238 26.1525 15.8284C26.1525 15.8284 26.0291 14.8458 25.9606 14.6598C25.949 14.6247 25.9295 14.5924 25.9036 14.5653C25.8778 14.5382 25.8461 14.517 25.8108 14.503C25.7755 14.4891 25.7374 14.4828 25.6994 14.4847C25.6613 14.4866 25.6241 14.4965 25.5905 14.5138Z" fill="#F5C832"></path>
        <path d="M21.9308 14.1553C21.9008 14.1313 21.8655 14.1141 21.8277 14.1051C21.7899 14.096 21.7505 14.0952 21.7124 14.1029C21.6742 14.1105 21.6383 14.1264 21.6073 14.1492C21.5764 14.1721 21.5511 14.2014 21.5333 14.235C21.3643 14.5919 21.2223 14.9602 21.1084 15.3371C21.3958 15.1081 21.6704 14.8643 21.9308 14.6068C21.9597 14.5831 21.9829 14.5536 21.9988 14.5204C22.0147 14.4871 22.0229 14.4509 22.0229 14.4142C22.0229 14.3776 22.0147 14.3414 21.9988 14.3081C21.9829 14.2749 21.9597 14.2454 21.9308 14.2217V14.1553Z" fill="#F5C832"></path>
        <path d="M21.2868 13.6772C21.2624 13.6492 21.2319 13.6267 21.1976 13.6113C21.1633 13.5959 21.1259 13.5879 21.0881 13.5879C21.0503 13.5879 21.0129 13.5959 20.9786 13.6113C20.9442 13.6267 20.9138 13.6492 20.8893 13.6772C20.6536 14.0006 20.4385 14.3376 20.2451 14.6863C20.2451 14.6863 21.1361 14.2083 21.2868 14.0755C21.3181 14.0519 21.3435 14.0217 21.3609 13.9872C21.3784 13.9527 21.3874 13.9148 21.3874 13.8763C21.3874 13.8379 21.3784 13.8 21.3609 13.7655C21.3435 13.7309 21.3181 13.7007 21.2868 13.6772Z" fill="#F5C832"></path>
        <path d="M20.7931 13.1061C20.7754 13.0725 20.7501 13.0432 20.7191 13.0203C20.6881 12.9975 20.6522 12.9816 20.6141 12.974C20.576 12.9663 20.5365 12.9671 20.4987 12.9761C20.4609 12.9852 20.4257 13.0024 20.3957 13.0264C20.1044 13.2984 19.8298 13.5866 19.5732 13.8895C19.5732 13.8895 20.5464 13.5841 20.7109 13.4912C20.7456 13.474 20.7758 13.4494 20.7994 13.4194C20.823 13.3894 20.8394 13.3546 20.8472 13.3177C20.8551 13.2807 20.8544 13.2426 20.845 13.2059C20.8356 13.1693 20.8179 13.1352 20.7931 13.1061Z" fill="#F5C832"></path>
        <path d="M20.4371 12.4429C20.4253 12.4062 20.4055 12.3723 20.3789 12.3437C20.3524 12.3151 20.3197 12.2925 20.2832 12.2773C20.2467 12.2622 20.2072 12.2549 20.1675 12.256C20.1278 12.257 20.0889 12.2665 20.0533 12.2836C19.7103 12.4991 19.3808 12.7341 19.0664 12.9873C19.4721 12.9503 19.875 12.8882 20.2726 12.8014C20.3101 12.7917 20.3449 12.774 20.3744 12.7495C20.4039 12.7251 20.4274 12.6946 20.4432 12.6602C20.4589 12.6258 20.4666 12.5885 20.4655 12.5509C20.4645 12.5133 20.4548 12.4764 20.4371 12.4429Z" fill="#F5C832"></path>
        <path d="M20.2039 11.7251C20.2017 11.6863 20.1903 11.6485 20.1706 11.6147C20.1509 11.5808 20.1234 11.5518 20.0902 11.53C20.0571 11.5081 20.0192 11.494 19.9794 11.4887C19.9397 11.4834 19.8992 11.487 19.8612 11.4994C19.6693 11.4994 18.7646 12.004 18.7646 12.004C19.1709 12.0276 19.5783 12.0276 19.9846 12.004C20.0229 12.002 20.0602 11.9913 20.0936 11.9729C20.1269 11.9545 20.1554 11.9288 20.1767 11.8979C20.198 11.8669 20.2115 11.8316 20.2162 11.7947C20.2209 11.7578 20.2167 11.7203 20.2039 11.6853V11.7251Z" fill="#F5C832"></path>
        <path d="M20.1356 10.9816C20.14 10.944 20.1355 10.9058 20.1226 10.8701C20.1097 10.8343 20.0886 10.8019 20.061 10.7751C20.0333 10.7483 19.9998 10.7279 19.9629 10.7153C19.926 10.7028 19.8866 10.6985 19.8478 10.7027C19.4449 10.7726 19.0467 10.8657 18.6553 10.9816C19.0472 11.0921 19.4454 11.1808 19.8478 11.2472C19.8854 11.2511 19.9234 11.247 19.9593 11.2353C19.9951 11.2235 20.0278 11.2043 20.0552 11.179C20.0826 11.1537 20.104 11.123 20.1179 11.0889C20.1318 11.0548 20.1378 11.0182 20.1356 10.9816Z" fill="#F5C832"></path>
        <path d="M20.2039 10.2382C20.2164 10.2024 20.2205 10.1642 20.2158 10.1267C20.211 10.0891 20.1977 10.053 20.1766 10.0211C20.1555 9.98925 20.1273 9.96237 20.0941 9.94248C20.0608 9.92259 20.0234 9.9102 19.9846 9.90623C19.5783 9.88152 19.1709 9.88152 18.7646 9.90623C19.1207 10.0892 19.4867 10.2532 19.8612 10.3975C19.8982 10.4097 19.9375 10.4137 19.9763 10.4091C20.0151 10.4045 20.0523 10.3915 20.0853 10.3711C20.1182 10.3507 20.1459 10.3234 20.1664 10.2912C20.187 10.259 20.1998 10.2227 20.2039 10.1851V10.2382Z" fill="#F5C832"></path>
        <path d="M20.4371 9.5083C20.4524 9.47448 20.4602 9.43795 20.4601 9.40103C20.46 9.36411 20.452 9.32762 20.4365 9.29388C20.421 9.26014 20.3984 9.2299 20.3702 9.20509C20.342 9.18028 20.3088 9.16144 20.2726 9.14977C20.0807 9.14977 19.0664 8.96387 19.0664 8.96387C19.3808 9.21709 19.7103 9.45209 20.0533 9.66765C20.0889 9.68476 20.1278 9.69417 20.1675 9.69525C20.2072 9.69633 20.2467 9.68903 20.2832 9.67388C20.3197 9.65873 20.3524 9.63607 20.3789 9.60748C20.4055 9.57889 20.4253 9.54505 20.4371 9.5083Z" fill="#F5C832"></path>
        <path d="M20.7931 8.85728C20.8207 8.8293 20.8408 8.79527 20.8518 8.75809C20.8628 8.72092 20.8643 8.68171 20.8563 8.64384C20.8482 8.60598 20.8307 8.57057 20.8054 8.54068C20.7801 8.51078 20.7477 8.48728 20.7109 8.47219C20.34 8.31428 19.9602 8.17685 19.5732 8.06055C19.8298 8.3635 20.1044 8.6517 20.3957 8.92367C20.4186 8.95387 20.4485 8.97841 20.483 8.99533C20.5176 9.01225 20.5557 9.02107 20.5944 9.02107C20.6331 9.02107 20.6712 9.01225 20.7058 8.99533C20.7403 8.97841 20.7702 8.95387 20.7931 8.92367V8.85728Z" fill="#F5C832"></path>
        <path d="M21.2868 8.27311C21.3157 8.24942 21.3389 8.21993 21.3548 8.18668C21.3707 8.15343 21.379 8.11722 21.379 8.08057C21.379 8.04391 21.3707 8.0077 21.3548 7.97445C21.3389 7.9412 21.3157 7.91171 21.2868 7.88802C20.953 7.65968 20.6051 7.45126 20.2451 7.26392C20.4385 7.61268 20.6536 7.9497 20.8893 8.27311C20.9123 8.3033 20.9422 8.32785 20.9767 8.34477C21.0112 8.36169 21.0494 8.3705 21.0881 8.3705C21.1268 8.3705 21.1649 8.36169 21.1994 8.34477C21.234 8.32785 21.2639 8.3033 21.2868 8.27311Z" fill="#F5C832"></path>
        <path d="M24.0695 7.62207C24.7535 7.62993 25.4199 7.83362 25.9848 8.20752C26.5496 8.58142 26.9877 9.10881 27.2439 9.72334C27.5 10.3379 27.5629 11.0121 27.4245 11.6611C27.286 12.3102 26.9526 12.905 26.466 13.3709C25.9794 13.8368 25.3615 14.1528 24.6899 14.2792C24.0184 14.4057 23.3232 14.3369 22.692 14.0814C22.0607 13.826 21.5215 13.3955 21.1422 12.8439C20.763 12.2923 20.5606 11.6444 20.5605 10.9816C20.5605 10.0906 20.9259 9.2361 21.5762 8.60606C22.2266 7.97602 23.1086 7.62207 24.0284 7.62207H24.0695Z" fill="#F5C832"></path>
        <path d="M24.0696 7.1575C24.1084 7.16173 24.1478 7.15742 24.1847 7.1449C24.2216 7.13238 24.2551 7.11197 24.2828 7.08518C24.3104 7.05839 24.3315 7.02592 24.3444 6.99016C24.3573 6.95441 24.3618 6.9163 24.3574 6.87865C24.2854 6.48834 24.1892 6.10256 24.0696 5.72339C23.9555 6.10308 23.8639 6.4888 23.7954 6.87865C23.7914 6.91509 23.7956 6.95195 23.8077 6.98666C23.8199 7.02137 23.8397 7.0531 23.8658 7.07964C23.8919 7.10618 23.9236 7.12689 23.9588 7.14034C23.994 7.15379 24.0318 7.15964 24.0696 7.1575Z" fill="#F5C832"></path>
        <path d="M24.8366 14.7263C24.7978 14.7302 24.7603 14.7426 24.7271 14.7625C24.6939 14.7824 24.6657 14.8093 24.6446 14.8412C24.6235 14.8731 24.6101 14.9091 24.6054 14.9467C24.6007 14.9843 24.6048 15.0224 24.6173 15.0582C24.7701 15.4216 24.944 15.7763 25.1382 16.1205C25.1626 15.727 25.1626 15.3323 25.1382 14.9387C25.1341 14.9011 25.1213 14.8648 25.1008 14.8326C25.0802 14.8004 25.0525 14.7731 25.0196 14.7527C24.9867 14.7323 24.9494 14.7193 24.9107 14.7147C24.8719 14.7102 24.8325 14.7141 24.7955 14.7263H24.8366Z" fill="#F5C832"></path>
        <path d="M24.0696 14.7926C24.0318 14.7904 23.994 14.7963 23.9588 14.8098C23.9236 14.8232 23.8919 14.8439 23.8658 14.8705C23.8397 14.897 23.8199 14.9287 23.8077 14.9634C23.7956 14.9981 23.7914 15.035 23.7954 15.0714C23.8639 15.4613 23.9555 15.847 24.0696 16.2267C24.1892 15.8475 24.2854 15.4618 24.3574 15.0714C24.3618 15.0338 24.3573 14.9957 24.3444 14.9599C24.3315 14.9242 24.3104 14.8917 24.2828 14.8649C24.2551 14.8381 24.2216 14.8177 24.1847 14.8052C24.1478 14.7927 24.1084 14.7884 24.0696 14.7926Z" fill="#F5C832"></path>
        <path d="M23.3023 14.7262C23.2662 14.7164 23.2282 14.7142 23.1911 14.7199C23.1541 14.7256 23.1187 14.739 23.0874 14.7592C23.0562 14.7794 23.0298 14.8058 23.0101 14.8368C22.9904 14.8678 22.9779 14.9025 22.9734 14.9387C22.949 15.3322 22.949 15.7269 22.9734 16.1205C23.1622 15.7756 23.3315 15.4209 23.4805 15.0582C23.4961 15.0224 23.5025 14.9835 23.4991 14.9449C23.4957 14.9062 23.4827 14.8689 23.4611 14.8363C23.4395 14.8036 23.41 14.7765 23.3752 14.7573C23.3404 14.7381 23.3012 14.7274 23.2612 14.7262H23.3023Z" fill="#F5C832"></path>
        <path d="M22.562 14.5138C22.5283 14.4965 22.4911 14.4866 22.4531 14.4847C22.415 14.4828 22.377 14.4891 22.3417 14.503C22.3064 14.517 22.2747 14.5382 22.2488 14.5653C22.2229 14.5924 22.2035 14.6247 22.1919 14.6598C22.1024 15.045 22.0383 15.4353 22 15.8284C22.2614 15.5238 22.504 15.2046 22.7265 14.8723C22.7441 14.8388 22.7538 14.8019 22.7549 14.7643C22.756 14.7267 22.7483 14.6894 22.7326 14.655C22.7168 14.6206 22.6933 14.5901 22.6638 14.5657C22.6343 14.5413 22.5995 14.5235 22.562 14.5138Z" fill="#F5C832"></path>
        <path d="M21.9309 7.80819C21.9598 7.7845 21.983 7.75501 21.9989 7.72176C22.0148 7.68851 22.023 7.6523 22.023 7.61564C22.023 7.57899 22.0148 7.54278 21.9989 7.50953C21.983 7.47628 21.9598 7.44679 21.9309 7.4231C21.6612 7.14376 21.3728 6.88203 21.0674 6.63965C21.1813 7.01652 21.3233 7.38488 21.4923 7.74179C21.5087 7.77643 21.5331 7.80701 21.5635 7.83122C21.5939 7.85544 21.6295 7.87267 21.6678 7.88161C21.706 7.89056 21.7459 7.89099 21.7843 7.88287C21.8228 7.87475 21.8588 7.8583 21.8898 7.83475L21.9309 7.80819Z" fill="#F5C832"></path>
        <path d="M22.562 7.44971C22.5995 7.43998 22.6343 7.42224 22.6638 7.39781C22.6933 7.37337 22.7168 7.34285 22.7326 7.30848C22.7483 7.27411 22.756 7.23676 22.7549 7.19916C22.7538 7.16157 22.7441 7.12467 22.7265 7.09118C22.5035 6.75497 22.2609 6.43133 22 6.12183C22.0372 6.51502 22.1014 6.90539 22.1919 7.29036C22.2019 7.32669 22.2203 7.36039 22.2455 7.38898C22.2707 7.41757 22.3022 7.44034 22.3377 7.45561C22.3732 7.47089 22.4117 7.47829 22.4505 7.47726C22.4893 7.47624 22.5274 7.46683 22.562 7.44971Z" fill="#F5C832"></path>
        <path d="M23.3022 7.22436C23.3406 7.22237 23.3779 7.21175 23.4112 7.19333C23.4446 7.17491 23.473 7.14921 23.4943 7.11826C23.5156 7.08732 23.5292 7.05199 23.5339 7.01508C23.5386 6.97818 23.5344 6.94071 23.5215 6.90567C23.3748 6.53764 23.2055 6.17846 23.0144 5.83008C22.99 6.22366 22.99 6.61831 23.0144 7.0119C23.0164 7.04903 23.0274 7.08519 23.0464 7.1175C23.0654 7.14981 23.0919 7.17738 23.1239 7.19801C23.1558 7.21863 23.1923 7.23176 23.2304 7.23633C23.2685 7.24091 23.3072 7.23681 23.3433 7.22436H23.3022Z" fill="#F5C832"></path>
      </g>
    </g>
  </g>
</svg>
