<?xml version="1.0" encoding="UTF-8"?>
<svg xmlns="http://www.w3.org/2000/svg" width="46" height="26" viewBox="0 0 46 26" fill="none">
  <mask id="mask0_1_249" style="mask-type:luminance" maskUnits="userSpaceOnUse" x="0" y="0" width="46" height="26">
    <path d="M46 0H0V26H46V0Z" fill="white"></path>
  </mask>
  <g mask="url(#mask0_1_249)">
    <mask id="mask1_1_249" style="mask-type:luminance" maskUnits="userSpaceOnUse" x="0" y="0" width="46" height="26">
      <path d="M46 0H0V26H46V0Z" fill="white"></path>
    </mask>
    <g mask="url(#mask1_1_249)">
      <path d="M46 0H0V8.3258H46V0Z" fill="#4497B1"></path>
      <path d="M46 8.3262H0V8.844H46V8.3262Z" fill="#BC0030"></path>
      <path d="M46 8.8438H0V17.1696H46V8.8438Z" fill="white"></path>
      <path d="M46 17.1699H0V17.6878H46V17.1699Z" fill="#BC0030"></path>
      <path d="M46 17.6875H0V26.0133H46V17.6875Z" fill="#50B63F"></path>
      <mask id="mask2_1_249" style="mask-type:luminance" maskUnits="userSpaceOnUse" x="0" y="0" width="46" height="26">
        <path d="M46 0H0V26H46V0Z" fill="white"></path>
      </mask>
      <g mask="url(#mask2_1_249)">
        <path d="M10.7322 4.1696C10.7322 4.7868 10.5433 5.3901 10.1894 5.9033C9.83539 6.4164 9.3324 6.8164 8.7438 7.0526C8.1552 7.2888 7.5076 7.3506 6.8827 7.2302C6.2579 7.1098 5.684 6.8126 5.2335 6.3762C4.783 5.9397 4.47619 5.3837 4.35189 4.7784C4.22759 4.1731 4.29139 3.5456 4.53519 2.9754C4.77899 2.4052 5.19189 1.9179 5.72159 1.575C6.25129 1.2321 6.8741 1.0491 7.5111 1.0491C8.3654 1.0491 9.18469 1.3778 9.78879 1.9631C10.3929 2.5483 10.7322 3.342 10.7322 4.1696Z" fill="white"></path>
        <path d="M11.6507 4.1697C11.6507 4.6949 11.4899 5.2084 11.1887 5.6452C10.8875 6.0819 10.4593 6.4223 9.95839 6.6233C9.45749 6.8243 8.90629 6.8769 8.37449 6.7744C7.84269 6.672 7.35429 6.419 6.97089 6.0476C6.58749 5.6762 6.32639 5.203 6.22059 4.6878C6.11489 4.1726 6.16919 3.6386 6.37659 3.1534C6.58409 2.6681 6.93549 2.2533 7.38629 1.9615C7.83709 1.6697 8.36709 1.5139 8.90929 1.5139C9.63639 1.5139 10.3337 1.7937 10.8478 2.2918C11.3619 2.7898 11.6507 3.4653 11.6507 4.1697Z" fill="#4497B1"></path>
        <path d="M15.6665 1.0491L15.4746 1.6333L15.7762 1.7263L15.6665 1.0491Z" fill="white"></path>
        <path d="M15.6663 1.0491L15.8719 1.6333L15.5703 1.7263L15.6663 1.0491Z" fill="white"></path>
        <path d="M16.2839 1.4739H15.6396V1.7926L16.2839 1.4739Z" fill="white"></path>
        <path d="M16.2831 1.4739L15.7622 1.8457L15.5703 1.5934L16.2831 1.4739Z" fill="white"></path>
        <path d="M15.0635 1.4739L15.5843 1.8457L15.7762 1.5934L15.0635 1.4739Z" fill="white"></path>
        <path d="M15.0635 1.4739H15.7077V1.7926L15.0635 1.4739Z" fill="white"></path>
        <path d="M16.0501 2.1779L15.8582 1.5803L15.543 1.6733L16.0501 2.1779Z" fill="white"></path>
        <path d="M16.0502 2.1781L15.5293 1.8063L15.7212 1.554L16.0502 2.1781Z" fill="white"></path>
        <path d="M15.2969 2.1781L15.8177 1.8063L15.6258 1.554L15.2969 2.1781Z" fill="white"></path>
        <path d="M15.2969 2.1779L15.4888 1.5803L15.804 1.6733L15.2969 2.1779Z" fill="white"></path>
        <path d="M18.2437 1.0491L18.0518 1.6333L18.3533 1.7263L18.2437 1.0491Z" fill="white"></path>
        <path d="M18.2434 1.0491L18.449 1.6333L18.1338 1.7263L18.2434 1.0491Z" fill="white"></path>
        <path d="M18.86 1.4739H18.2158V1.7926L18.86 1.4739Z" fill="white"></path>
        <path d="M18.8602 1.4739L18.3394 1.8457L18.1475 1.5934L18.8602 1.4739Z" fill="white"></path>
        <path d="M17.6406 1.4739L18.1615 1.8457L18.3397 1.5934L17.6406 1.4739Z" fill="white"></path>
        <path d="M17.6406 1.4739H18.2711V1.7926L17.6406 1.4739Z" fill="white"></path>
        <path d="M18.6273 2.1779L18.4217 1.5803L18.1201 1.6733L18.6273 2.1779Z" fill="white"></path>
        <path d="M18.6273 2.1781L18.1064 1.8063L18.2983 1.554L18.6273 2.1781Z" fill="white"></path>
        <path d="M17.873 2.1781L18.3939 1.8063L18.202 1.554L17.873 2.1781Z" fill="white"></path>
        <path d="M17.873 2.1779L18.0649 1.5803L18.3802 1.6733L17.873 2.1779Z" fill="white"></path>
        <path d="M20.8345 1.0491L20.6289 1.6333L20.9305 1.7263L20.8345 1.0491Z" fill="white"></path>
        <path d="M20.8343 1.0491L21.0262 1.6333L20.7109 1.7263L20.8343 1.0491Z" fill="white"></path>
        <path d="M21.4372 1.4739H20.793V1.7926L21.4372 1.4739Z" fill="white"></path>
        <path d="M21.4374 1.4739L20.9165 1.8457L20.7246 1.5934L21.4374 1.4739Z" fill="white"></path>
        <path d="M20.2178 1.4739L20.7386 1.8457L20.9305 1.5934L20.2178 1.4739Z" fill="white"></path>
        <path d="M20.2178 1.4739H20.8483V1.7926L20.2178 1.4739Z" fill="white"></path>
        <path d="M21.2044 2.1779L20.9988 1.5803L20.6973 1.6733L21.2044 2.1779Z" fill="white"></path>
        <path d="M21.2045 2.1781L20.6836 1.8063L20.8618 1.554L21.2045 2.1781Z" fill="white"></path>
        <path d="M20.4502 2.1781L20.9711 1.8063L20.7792 1.554L20.4502 2.1781Z" fill="white"></path>
        <path d="M20.4502 2.1779L20.6421 1.5803L20.9573 1.6733L20.4502 2.1779Z" fill="white"></path>
        <path d="M13.0894 3.5325L12.8975 4.13L13.199 4.223L13.0894 3.5325Z" fill="white"></path>
        <path d="M13.0901 3.5325L13.2957 4.13L12.9941 4.223L13.0901 3.5325Z" fill="white"></path>
        <path d="M13.7067 3.97H13.0625V4.2754L13.7067 3.97Z" fill="white"></path>
        <path d="M13.7069 3.97L13.186 4.3285L12.9941 4.0762L13.7069 3.97Z" fill="white"></path>
        <path d="M12.4863 3.97L13.0072 4.3285L13.1991 4.0762L12.4863 3.97Z" fill="white"></path>
        <path d="M12.4863 3.97H13.1305V4.2754L12.4863 3.97Z" fill="white"></path>
        <path d="M13.4739 4.6607L13.2821 4.0764L12.9668 4.1694L13.4739 4.6607Z" fill="white"></path>
        <path d="M13.474 4.6609L12.9531 4.3023L13.145 4.05L13.474 4.6609Z" fill="white"></path>
        <path d="M12.7197 4.6609L13.2406 4.3023L13.0487 4.05L12.7197 4.6609Z" fill="white"></path>
        <path d="M12.7197 4.6609L12.9116 4.0767L13.2269 4.1696L12.7197 4.6609Z" fill="white"></path>
        <path d="M15.6665 3.5325L15.4746 4.13L15.7762 4.223L15.6665 3.5325Z" fill="white"></path>
        <path d="M15.6663 3.5325L15.8719 4.13L15.5703 4.223L15.6663 3.5325Z" fill="white"></path>
        <path d="M16.2839 3.97H15.6396V4.2754L16.2839 3.97Z" fill="white"></path>
        <path d="M16.2831 3.97L15.7622 4.3285L15.5703 4.0762L16.2831 3.97Z" fill="white"></path>
        <path d="M15.0635 3.97L15.5843 4.3285L15.7762 4.0762L15.0635 3.97Z" fill="white"></path>
        <path d="M15.0635 3.97H15.7077V4.2754L15.0635 3.97Z" fill="white"></path>
        <path d="M16.0501 4.6607L15.8582 4.0764L15.543 4.1694L16.0501 4.6607Z" fill="white"></path>
        <path d="M16.0502 4.6609L15.5293 4.3023L15.7212 4.05L16.0502 4.6609Z" fill="white"></path>
        <path d="M15.2969 4.6609L15.8177 4.3023L15.6258 4.05L15.2969 4.6609Z" fill="white"></path>
        <path d="M15.2969 4.6607L15.4888 4.0764L15.804 4.1694L15.2969 4.6607Z" fill="white"></path>
        <path d="M18.2437 3.5325L18.0518 4.13L18.3533 4.223L18.2437 3.5325Z" fill="white"></path>
        <path d="M18.2434 3.5325L18.449 4.13L18.1338 4.223L18.2434 3.5325Z" fill="white"></path>
        <path d="M18.86 3.97H18.2158V4.2754L18.86 3.97Z" fill="white"></path>
        <path d="M18.8602 3.97L18.3394 4.3285L18.1475 4.0762L18.8602 3.97Z" fill="white"></path>
        <path d="M17.6406 3.97L18.1615 4.3285L18.3397 4.0762L17.6406 3.97Z" fill="white"></path>
        <path d="M17.6406 3.97H18.2711V4.2754L17.6406 3.97Z" fill="white"></path>
        <path d="M18.6273 4.6609L18.4217 4.0767L18.1201 4.1696L18.6273 4.6609Z" fill="white"></path>
        <path d="M18.6273 4.6609L18.1064 4.3023L18.2983 4.05L18.6273 4.6609Z" fill="white"></path>
        <path d="M17.873 4.6609L18.3939 4.3023L18.202 4.05L17.873 4.6609Z" fill="white"></path>
        <path d="M17.873 4.6607L18.0649 4.0764L18.3802 4.1694L17.873 4.6607Z" fill="white"></path>
        <path d="M20.8345 3.5325L20.6289 4.13L20.9305 4.223L20.8345 3.5325Z" fill="white"></path>
        <path d="M20.8343 3.5325L21.0262 4.13L20.7109 4.223L20.8343 3.5325Z" fill="white"></path>
        <path d="M21.4372 3.97H20.793V4.2754L21.4372 3.97Z" fill="white"></path>
        <path d="M21.4374 3.97L20.9165 4.3285L20.7246 4.0762L21.4374 3.97Z" fill="white"></path>
        <path d="M20.2178 3.97L20.7386 4.3285L20.9305 4.0762L20.2178 3.97Z" fill="white"></path>
        <path d="M20.2178 3.97H20.8483V4.2754L20.2178 3.97Z" fill="white"></path>
        <path d="M21.2044 4.6609L20.9988 4.0767L20.6973 4.1696L21.2044 4.6609Z" fill="white"></path>
        <path d="M21.2045 4.6609L20.6836 4.3023L20.8618 4.05L21.2045 4.6609Z" fill="white"></path>
        <path d="M20.4502 4.6609L20.9711 4.3023L20.7792 4.05L20.4502 4.6609Z" fill="white"></path>
        <path d="M20.4502 4.6609L20.6421 4.0767L20.9573 4.1696L20.4502 4.6609Z" fill="white"></path>
        <path d="M10.5269 6.0286L10.3213 6.6261L10.6228 6.7191L10.5269 6.0286Z" fill="white"></path>
        <path d="M10.5266 6.0286L10.7185 6.6261L10.417 6.7191L10.5266 6.0286Z" fill="white"></path>
        <path d="M11.1296 6.4668H10.4854V6.7722L11.1296 6.4668Z" fill="white"></path>
        <path d="M11.1297 6.4668L10.6089 6.8253L10.417 6.573L11.1297 6.4668Z" fill="white"></path>
        <path d="M9.91019 6.467L10.431 6.8256L10.6229 6.5733L9.91019 6.467Z" fill="white"></path>
        <path d="M9.91019 6.467H10.5544V6.7725L9.91019 6.467Z" fill="white"></path>
        <path d="M10.8968 7.1578L10.7049 6.5735L10.3896 6.6664L10.8968 7.1578Z" fill="white"></path>
        <path d="M10.8968 7.157L10.376 6.7984L10.5679 6.5461L10.8968 7.157Z" fill="white"></path>
        <path d="M10.1426 7.157L10.6634 6.7984L10.4715 6.5461L10.1426 7.157Z" fill="white"></path>
        <path d="M10.1426 7.1578L10.3345 6.5735L10.6497 6.6664L10.1426 7.1578Z" fill="white"></path>
        <path d="M13.0894 6.0286L12.8975 6.6261L13.199 6.7191L13.0894 6.0286Z" fill="white"></path>
        <path d="M13.0901 6.0286L13.2957 6.6261L12.9941 6.7191L13.0901 6.0286Z" fill="white"></path>
        <path d="M13.7067 6.4668H13.0625V6.7722L13.7067 6.4668Z" fill="white"></path>
        <path d="M13.7069 6.467L13.186 6.8256L12.9941 6.5733L13.7069 6.467Z" fill="white"></path>
        <path d="M12.4863 6.467L13.0072 6.8256L13.1991 6.5733L12.4863 6.467Z" fill="white"></path>
        <path d="M12.4863 6.467H13.1305V6.7725L12.4863 6.467Z" fill="white"></path>
        <path d="M13.4739 7.1578L13.2821 6.5735L12.9668 6.6664L13.4739 7.1578Z" fill="white"></path>
        <path d="M13.474 7.157L12.9531 6.7984L13.145 6.5461L13.474 7.157Z" fill="white"></path>
        <path d="M12.7197 7.157L13.2406 6.7984L13.0487 6.5461L12.7197 7.157Z" fill="white"></path>
        <path d="M12.7197 7.1578L12.9116 6.5735L13.2269 6.6664L12.7197 7.1578Z" fill="white"></path>
        <path d="M15.6665 6.0286L15.4746 6.6261L15.7762 6.7191L15.6665 6.0286Z" fill="white"></path>
        <path d="M15.6663 6.0286L15.8719 6.6261L15.5703 6.7191L15.6663 6.0286Z" fill="white"></path>
        <path d="M16.2839 6.467H15.6396V6.7725L16.2839 6.467Z" fill="white"></path>
        <path d="M16.2831 6.467L15.7622 6.8256L15.5703 6.5733L16.2831 6.467Z" fill="white"></path>
        <path d="M15.0635 6.4668L15.5843 6.8253L15.7762 6.573L15.0635 6.4668Z" fill="white"></path>
        <path d="M15.0635 6.4668H15.7077V6.7722L15.0635 6.4668Z" fill="white"></path>
        <path d="M16.0501 7.1578L15.8582 6.5735L15.543 6.6664L16.0501 7.1578Z" fill="white"></path>
        <path d="M16.0502 7.157L15.5293 6.7984L15.7212 6.5461L16.0502 7.157Z" fill="white"></path>
        <path d="M15.2969 7.157L15.8177 6.7984L15.6258 6.5461L15.2969 7.157Z" fill="white"></path>
        <path d="M15.2969 7.1578L15.4888 6.5735L15.804 6.6664L15.2969 7.1578Z" fill="white"></path>
        <path d="M18.2437 6.0286L18.0518 6.6261L18.3533 6.7191L18.2437 6.0286Z" fill="white"></path>
        <path d="M18.2434 6.0286L18.449 6.6261L18.1338 6.7191L18.2434 6.0286Z" fill="white"></path>
        <path d="M18.86 6.467H18.2158V6.7725L18.86 6.467Z" fill="white"></path>
        <path d="M18.8602 6.4668L18.3394 6.8253L18.1475 6.573L18.8602 6.4668Z" fill="white"></path>
        <path d="M17.6406 6.4668L18.1615 6.8253L18.3397 6.573L17.6406 6.4668Z" fill="white"></path>
        <path d="M17.6406 6.4668H18.2711V6.7722L17.6406 6.4668Z" fill="white"></path>
        <path d="M18.6273 7.1578L18.4217 6.5735L18.1201 6.6664L18.6273 7.1578Z" fill="white"></path>
        <path d="M18.6273 7.157L18.1064 6.7984L18.2983 6.5461L18.6273 7.157Z" fill="white"></path>
        <path d="M17.873 7.157L18.3939 6.7984L18.202 6.5461L17.873 7.157Z" fill="white"></path>
        <path d="M17.873 7.1578L18.0649 6.5735L18.3802 6.6664L17.873 7.1578Z" fill="white"></path>
        <path d="M20.8345 6.0286L20.6289 6.6261L20.9305 6.7191L20.8345 6.0286Z" fill="white"></path>
        <path d="M20.8343 6.0286L21.0262 6.6261L20.7109 6.7191L20.8343 6.0286Z" fill="white"></path>
        <path d="M21.4372 6.4668H20.793V6.7722L21.4372 6.4668Z" fill="white"></path>
        <path d="M21.4374 6.4668L20.9165 6.8253L20.7246 6.573L21.4374 6.4668Z" fill="white"></path>
        <path d="M20.2178 6.467L20.7386 6.8256L20.9305 6.5733L20.2178 6.467Z" fill="white"></path>
        <path d="M20.2178 6.467H20.8483V6.7725L20.2178 6.467Z" fill="white"></path>
        <path d="M21.2044 7.1578L20.9988 6.5735L20.6973 6.6664L21.2044 7.1578Z" fill="white"></path>
        <path d="M21.2045 7.157L20.6836 6.7984L20.8618 6.5461L21.2045 7.157Z" fill="white"></path>
        <path d="M20.4502 7.157L20.9711 6.7984L20.7792 6.5461L20.4502 7.157Z" fill="white"></path>
        <path d="M20.4502 7.1578L20.6421 6.5735L20.9573 6.6664L20.4502 7.1578Z" fill="white"></path>
      </g>
    </g>
  </g>
</svg>
