<?xml version="1.0" encoding="UTF-8"?>
<svg fill="none" viewBox="0 0 262 44" xmlns="http://www.w3.org/2000/svg">
  <g clip-path="url(#a)">
    <path d="M11.1288 10.0713V0.319222H0V10.0713H11.1288Z" fill="#231F20"/>
    <path d="M0 13.847V43.6807H11.1288V13.847H0Z" fill="#231F20"/>
    <path d="m30.021 10.071v-9.7521h-11.129v9.7521h11.129z" fill="#BF1B2C"/>
    <path d="m18.892 13.847v29.834h11.129v-29.834h-11.129z" fill="#BF1B2C"/>
    <path d="m47.426 13.847v29.834h11.129v-29.834h-11.129z" fill="#BF1B2C"/>
    <path d="m35.327 0.31922v9.7521h35.262v-9.7521h-35.262z" fill="#BF1B2C"/>
    <path d="m110.86 6.1709c-4.335-3.9014-9.954-5.8518-16.854-5.8518h-18.117v9.752h18.182c3.7951 0 6.7289 1.1051 8.7989 3.3152 2.071 2.21 3.106 5.0712 3.106 8.5812 0 3.3379-1.078 6.1662-3.235 8.4838-2.157 2.3189-5.0687 3.4771-8.7345 3.4771h-6.988v-20.081h-11.129v29.834h18.182c6.8589 0 12.455-1.9604 16.79-5.8836 4.335-3.9218 6.503-9.1983 6.503-15.83 0-6.631-2.168-11.896-6.503-15.797z" fill="#231F20"/>
    <path d="M130.855 44H262V43.3616H130.855V44Z" clip-rule="evenodd" fill="#231F20" fill-rule="evenodd"/>
    <path d="m132.12 18.579h-1.02v-11.988h1.02v11.988z" fill="#231F20"/>
    <path d="m147.48 18.579h-1.001l-7.513-10.298v10.298h-1.02v-11.988h1.038l7.477 10.154v-10.154h1.019v11.988z" fill="#231F20"/>
    <path d="m157.39 18.579h-1.038v-11.053h-3.899v-0.93457h8.837v0.93457h-3.9v11.053z" fill="#231F20"/>
    <path d="m173.83 18.579h-7.567v-11.988h7.567v0.93457h-6.547v4.4392h6.422v0.9346h-6.422v4.7447h6.547v0.9346z" fill="#231F20"/>
    <path d="m186.01 18.579h-6.798v-11.988h1.02v11.053h5.778v0.9346z" fill="#231F20"/>
    <path d="m197.89 18.579h-6.798v-11.988h1.02v11.053h5.778v0.9346z" fill="#231F20"/>
    <path d="m203.99 18.579h-1.02v-11.988h1.02v11.988z" fill="#231F20"/>
    <path d="m215.42 18.812c-1.705 0-3.138-0.5809-4.301-1.7433-1.163-1.1621-1.745-2.6538-1.745-4.4752 0-1.8212 0.582-3.3097 1.745-4.4661 1.163-1.1562 2.596-1.7343 4.301-1.7343 1.813 0 3.309 0.68295 4.49 2.0489l-0.769 0.55715c-0.43-0.51501-0.968-0.92259-1.618-1.2221-0.65-0.29934-1.352-0.44932-2.103-0.44932-1.419 0-2.602 0.49145-3.55 1.4738-0.948 0.98269-1.423 2.2466-1.423 3.7922 0 1.5339 0.475 2.7977 1.423 3.7922 0.948 0.9947 2.131 1.4917 3.55 1.4917 0.728 0 1.395-0.1437 2.004-0.4313 0.608-0.2876 1.109-0.6292 1.502-1.0244v-2.8756h-4.508v-0.9166h5.528v4.1874c-1.181 1.3301-2.689 1.9951-4.526 1.9951z" fill="#231F20"/>
    <path d="m232.97 18.579h-7.567v-11.988h7.567v0.93457h-6.547v4.4392h6.422v0.9346h-6.422v4.7447h6.547v0.9346z" fill="#231F20"/>
    <path d="m247.88 18.579h-1.001l-7.513-10.298v10.298h-1.02v-11.988h1.038l7.477 10.154v-10.154h1.019v11.988z" fill="#231F20"/>
    <path d="m257.79 18.579h-1.037v-11.053h-3.9v-0.93457h8.837v0.93457h-3.9v11.053z" fill="#231F20"/>
    <path d="m132.12 36.816h-1.02v-11.988h1.02v11.988z" fill="#231F20"/>
    <path d="m139.16 36.816h-1.038v-11.053h-3.899v-0.9346h8.836v0.9346h-3.899v11.053z" fill="#231F20"/>
    <path d="m153.62 35.882c1.526 0 2.734-0.479 3.623-1.4378 0.888-0.9585 1.332-2.1627 1.332-3.6124 0-1.4496-0.441-2.6568-1.324-3.6215-0.882-0.9643-2.092-1.4468-3.631-1.4468h-2.79v10.118h2.79zm0 0.9346h-3.81v-11.988h3.81c1.801 0 3.256 0.5781 4.365 1.7344 1.109 1.1565 1.663 2.579 1.663 4.2685 0 1.7015-0.551 3.1243-1.654 4.2685-1.103 1.1444-2.561 1.7163-4.374 1.7163z" fill="#231F20"/>
    <path d="m163.2 36.816h-1.02v-11.988h1.02v11.988z" fill="#231F20"/>
    <path d="m169.88 37.032c-1.872 0-3.327-0.635-4.365-1.9051l0.662-0.7728c0.99 1.1622 2.23 1.7433 3.721 1.7433 1.109 0 1.911-0.2427 2.406-0.7278 0.495-0.4853 0.742-1.0393 0.742-1.6625 0-0.4791-0.131-0.8835-0.394-1.213-0.262-0.3296-0.605-0.5842-1.028-0.764-0.423-0.1797-0.889-0.3415-1.395-0.4852-0.507-0.1438-1.014-0.2966-1.521-0.4583-0.507-0.1618-0.972-0.3533-1.395-0.5751-0.423-0.2217-0.766-0.5331-1.029-0.9346-0.262-0.4015-0.393-0.8834-0.393-1.4468 0-0.9585 0.376-1.7313 1.127-2.3185 0.751-0.5869 1.681-0.8804 2.79-0.8804 1.706 0 3.053 0.5631 4.043 1.6892l-0.68 0.7548c-0.834-1.0064-1.973-1.5097-3.416-1.5097-0.799 0-1.464 0.2067-1.995 0.6201-0.531 0.4133-0.796 0.9435-0.796 1.5907 0 0.4075 0.131 0.7577 0.394 1.0512 0.262 0.2938 0.605 0.5214 1.028 0.683 0.423 0.1618 0.888 0.3117 1.396 0.4493 0.506 0.138 1.013 0.2938 1.52 0.4673 0.507 0.1738 0.972 0.3804 1.395 0.62 0.424 0.2399 0.766 0.5783 1.029 1.0155 0.262 0.4375 0.393 0.9615 0.393 1.5726 0 0.9108-0.34 1.7046-1.019 2.3813-0.68 0.6772-1.753 1.0155-3.22 1.0155z" fill="#231F20"/>
    <path d="m180.59 36.816h-1.038v-11.053h-3.899v-0.9346h8.836v0.9346h-3.899v11.053z" fill="#231F20"/>
    <path d="m190.97 30.922c0.787 0 1.425-0.2428 1.913-0.7281 0.489-0.4852 0.734-1.1053 0.734-1.8601 0-0.7549-0.245-1.3719-0.734-1.8512-0.488-0.4791-1.126-0.7189-1.913-0.7189h-3.346v5.1583h3.346zm3.863 5.8948h-1.234l-3.345-4.9605h-2.63v4.9605h-1.019v-11.988h4.454c1.049 0 1.917 0.3178 2.603 0.9526 0.685 0.6352 1.028 1.4859 1.028 2.5521 0 1.0424-0.319 1.8692-0.957 2.4802-0.638 0.6111-1.422 0.9345-2.352 0.9705l3.452 5.0323z" fill="#231F20"/>
    <path d="m198.25 36.816h-1.019v-11.988h1.019v11.988z" fill="#231F20"/>
    <path d="m206.06 35.882c0.787 0 1.402-0.2125 1.843-0.638 0.441-0.4251 0.662-1.0033 0.662-1.7344 0-0.6587-0.221-1.2189-0.662-1.6804-0.441-0.4611-1.056-0.692-1.843-0.692h-3.828v4.7448h3.828zm-0.071-5.6792c0.739 0 1.314-0.2068 1.725-0.6201 0.411-0.4134 0.618-0.9436 0.618-1.5906 0-0.6349-0.207-1.165-0.618-1.5906-0.411-0.4251-0.986-0.638-1.725-0.638h-3.757v4.4393h3.757zm0.232 6.6138h-5.008v-11.988h4.901c1.002 0 1.801 0.2758 2.397 0.8267 0.596 0.5512 0.894 1.2941 0.894 2.2287 0 0.7189-0.206 1.3272-0.618 1.8242-0.411 0.4974-0.902 0.806-1.474 0.9255 0.632 0.0961 1.176 0.4346 1.635 1.0155 0.459 0.5813 0.69 1.2253 0.69 1.9321 0 0.9946-0.304 1.7824-0.912 2.3633-0.608 0.5814-1.443 0.8717-2.505 0.8717z" fill="#231F20"/>
    <path d="m216.85 37.032c-1.503 0-2.653-0.4282-3.452-1.285-0.799-0.8566-1.199-2.0337-1.199-3.5317v-7.3866h1.038v7.3687c0 1.2221 0.312 2.1777 0.938 2.8666 0.626 0.6891 1.518 1.0334 2.675 1.0334 1.169 0 2.063-0.3415 2.683-1.0244s0.93-1.6413 0.93-2.8756v-7.3687h1.038v7.3866c0 1.5097-0.398 2.6901-1.191 3.5406-0.793 0.8509-1.945 1.2761-3.46 1.2761z" fill="#231F20"/>
    <path d="m228.55 36.816h-1.038v-11.053h-3.899v-0.9346h8.836v0.9346h-3.899v11.053z" fill="#231F20"/>
    <path d="m235.58 36.816h-1.02v-11.988h1.02v11.988z" fill="#231F20"/>
    <path d="m243.9 36.098c1.407 0 2.546-0.4942 3.417-1.4827 0.87-0.9885 1.306-2.2494 1.306-3.7832 0-1.5457-0.434-2.8095-1.298-3.7922-0.865-0.9823-2.006-1.4738-3.425-1.4738-1.431 0-2.576 0.4915-3.434 1.4738-0.859 0.9827-1.288 2.2465-1.288 3.7922 0 1.5338 0.429 2.7947 1.288 3.7832 0.858 0.9885 2.003 1.4827 3.434 1.4827zm0 0.9346c-1.729 0-3.128-0.5869-4.195-1.7614-1.068-1.1739-1.6-2.6536-1.6-4.4391 0-1.7851 0.532-3.2648 1.6-4.4392 1.067-1.174 2.466-1.7611 4.195-1.7611 1.717 0 3.113 0.5871 4.186 1.7611 1.073 1.1744 1.61 2.6541 1.61 4.4392 0 1.7855-0.537 3.2652-1.61 4.4391-1.073 1.1745-2.469 1.7614-4.186 1.7614z" fill="#231F20"/>
    <path d="m261.75 36.816h-1.002l-7.513-10.298v10.298h-1.02v-11.988h1.038l7.477 10.154v-10.154h1.02v11.988z" fill="#231F20"/>
    <path d="m130.86 0.63867h131.14v-0.6384h-131.14v0.6384z" clip-rule="evenodd" fill="#231F20" fill-rule="evenodd"/>
  </g>
  <defs>
    <clipPath id="a">
      <rect width="262" height="44" fill="#fff"/>
    </clipPath>
  </defs>
</svg>
